<?xml version="1.0" encoding="utf-8"?>
<!-- Generator: Adobe Illustrator 25.0.0, SVG Export Plug-In . SVG Version: 6.00 Build 0)  -->
<svg version="1.1" id="Layer_1" xmlns="http://www.w3.org/2000/svg" xmlns:xlink="http://www.w3.org/1999/xlink" x="0px" y="0px"
	 viewBox="0 0 512 512" style="enable-background:new 0 0 512 512;" xml:space="preserve">
<style type="text/css">
	.st0{fill:#E4ECFF;}
	.st1{fill:#4A566E;}
	.st2{fill:#017AFC;}
	.st3{fill:#FCFDFD;}
	.st4{fill:#4A566F;}
	.st5{fill:#FDFDFE;}
</style>
<g>
	<circle class="st0" cx="256" cy="256" r="255.9"/>
	<g>
		<path class="st1" d="M134,337.3c-1.1-3.6-1.6-7.3-1.7-11c-0.6-27-2.2-121.3,2.3-129.8c4.5-8.7,11.7-13.1,21.4-13.1
			c13.5-0.1,27.1,0,40.6,0c2,0,4.7,0.7,5.9-0.3c1.4-1.2,0.3-3.9,0.5-6c0-0.2,0-0.3,0-0.5c0.3-9.9,6.9-16.7,16.8-16.8
			c24.4-0.1,48.7-0.1,73.1,0c7,0,12.3,3.2,15.4,9.7c1.7,3.6,1.5,7.6,1.4,11.4c-0.1,1.4,1.1,2.5,2.5,2.5c14.9-0.1,29.7-0.1,44.6,0
			c13.4,0.1,23.5,9.7,23.5,23c0.1,40.9,0.1,81.8,0,122.7c0,7.3-2.9,13.4-8.7,18.1c-4.5,3.7-9.8,5.1-15.5,5.1c-22.3,0-44.5,0-66.8,0
			c-44.1,0-88.2,0-132.3,0c-10.1,0-17.7-4.2-22.3-13.3C134.4,338.5,134.2,337.9,134,337.3z M195.5,267.8c0,34.3,28.1,62,62.5,61.3
			c32.5-0.6,59.1-27,60-59.4c1-34.5-26.8-63-61-63C223,206.6,195.5,234,195.5,267.8z M332.9,218.2c-0.2,6.8,5.3,12.4,12,12.4
			c6.7,0,12.2-5.5,12.1-12.2c-0.1-6.9-6-12.4-13-11.9C338,206.9,333.1,212.1,332.9,218.2z"/>
		<path class="st2" d="M195.8,267.5c0-33.8,27.5-61.2,61.4-61.1c33.7,0,61.1,27.5,61.1,61.2c0,33.8-27.4,61.3-61.3,61.2
			C223.2,328.9,195.8,301.4,195.8,267.5z M257.1,315.8c26.5,0,48.2-21.7,48.1-48.2c0-26.4-21.6-48-48.1-48.1
			c-26.5-0.1-48.2,21.6-48.2,48.1C208.9,294.2,230.5,315.8,257.1,315.8z"/>
		<path class="st3" d="M333.2,218.4c-0.1-6.7,5.4-12.2,12.1-12.2c6.6,0,12,5.4,12.1,11.9c0.1,6.6-5.4,12.2-12.1,12.2
			C338.7,230.3,333.3,225,333.2,218.4z"/>
		<path class="st4" d="M257.1,315.8c-26.6,0-48.2-21.6-48.2-48.2c0-26.5,21.8-48.2,48.2-48.1c26.5,0.1,48,21.7,48.1,48.1
			C305.2,294.1,283.6,315.8,257.1,315.8z M223.7,267.5c-0.1,18.3,14.7,33.3,33,33.4c18.4,0.1,33.3-14.6,33.5-33
			c0.1-18.5-14.7-33.4-33.2-33.5C238.6,234.3,223.8,249,223.7,267.5z"/>
		<path class="st5" d="M223.7,267.5c0.1-18.4,15-33.2,33.3-33.1c18.5,0.1,33.3,15,33.2,33.5c-0.1,18.3-15.1,33.1-33.5,33
			C238.4,300.7,223.6,285.8,223.7,267.5z"/>
	</g>
</g>
</svg>
