<?xml version="1.0" encoding="utf-8"?>
<!-- Generator: Adobe Illustrator 25.0.0, SVG Export Plug-In . SVG Version: 6.00 Build 0)  -->
<svg version="1.1" id="Layer_1" xmlns="http://www.w3.org/2000/svg" xmlns:xlink="http://www.w3.org/1999/xlink" x="0px" y="0px"
	 viewBox="0 0 512 512" style="enable-background:new 0 0 512 512;" xml:space="preserve">
<style type="text/css">
	.st0{fill:#E4ECFF;}
	.st1{fill:#FCF9FF;}
	.st2{fill:url(#SVGID_1_);}
	.st3{fill:url(#SVGID_2_);}
	.st4{clip-path:url(#SVGID_4_);fill:#C9B8FF;}
	.st5{fill:url(#SVGID_5_);}
	.st6{fill:url(#SVGID_6_);}
	.st7{clip-path:url(#SVGID_8_);fill:#C9B8FF;}
	.st8{fill:url(#SVGID_9_);}
	.st9{fill:url(#SVGID_10_);}
	.st10{clip-path:url(#SVGID_12_);fill:#6E4CFF;}
	.st11{fill:url(#SVGID_13_);}
	.st12{fill:#FFFFFF;}
	.st13{fill:url(#SVGID_14_);}
	.st14{fill:#4175FC;}
	.st15{clip-path:url(#SVGID_16_);fill:#4740FF;}
	.st16{fill:url(#SVGID_17_);}
	.st17{fill:url(#SVGID_18_);}
	.st18{fill:#14E7D9;}
</style>
<g>
	<circle class="st0" cx="256" cy="256" r="255.9"/>
	<g>
		<circle class="st1" cx="175.2" cy="190.4" r="20.4"/>
		<g>
			<linearGradient id="SVGID_1_" gradientUnits="userSpaceOnUse" x1="148.134" y1="219.588" x2="202.333" y2="161.2157">
				<stop  offset="0" style="stop-color:#6A48FE"/>
				<stop  offset="1" style="stop-color:#A58FFE"/>
			</linearGradient>
			<circle class="st2" cx="175.2" cy="190.4" r="39.8"/>
			<g>
				<linearGradient id="SVGID_2_" gradientUnits="userSpaceOnUse" x1="161.3418" y1="205.3633" x2="189.1253" y2="175.4405">
					<stop  offset="0" style="stop-color:#DBD0FF"/>
					<stop  offset="1" style="stop-color:#FFFFFF"/>
				</linearGradient>
				<circle class="st3" cx="175.2" cy="190.4" r="20.4"/>
				<g>
					<defs>
						<circle id="SVGID_3_" cx="175.2" cy="190.4" r="20.4"/>
					</defs>
					<clipPath id="SVGID_4_">
						<use xlink:href="#SVGID_3_"  style="overflow:visible;"/>
					</clipPath>
					<path class="st4" d="M157.1,181.3c0,0,9.4,31.3,39.9,17.5l-1.7,14.5l-22.6,15l-13.9-7c0,0-17-6.9-16.3-11
						c0.7-4,2.4-15.3,3.3-16.5s6.6-12.4,6.6-12.4H157.1z"/>
				</g>
			</g>
		</g>
		<g>
			<linearGradient id="SVGID_5_" gradientUnits="userSpaceOnUse" x1="230.0149" y1="219.588" x2="284.2139" y2="161.2157">
				<stop  offset="0" style="stop-color:#6A48FE"/>
				<stop  offset="1" style="stop-color:#A58FFE"/>
			</linearGradient>
			<circle class="st5" cx="257.1" cy="190.4" r="39.8"/>
			<g>
				<linearGradient id="SVGID_6_" gradientUnits="userSpaceOnUse" x1="243.2226" y1="205.3633" x2="271.0061" y2="175.4405">
					<stop  offset="0" style="stop-color:#DBD0FF"/>
					<stop  offset="1" style="stop-color:#FFFFFF"/>
				</linearGradient>
				<circle class="st6" cx="257.1" cy="190.4" r="20.4"/>
				<g>
					<defs>
						<circle id="SVGID_7_" cx="257.1" cy="190.4" r="20.4"/>
					</defs>
					<clipPath id="SVGID_8_">
						<use xlink:href="#SVGID_7_"  style="overflow:visible;"/>
					</clipPath>
					<path class="st7" d="M239,181.3c0,0,9.4,31.3,39.9,17.5l-1.7,14.5l-22.6,15l-13.9-7c0,0-17-6.9-16.3-11
						c0.7-4,2.4-15.3,3.3-16.5s6.6-12.4,6.6-12.4H239z"/>
				</g>
			</g>
		</g>
		<g>
			<linearGradient id="SVGID_9_" gradientUnits="userSpaceOnUse" x1="276.8917" y1="295.0676" x2="315.8951" y2="295.0676">
				<stop  offset="0" style="stop-color:#6A48FE"/>
				<stop  offset="1" style="stop-color:#A58FFE"/>
			</linearGradient>
			<path class="st8" d="M298.1,337.5h-3.5c-9.8,0-17.8-8-17.8-17.8v-49.4c0-9.8,8-17.8,17.8-17.8h3.5c9.8,0,17.8,8,17.8,17.8v49.4
				C315.9,329.5,307.9,337.5,298.1,337.5z"/>
			<linearGradient id="SVGID_10_" gradientUnits="userSpaceOnUse" x1="315.6843" y1="293.3097" x2="377.578" y2="293.3097">
				<stop  offset="0" style="stop-color:#4837FF"/>
				<stop  offset="0.9978" style="stop-color:#8A6EFF"/>
			</linearGradient>
			<path class="st9" d="M315.7,269.3l43.4-33.3c0,0,11.7-7.3,16.9,1c1.1,1.7,1.6,3.7,1.6,5.7v97.1c0,2.4-0.4,4.7-1.2,6.9
				c-1.8,4.8-6,10.5-15.8,3.5L315.7,317V269.3z"/>
			<g>
				<defs>
					<path id="SVGID_11_" d="M315.7,269.3l43.4-33.3c0,0,11.7-7.3,16.9,1c1.1,1.7,1.6,3.7,1.6,5.7v97.1c0,2.4-0.4,4.7-1.2,6.9
						c-1.8,4.8-6,10.5-15.8,3.5L315.7,317V269.3z"/>
				</defs>
				<clipPath id="SVGID_12_">
					<use xlink:href="#SVGID_11_"  style="overflow:visible;"/>
				</clipPath>
				<path class="st10" d="M379.4,276.3c0,0-5.3,55.6-63.5,43.4l8.4,27c0,0,21,13.8,22.3,14.7c1.3,0.9,32.8,10.6,36.4,4.7
					s7.9-19.8,9.1-23.6c1.3-3.8-0.8-28.7,0-32C393,307.1,379.4,276.3,379.4,276.3z"/>
			</g>
			<linearGradient id="SVGID_13_" gradientUnits="userSpaceOnUse" x1="134.188" y1="295.0676" x2="295.8983" y2="295.0676">
				<stop  offset="0" style="stop-color:#A48FFF"/>
				<stop  offset="1" style="stop-color:#FFFFFF"/>
			</linearGradient>
			<path class="st11" d="M276.5,361.4H153.9c-10.7,0-19.5-8.8-19.5-19.5v-93.7c0-10.7,8.8-19.5,19.5-19.5h122.5
				c10.7,0,19.5,8.8,19.5,19.5v93.7C296,352.6,287.2,361.4,276.5,361.4z"/>
			<path class="st12" d="M276.5,361.4h-32.5c-10.7,0-19.5-8.8-19.5-19.5v-93.7c0-10.7,8.8-19.5,19.5-19.5h32.5
				c10.7,0,19.5,8.8,19.5,19.5v93.7C296,352.6,287.2,361.4,276.5,361.4z"/>
			<linearGradient id="SVGID_14_" gradientUnits="userSpaceOnUse" x1="165.3506" y1="295.0676" x2="288.6111" y2="295.0676">
				<stop  offset="0" style="stop-color:#D2C3FF"/>
				<stop  offset="1" style="stop-color:#E9E2FF"/>
			</linearGradient>
			<path class="st13" d="M257,361.4h-65.2c-10.7,0-19.5-8.8-19.5-19.5v-93.7c0-10.7,8.8-19.5,19.5-19.5H257
				c10.7,0,19.5,8.8,19.5,19.5v93.7C276.5,352.6,267.8,361.4,257,361.4z"/>
			<rect x="151.9" y="250.8" class="st14" width="124.6" height="62"/>
			<g>
				<defs>
					<rect id="SVGID_15_" x="151.9" y="250.8" width="124.6" height="62"/>
				</defs>
				<clipPath id="SVGID_16_">
					<use xlink:href="#SVGID_15_"  style="overflow:visible;"/>
				</clipPath>
				<path class="st15" d="M197,248.1c0,0-6.2,34.5,41,47h52.1l5.8-44.3l-24.7-10.5L197,248.1z"/>
			</g>
			<linearGradient id="SVGID_17_" gradientUnits="userSpaceOnUse" x1="214.2261" y1="290.7749" x2="214.2261" y2="312.1622">
				<stop  offset="0" style="stop-color:#3F87FA"/>
				<stop  offset="1" style="stop-color:#41A4F5"/>
			</linearGradient>
			<rect x="151.9" y="290.4" class="st16" width="124.6" height="22.3"/>
			<linearGradient id="SVGID_18_" gradientUnits="userSpaceOnUse" x1="163.0776" y1="251.8217" x2="163.0776" y2="311.141">
				<stop  offset="0" style="stop-color:#3F87FA"/>
				<stop  offset="1" style="stop-color:#41A4F5"/>
			</linearGradient>
			<rect x="151.9" y="250.8" class="st17" width="22.3" height="62"/>
			<rect x="151.9" y="290.4" class="st18" width="22.3" height="22.3"/>
		</g>
	</g>
</g>
</svg>
