<svg id="Layer_1" data-name="Layer 1" xmlns="http://www.w3.org/2000/svg" viewBox="0 0 90 90"><path d="M65.3,89.16H24.7A23.9,23.9,0,0,1,.84,65.3V24.7A23.9,23.9,0,0,1,24.7.84H65.3A23.9,23.9,0,0,1,89.16,24.7V65.3A23.9,23.9,0,0,1,65.3,89.16ZM24.7,6.81A17.9,17.9,0,0,0,6.81,24.7V65.3A17.9,17.9,0,0,0,24.7,83.19H65.3A17.9,17.9,0,0,0,83.19,65.3V24.7A17.9,17.9,0,0,0,65.3,6.81Z"/><path d="M55.61,39.14c-4.33-3.19-8.69-6.34-13-9.51A6.9,6.9,0,0,0,35,28.84a6.82,6.82,0,0,0-3.82,6.6c0,3.18,0,6.36,0,9.54s0,6.37,0,9.55A8.72,8.72,0,0,0,31.48,57a6.94,6.94,0,0,0,10.93,3.49c4.46-3.19,8.88-6.44,13.3-9.68a7.37,7.37,0,0,0,1.72-1.67C59.82,45.77,59.1,41.71,55.61,39.14Z"/></svg>