<?xml version="1.0" encoding="utf-8"?>
<!-- Generator: Adobe Illustrator 25.0.0, SVG Export Plug-In . SVG Version: 6.00 Build 0)  -->
<svg version="1.1" id="Layer_1" xmlns="http://www.w3.org/2000/svg" xmlns:xlink="http://www.w3.org/1999/xlink" x="0px" y="0px"
	 viewBox="0 0 512 512" style="enable-background:new 0 0 512 512;" xml:space="preserve">
<style type="text/css">
	.st0{fill:#E4ECFF;}
	.st1{fill:url(#SVGID_1_);}
	.st2{fill:url(#SVGID_2_);}
	.st3{fill:url(#SVGID_3_);}
	.st4{fill:url(#SVGID_4_);}
	.st5{fill:url(#SVGID_5_);}
	.st6{fill:url(#SVGID_6_);}
</style>
<g>
	<circle class="st0" cx="256" cy="256" r="255.9"/>
	<g>
		
			<linearGradient id="SVGID_1_" gradientUnits="userSpaceOnUse" x1="256.39" y1="359.8093" x2="255.6187" y2="162.2456" gradientTransform="matrix(1 0 0 -1 0 513)">
			<stop  offset="0" style="stop-color:#D95563"/>
			<stop  offset="1" style="stop-color:#BF824B"/>
		</linearGradient>
		<path class="st1" d="M322.8,312.6c0.2-5.3-0.5-10.7-2.1-15.8c-1.4-5.9-4-11.4-7.7-16.2c-3.6-6-8.6-11.1-14.5-14.8
			c-6-4.5-13-7.5-20.4-8.7c-13.9-1.7-27.9-1.7-41.8,0c-8.4,0.9-16.3,4-23,9.1c-5.8,3.7-10.8,8.5-14.7,14.2
			c-3.6,4.9-6.1,10.4-7.6,16.3c-1.6,5.1-2.3,10.4-2.1,15.8c-0.5,5.4-0.5,10.8,0,16.2c0.8,5.4,3.1,10.5,6.6,14.7
			c5.7,8.1,15,12.9,24.9,13c23.2,0,46.5,0,69.9,0c9.9-0.1,19.1-4.9,24.8-12.9c3.5-4.2,5.8-9.3,6.6-14.8
			C322.7,323.5,323.1,318.1,322.8,312.6z"/>
		
			<linearGradient id="SVGID_2_" gradientUnits="userSpaceOnUse" x1="256.3295" y1="359.8077" x2="255.448" y2="162.244" gradientTransform="matrix(1 0 0 -1 0 513)">
			<stop  offset="0" style="stop-color:#D95563"/>
			<stop  offset="1" style="stop-color:#BF824B"/>
		</linearGradient>
		<path class="st2" d="M222.3,229.4c1.9,2.4,4,4.6,6.5,6.4c9.4,7.2,21.3,10.4,33.1,8.7c10.9-1.3,20.9-6.7,27.9-15.1
			c4.3-4.5,7.5-10.1,9-16.2c1.9-5.4,2.5-11.2,1.9-16.9c-0.4-6.1-2.2-12-5.2-17.3c0-0.9-0.9-1.9-1.5-2.8
			c-9.4-15.4-27.3-23.4-45.1-20.1c-13.9,1.7-25.9,10.3-32.2,22.8c-3.1,5.3-4.9,11.2-5.2,17.3c-0.6,5.7,0,11.4,1.8,16.9
			C214.9,219.3,218,224.9,222.3,229.4z"/>
		
			<linearGradient id="SVGID_3_" gradientUnits="userSpaceOnUse" x1="345.9164" y1="359.3658" x2="345.1451" y2="161.802" gradientTransform="matrix(1 0 0 -1 0 513)">
			<stop  offset="0" style="stop-color:#D95563"/>
			<stop  offset="1" style="stop-color:#BF824B"/>
		</linearGradient>
		<path class="st3" d="M320.3,211.1c5.4,6.4,13.1,10.3,21.4,11c11.1,1.2,22-3.2,29.1-11.8c3.5-4.1,6-9,7.1-14.2
			c1.7-5.5,1.7-11.3,0-16.7c0.1-0.3,0.1-0.7,0-1c-5.3-16.2-22-25.7-38.6-22c-12.2,2.2-22.1,11.3-25.3,23.2c-1.7,5.5-1.9,11.4-0.6,17
			C314.3,202,316.7,207.1,320.3,211.1z"/>
		
			<linearGradient id="SVGID_4_" gradientUnits="userSpaceOnUse" x1="349.8908" y1="359.3683" x2="349.1195" y2="161.8046" gradientTransform="matrix(1 0 0 -1 0 513)">
			<stop  offset="0" style="stop-color:#D95563"/>
			<stop  offset="1" style="stop-color:#BF824B"/>
		</linearGradient>
		<path class="st4" d="M389.8,279.7c0.3-5.2,0.3-10.5,0-15.8c-0.3-5.7-2.4-11.2-5.8-15.8c-5.3-8-13.9-13.1-23.4-14
			c-9.5-0.7-19-0.7-28.4,0c-8,0.4-15.6,3.6-21.4,9.1c-2.6,2.6-2.6,2.6,0,4.8l2,1.2c6,4.7,11.4,10.1,16.2,16.1
			c3.5,4.7,6.7,9.6,9.6,14.7c1.9,4.8,3.5,9.6,4.8,14.5c1,5,1.6,10.2,1.8,15.3c0,1.4,0,2,2,1.9h20.7c10.3-0.1,19.1-7.2,21.4-17.2
			C390.1,289.7,390.3,284.7,389.8,279.7z"/>
		
			<linearGradient id="SVGID_5_" gradientUnits="userSpaceOnUse" x1="166.6764" y1="360.1391" x2="165.9051" y2="162.5754" gradientTransform="matrix(1 0 0 -1 0 513)">
			<stop  offset="0" style="stop-color:#D95563"/>
			<stop  offset="1" style="stop-color:#BF824B"/>
		</linearGradient>
		<path class="st5" d="M141.1,210.6c11.6,14.1,32.5,16,46.5,4.4c1.4-1.2,2.7-2.5,3.9-3.8c3.8-4.1,6.4-9.2,7.5-14.7
			c1.5-5.7,1.2-11.8-0.8-17.4l0,0c0.1-0.3,0.1-0.7,0-1c-5.2-15.3-20.7-24.7-36.7-22c-12.7,1.6-23.3,10.6-26.9,22.9
			c-2,5.6-2.3,11.7-0.8,17.4C134.9,201.7,137.4,206.6,141.1,210.6z"/>
		
			<linearGradient id="SVGID_6_" gradientUnits="userSpaceOnUse" x1="162.7597" y1="360.1389" x2="161.9884" y2="162.5752" gradientTransform="matrix(1 0 0 -1 0 513)">
			<stop  offset="0" style="stop-color:#D95563"/>
			<stop  offset="1" style="stop-color:#BF824B"/>
		</linearGradient>
		<path class="st6" d="M201.5,243.7c-5.3-5.4-12.3-8.8-19.8-9.6c-9.3-1.1-18.6-1.1-27.9,0c-9.6,0.5-18.5,5.1-24.6,12.6
			c-3.1,3.4-5.2,7.6-6.2,12.1c-0.9,7.1-1.3,14.2-1.1,21.4c-0.1,5.3,0.3,10.5,1.1,15.8c2,8.2,8.8,14.3,17.2,15.5
			c8.3,0.8,16.7,1,25,0.6c1.1,0,1.3-0.6,1.4-1.4c0.1-4.9,0.6-9.8,1.4-14.7c1.5-5.1,3.2-10.2,5.2-15.1c2.8-6.2,6.2-12,10.4-17.3
			c0-0.8,1.2-1.4,1.9-2.2c4.1-5.1,8.9-9.6,14.2-13.4l1.3-0.7C203.4,246.2,203.1,245.2,201.5,243.7z"/>
	</g>
</g>
</svg>
