<svg id="Layer_1" data-name="Layer 1" xmlns="http://www.w3.org/2000/svg" viewBox="0 0 90 90"><path d="M65.5,89.59h-41A24.12,24.12,0,0,1,.41,65.5v-41A24.12,24.12,0,0,1,24.5.41h41A24.12,24.12,0,0,1,89.59,24.5v41A24.12,24.12,0,0,1,65.5,89.59ZM24.5,6.43A18.1,18.1,0,0,0,6.43,24.5v41A18.1,18.1,0,0,0,24.5,83.57h41A18.1,18.1,0,0,0,83.57,65.5v-41A18.1,18.1,0,0,0,65.5,6.43Z"/><polygon points="86.13 55.1 86.13 49.08 47.79 49.08 47.79 40.95 47.79 3.46 47.79 3.45 41.76 3.45 41.76 3.46 41.76 34.93 3.42 34.93 3.42 40.95 41.76 40.95 41.76 52.09 41.76 55.1 41.76 89.59 61.95 89.59 61.95 83.56 47.79 83.56 47.79 55.1 86.13 55.1"/></svg>