<?xml version="1.0" encoding="utf-8"?>
<!-- Generator: Adobe Illustrator 25.0.0, SVG Export Plug-In . SVG Version: 6.00 Build 0)  -->
<svg version="1.1" id="Layer_1" xmlns="http://www.w3.org/2000/svg" xmlns:xlink="http://www.w3.org/1999/xlink" x="0px" y="0px"
	 viewBox="0 0 20 20" style="enable-background:new 0 0 20 20;" xml:space="preserve">
<style type="text/css">
	.st0{fill:#010101;}
</style>
<path class="st0" d="M10.4,0.3c0.7,0.1,1.2,0.7,1.3,1.3c0,0.3,0,0.6,0,0.9v0.1c0.1,0.1,0.2,0.1,0.2,0.1c0.1,0,0.2,0.1,0.3,0.1
	c0.2,0.1,0.4,0.2,0.6,0.3c0.4,0.2,0.7,0.4,1,0.7c0.6,0.5,1,1.1,1.4,1.8c0.5,0.8,0.7,1.8,0.7,2.7c0,0.7,0,1.4,0,2.1
	c0.1,2.3,0.8,4.3,2.4,5.9l0.1,0.1c0.2,0.2,0.3,0.4,0.2,0.7c-0.1,0.3-0.3,0.4-0.6,0.3c-1.6,0-3.3,0-4.9,0c-0.1,0-0.2,0-0.2,0.2
	c-0.3,1.2-1.5,2.1-2.8,2.1s-2.4-0.9-2.8-2.1c0-0.1-0.1-0.2-0.2-0.2c-1.6,0-3.3,0-4.9,0c-0.2,0-0.4,0-0.5-0.2
	c-0.2-0.2-0.2-0.5,0.1-0.8c0.5-0.5,1-1.1,1.3-1.8c0.8-1.4,1.2-2.9,1.2-4.5c0-0.6,0-1.2,0-1.8c0-2.5,1.6-4.8,4.1-5.6
	c0.1,0,0.1-0.1,0.1-0.2c0-0.3,0-0.6,0-0.9c0-0.2,0-0.3,0.1-0.5C8.7,0.9,8.9,0.7,9,0.6c0.3-0.2,0.5-0.3,0.9-0.3
	C10,0.3,10.3,0.3,10.4,0.3z M3.2,16.3h13.5c-0.1-0.1-0.1-0.1-0.1-0.2c-1.1-1.5-1.7-3.3-1.8-5.1c-0.1-0.8,0-1.6,0-2.5
	c0-0.3,0-0.5-0.1-0.8c-0.4-2.7-2.9-4.4-5.5-4C7,4.1,5.3,6.1,5.2,8.3c0,0.6,0,1.3,0,1.9c0,1.2-0.2,2.3-0.6,3.4
	C4.3,14.6,3.8,15.5,3.2,16.3z M8.4,17.5c0.2,0.6,0.9,1.1,1.6,1.1c0.7,0,1.4-0.5,1.6-1.1H8.4z M10.6,2.2c0-0.1,0-0.1,0-0.2
	c0-0.3-0.3-0.6-0.6-0.6c-0.2,0-0.5,0.2-0.6,0.4C9.4,1.9,9.4,2,9.4,2.2c0,0.1,0,0.2,0,0.3c0,0,0.1,0.1,0.1,0.1c0.2,0,0.3,0,0.5,0
	c0.1,0,0.1,0,0.2,0c0,0,0.1,0,0.2,0C10.6,2.5,10.6,2.4,10.6,2.2z"/>
</svg>
