<svg id="Layer_1" data-name="Layer 1" xmlns="http://www.w3.org/2000/svg" viewBox="0 0 90 90"><defs><style>.cls-1{fill:#010101;}.cls-2{fill:#020202;}</style></defs><path class="cls-1" d="M88.82,28.31h0a1.62,1.62,0,0,0-.17-.78,5.74,5.74,0,0,0-1-1.29q-11.61-12-23.19-24.07a4.49,4.49,0,0,0-1.36-1h-.93A2.48,2.48,0,0,0,60.54,3.9c0,2,0,4,0,5.95,0,1.53,0,3.05,0,4.58a1.62,1.62,0,0,1-.37,1.21A1.61,1.61,0,0,1,59,16a34.45,34.45,0,0,0-16.81,4.21,35.36,35.36,0,0,0-17.78,23c-1.06,4.19-1,8.56-1,12.79v1.2A1.94,1.94,0,0,0,25.06,59a2.1,2.1,0,0,0,2.19-.88,6.61,6.61,0,0,0,.39-.68l.17-.32A31.08,31.08,0,0,1,47.25,41.65c3.86-1.09,7.83-1.08,11.64-1.09A1.73,1.73,0,0,1,60.2,41a1.56,1.56,0,0,1,.37,1.19c0,3.65,0,7.3,0,11a2.1,2.1,0,0,0,1.93,2.31,2.44,2.44,0,0,0,2-1Q75.94,42.49,87.41,30.6a11.34,11.34,0,0,0,1.07-1.21A1.84,1.84,0,0,0,88.82,28.31Z"/><path class="cls-2" d="M22.6,16h-.83c-1.79,0-3.61,0-5.44,0-1.61,0-3.24,0-4.84.05A10.33,10.33,0,0,0,1.2,26.28q0,26.13,0,52.27A10.29,10.29,0,0,0,11.46,88.81q33.53,0,67.06,0c4.54,0,10.3-2.7,10.3-9.2v-31a1.53,1.53,0,0,0-.09-.56,1.31,1.31,0,0,1-.06-.31,3,3,0,0,0-2.85-2.06h0c-1.77,0-3,1.39-3,3.39v29a4.38,4.38,0,0,1-4.69,4.74H11.85a4.38,4.38,0,0,1-4.66-4.69q0-25.71,0-51.41A4.38,4.38,0,0,1,11.92,22H22.53a3,3,0,1,0,.07-6Z"/></svg>