<svg id="Layer_1" data-name="Layer 1" xmlns="http://www.w3.org/2000/svg" viewBox="0 0 190.88 164"><defs><style>.cls-1{fill:#0a28ed;}.cls-2{fill:#fa204c;}.cls-3{fill:#fdfdfd;}.cls-4{fill:#fdba9a;}.cls-5{fill:#691c05;}.cls-6{fill:#f9214e;}.cls-7{fill:#fcab8a;}.cls-8{fill:#6d9ff6;}.cls-9{fill:#f8f6fe;}.cls-10{fill:#f49e7b;}.cls-11{fill:#fef9fa;}.cls-12{fill:#dad9d9;}.cls-13{fill:#1d4af2;}.cls-14{fill:#1645f2;}.cls-15{fill:#fff;}</style></defs><ellipse class="cls-1" cx="115.64" cy="145.98" rx="27.7" ry="6.59"/><path class="cls-2" d="M117.3,68.69c6.51,3.15,10.58,8.53,13.61,14.86a50.35,50.35,0,0,1,2.67,7.15,1.58,1.58,0,0,1-.39,1.7,36.23,36.23,0,0,1-8.25,6.65,39.21,39.21,0,0,1-10.11,3.65A5,5,0,0,0,113,103l-4.93.23a19.56,19.56,0,0,0-2.62-.22c-1.17.06-1.49-.48-1.57-1.53-.16-2.27-.48-4.53-.62-6.8a123.84,123.84,0,0,1,.18-19.26c.27.17.5.53.9.22s.17-.62,0-.93l-.78-1.55.16-1.63c1.06.13,2.12.35,3.19.38C110.71,72,114.47,71.83,117.3,68.69Z"/><path class="cls-3" d="M117.3,68.69c-2.83,3.14-6.59,3.35-10.43,3.25-1.07,0-2.13-.25-3.19-.38a2.21,2.21,0,0,1-1.14-2.06,9.77,9.77,0,0,1,.28-2.69H112a4.17,4.17,0,0,1,1.64.25c0,.12-.09.29,0,.34a2.42,2.42,0,0,0,2.45.5c.79-.25.75-1,.72-1.73a7.93,7.93,0,0,0-.15-1.18,10.09,10.09,0,0,0-1.45-3.32c1-.14,1.48.94,2.46,1a3,3,0,0,0-1.89-1.34c-.21-.08-.54-.06-.48-.39s.31-.33.56-.35a3.89,3.89,0,0,1,2,.34,1.84,1.84,0,0,0,2,0c-1.49-.28-2.65-1.2-4.14-.75-.73.22-.61-.4-.47-.83s.54-.87-.13-1.22l-.24-.24a2.55,2.55,0,0,1,.35-2.16c.33-.68.69-1.35,1-2a.68.68,0,0,0-.39-.9c-.48-.23-.46.28-.58.52a17.2,17.2,0,0,1-1,1.91c-.83,1.17-.16,1.92.62,2.67l.24.24a5.84,5.84,0,0,0-.23,1.4c.11,1.09-.12,1.83-1.35,2a1.49,1.49,0,0,0-1.07.88c-.33.31-.75.21-1.13.24-2,.19-4,.33-5.92.59-2.19.29-4.33.55-6.12-1.19a3.49,3.49,0,0,0-1-.46c-.2-.9-1-1.35-1.49-2.07,1.6-2.69,2.23-5.73,3.13-8.67.29-.95.61-1.88.91-2.82a7.37,7.37,0,0,1,3.64-3.24c.87.79,1.55,1.87,3,1.64a3.54,3.54,0,0,0,3.08-3.17,3.53,3.53,0,0,0,1.26-.26c1.31-.87,2.43-.39,3.54.37,3.09,2.45,4.66,5.82,5.65,9.5a34,34,0,0,1,1,12.23,8.94,8.94,0,0,1-.32,1.52c-.58,2.06-1.3,2.44-3.33,1.72C117.94,68.22,117.5,68,117.3,68.69Zm-14.87-8.56c-1-2-1.9-3.63-1.59-5.61s1.3-3.47,1.73-5.45C99.42,52.51,99.29,57.54,102.43,60.13Zm11.15-5c0-1.17.81-2.16.59-3.33C113.82,52.93,113.22,54,113.58,55.17Z"/><path class="cls-4" d="M114.83,102.7a39.21,39.21,0,0,0,10.11-3.65,19.17,19.17,0,0,1,.32,2,23,23,0,0,0,1.77,7A47.08,47.08,0,0,1,129.62,122a99.77,99.77,0,0,1-.12,15.17,4.86,4.86,0,0,1-4,.42c-1.13-5.08-2.21-10.17-3.42-15.24a53.83,53.83,0,0,0-3.28-10.8c-.26-.59-.51-1.18-.77-1.78-.16-.4-.31-.81-.49-1.2C116.62,106.58,115.72,104.64,114.83,102.7Z"/><path class="cls-5" d="M115.41,43.42c-1.11-.76-2.23-1.24-3.54-.37a3.53,3.53,0,0,1-1.26.26,6.85,6.85,0,0,1-5.35-7.72,3.31,3.31,0,0,0-.29-2.21c-.37-.63-.8-1.32-1.65-1.13s-.57,1-.63,1.61l-.17.21a38.12,38.12,0,0,0-4.84-1.23c-2.52-.32-2.51-.38-1.72,2-.54.12-.66-.52-1.15-.63.33,1.13-.28,2.15-.31,3.28.8-.39.8-.39,1.38-.17-1.33.64-1.4.94-.49,2.18.23.32.5.61.75.91a1.93,1.93,0,0,0,.94,1c1.61,1.67,3.86,2.25,5.57,1.2,1.06-.64,1.37-.13,1.71.67a2.3,2.3,0,0,1,.17,1.61,7.37,7.37,0,0,0-3.64,3.24A16.56,16.56,0,0,1,91.49,36,7,7,0,0,1,92,31.9c.07-.15.11-.34.22-.43,2.13-1.69,3.44-4.4,6.49-5a10.83,10.83,0,0,1,8,1.38,7.58,7.58,0,0,1,3.64,5,11.54,11.54,0,0,0,2.93,5.64,7.45,7.45,0,0,1,2.08,3.84A2.15,2.15,0,0,1,115.41,43.42Z"/><path class="cls-6" d="M120.57,17.08l7.56.05a6,6,0,0,1,6.27,6A5.8,5.8,0,0,1,128.11,29a13,13,0,0,0-8.13,2.5c.13-1,.22-1.64.33-2.44h-3.72c-4.87,0-7.55-3.65-6.12-8.3,1-.18,2-.35,3.06-.56,2.23-.48,4.42-1,6.16-2.64h0Zm2.52,8.67a1.35,1.35,0,0,0,1.08-.53c.63-.67,1.27-1.33,1.87-2a1.71,1.71,0,0,0,0-2.48,1.69,1.69,0,0,0-2.48-.13c-.43.36-.64.35-1.07,0a1.7,1.7,0,0,0-2.39.06,1.84,1.84,0,0,0-.09,2.5c.6.74,1.28,1.43,1.93,2.13A1.46,1.46,0,0,0,123.09,25.75Z"/><path class="cls-7" d="M118,109.73l.77,1.78a83.91,83.91,0,0,1-2.83,23.12,5.35,5.35,0,0,1-4.11-.4c-.16-6.35-.36-12.7-.75-19-.25-4.19-.79-8.27-3-11.92L113,103c.49,1.56,1.83,2.52,2.76,3.77C116.45,107.79,116.83,109.07,118,109.73Z"/><path class="cls-8" d="M120.57,17.08l-.89.52c-.29-.67-.87-.54-1.37-.42-.93.24-1.82.62-2.76.8s-1.1.7-1.09,1.56a13.91,13.91,0,0,0,4.39-1.74c.23-.14.44-.69.84-.21-1.74,1.61-3.93,2.16-6.16,2.64-1,.21-2,.38-3.06.56a51.89,51.89,0,0,0-15.84,3.45c-3.15,1.27-5.69,3.52-8.39,5.51a36.3,36.3,0,0,1-4.16,3L82,32c.41.11.67-.16,1-.37,1-.8,2.1-1.59,3.14-2.4,1.57-1.22,1.79-1.94,1.21-4-2.19,1.26-3.77,3.17-5.49,4.92l-.11-.48a14.71,14.71,0,0,1,3.83-3.72c1.91-1.09,2.15-2.49,1.46-4.32a1,1,0,0,1-.05-.24c-.13-.78-.44-.94-1.2-.55A22.4,22.4,0,0,0,80.07,25l-.26-.44A22.72,22.72,0,0,1,85,20.66c1.6-.85,1.52-.84.93-2.53-.36-1-.84-1.16-1.77-.77-2.24.91-4.51,1.76-6.76,2.64-.21-.12-.43-.21-.45-.49a2.11,2.11,0,0,0,1.36-.32c1.26-.53,2.53-1,3.75-1.59,1-.47,2.67-.29,2.74-1.46.06-1-1.12-1.93-1.87-2.82a1.47,1.47,0,0,0-1.71-.43,30.06,30.06,0,0,0-6.73,2.79l-.44-.48c1.42-.62,2.82-1.28,4.25-1.85,1.09-.43,2.22-.76,3.38-1.15a7.32,7.32,0,0,0-1.55-1.47,4.66,4.66,0,0,0-4.53-1,24.46,24.46,0,0,1-5.92.7.32.32,0,0,1-.3-.29c1.93-.27,3.87-.5,5.79-.81C80.4,8.47,85.47,7,90.64,6a53.65,53.65,0,0,1,16.44-.46,60.42,60.42,0,0,1,6.29.81,11.8,11.8,0,0,1,6.79,3.76C121.94,12.19,122.76,14.53,120.57,17.08ZM91.09,13v0a2.53,2.53,0,0,0-1.17-1.71,2.67,2.67,0,0,0-2.07.23,32.26,32.26,0,0,0-4,.67c-.85.16-.72.49-.31,1,.59.76,1.12,1.56,1.67,2.34.16.23.3.62.58.54,1.11-.31,2.37-.25,3.21-1.25.62.51,1.2,0,1.78-.1,1.3-.33,1.3-.36.57-1.52Zm20.18,6.25h0a11.3,11.3,0,0,0-3.17.46c-.21,0-.39.12-.39.37s.26.38.49.35c.87-.08,1.74-.19,2.61-.29,1.14-.4,2.89.41,3.35-1.78l-2.66.67Zm-14.3-6L99.19,13c.78-.11.7-.46.39-1s-1.14-.92-1-1.77A3.16,3.16,0,0,1,100,11.72a1.46,1.46,0,0,0,1.75.83c1.42-.19,2.84-.33,4.27-.5.26,0,.57,0,.68-.33.24-.81-1.08-2.6-1.93-2.52-1.78.14-3.56.35-5.34.55a1.05,1.05,0,0,0-.83.41c-.56-.07-1.13-.32-1.7,0a19.43,19.43,0,0,0-3.56.49c-.67.09-1.35.17-2,.28-.26,0-.55.06-.48.5a2.89,2.89,0,0,0,3.78,2.33A5.94,5.94,0,0,0,97,13.27Zm-4.2,3.22c-.22-.57-.1-1.51-1-1.46a2.6,2.6,0,0,0-1.85.65,5.7,5.7,0,0,0-2.08.48c-2.44.77-1.87.51-1.18,2.53.23.7.55.93,1.32.63A29.58,29.58,0,0,1,92.06,18C93.05,17.75,93.2,17.31,92.77,16.49ZM89,8.77c-.19.45,1.11,1.5.72,2.05-.27-.18-1-1.2-1.22-1.36-.67-.83-1.37-2-2.44-1.88-2.38.31-4.71,1-7.34,1.59a19.41,19.41,0,0,1,3.44,2.65c.3.31.64.16,1,.1A28.1,28.1,0,0,1,88,11.11a10.68,10.68,0,0,1,3.78-.74c.16,0,.34-.17.51-.26.4.38.84,0,1.25,0,.66-.1,1.33-.17,2-.31.31-.07.78,0,.88-.43s-.29-.56-.56-.79a10.22,10.22,0,0,0-2.1-1.27C94,7,93.62,7,93.45,6.86c-2.2-1.3-4.17.26-6.27.4C87.78,7.85,88.16,8.61,89,8.77ZM96.61,14c-1.24-.15-2.28.68-3.5.7-.37,0-.36.35-.26.64s.29.73.43,1.1c.12.87.48,1.17,1.43.94a39.65,39.65,0,0,1,4.49-.74c1.89-.22,1.89-.18,1.49-2,0-.23-.14-.46-.2-.69a.71.71,0,0,0-1-.61C98.56,13.56,97.58,13.77,96.61,14ZM93.24,6.16a22.37,22.37,0,0,1,4.54,3.06c.35.31.75.15,1.14.1l5.35-.61c.27,0,.63.13.77-.16s-.19-.57-.38-.81a4.71,4.71,0,0,0-4.45-2.2A49.75,49.75,0,0,0,93.24,6.16Zm.51,14.7c-.07-.47-.19-.94-.22-1.42,0-1-.48-1.36-1.47-1-.79.28-1.6.47-2.39.74-2.37.82-2.37.83-1.93,3.3.05.27.12.54.15.82.06.56.23.78.82.44a21.43,21.43,0,0,1,4.46-2A.72.72,0,0,0,93.75,20.86ZM101,18.72c0-1.78,0-1.8-1.54-1.63-1,.12-2,.26-3.06.45-2.65.48-2.61.49-2.17,3.13.11.67.37.62.86.53,1.44-.29,2.88-.62,4.33-.78C100.61,20.28,101.23,19.82,101,18.72Zm11.34-6.66c-.81.07-1.68.16-2.55.2-2.35.11-2.27.09-2,2.38.14,1,.61,1.11,1.42,1,1.18-.17,2.36-.31,3.54-.45,1.77-.2,1.89-.46,1.55-2.19C114,11.67,113.09,12.21,112.3,12.06Zm-9.25,4.14c.71-.08,1.46-.19,2.22-.25,2.32-.21,2.5-.48,1.86-2.72-.14-.49-.38-.77-.93-.71-1.58.19-3.16.36-4.75.54-.25,0-.54.13-.49.4a10.59,10.59,0,0,0,.6,2.67C101.78,16.6,102.51,16,103.05,16.2Zm-1.61,2c0,2,0,2,1.78,1.7.79-.13,1.58-.19,2.37-.31,1.79-.27,1.94-.51,1.85-2.4,0-.63-.25-.86-.86-.8-1.19.1-2.38.22-3.58.27S101.11,17,101.44,18.18Zm7.87-9.28V9H108c-1.81,0-1.75,0-1.15,1.75a1.42,1.42,0,0,0,1.73,1.15c1.46-.16,2.94-.18,4.41-.24.63,0,.75-.24.52-.82-.62-1.52-1.19-1.91-2.88-1.89ZM108,18c.16.2-.71,1.27.55,1.08a16.93,16.93,0,0,0,5.36-1.41c.83-.43.62-1.29.57-1.91s-.69-.21-1.08-.17a37.11,37.11,0,0,1-4,.46C108,16.06,107.68,16.61,108,18Zm5-9a9.85,9.85,0,0,1,.82,1.53,1.53,1.53,0,0,0,1.8,1.13,27.3,27.3,0,0,1,2.86.06c.68,0,1.7.51,1.93-.14s-.69-1.24-1.24-1.75a1.42,1.42,0,0,0-.61-.34A16.67,16.67,0,0,0,113,9ZM93.76,23.12c.1-.78-.12-1.14-1-.75-1,.49-2.13.88-3.15,1.39-1.77.89-1.77,1-1.48,2.95.12.81.36.71.88.33a24.9,24.9,0,0,1,4.1-2.64A1.11,1.11,0,0,0,93.76,23.12ZM103.63,5.8l1.92,2.33a.83.83,0,0,0,.7.37,30.42,30.42,0,0,0,5.23-.31C109.29,5.87,106.57,5.86,103.63,5.8Zm13.54,6.3c-2.69,0-2.68,0-2.27,1.93.11.55.38.79.91.67q2.39-.55,4.77-1.14c.32-.08.61-.22.57-.64s-.31-.59-.73-.61Zm-1.58,5.23a11.14,11.14,0,0,0,1.15-.23c1.29-.4,2.59-.78,3.85-1.24.65-.24.74-.9.73-1.51,0-.39-.34-.4-.62-.31-1.67.5-3.38.86-5.09,1.22-.86.18-.5,1-.65,1.61S115.26,17.33,115.59,17.33ZM94.29,23c0,.16-.3.85.56.57l5.35-1.7a.66.66,0,0,0,.48-.84c-.09-.46-.49-.35-.77-.3-1.61.29-3.21.62-4.82.91C94.39,21.8,94.16,22.2,94.29,23Zm16-16.67c1.73,2.86,4.65,1.84,7.15,2.24A14.3,14.3,0,0,0,110.34,6.36ZM106.24,20l-4.33.5c-.47.05-.77.28-.68.78s.5.23.77.19c1.41-.24,2.82-.5,4.23-.75.34-.06.87,0,.83-.45S106.49,20.07,106.24,20Z"/><path class="cls-6" d="M44.67,81.57a7,7,0,0,1,0,13.92,7,7,0,1,1,0-13.92Zm3.49,6a1.8,1.8,0,0,0-.9-1.57,1.65,1.65,0,0,0-2,.12c-.43.37-.67.48-1.17,0a1.62,1.62,0,0,0-2.37.09,1.73,1.73,0,0,0-.08,2.49,25.41,25.41,0,0,0,1.85,2,1.49,1.49,0,0,0,2.39-.06c.58-.6,1.14-1.23,1.71-1.85A2.16,2.16,0,0,0,48.16,87.54Z"/><path class="cls-9" d="M144.66,69.66a6.13,6.13,0,1,1-6.17-6.15A6.12,6.12,0,0,1,144.66,69.66Zm-5.23,2.87c-.26.65.3.72.65.88s.5-.26.63-.5c.45-.83.86-1.68,1.27-2.53.11-.22.43-.5.13-.72s-.63-.69-1.1-.22l-.49-.22c-1.19-.33-.73-1.11-.46-1.8.2-.5.28-.94-.29-1.21s-.88.15-1.13.57a1.38,1.38,0,0,0-.21.42c-.17.58-.34.87-1.06.51-.91-.45-1.62,0-2.07.86a1.58,1.58,0,0,0,.42,2.32,12.93,12.93,0,0,0,3.41,1.64Z"/><path class="cls-6" d="M73.58,28.78c-1.52,2.1-3.47,3.27-6.14,2.79a5.75,5.75,0,0,1-4.8-5.72,5.82,5.82,0,0,1,4.75-5.66c.23,0,.45-.12.68-.18l1.43.12c3.67,1.11,5,3.29,4.6,7.39ZM67,24c-1.18,0-2,1.06-1.44,2a5.35,5.35,0,0,0,3.16,2.16.91.91,0,0,0,1-.51c.46-.79.9-1.59,1.29-2.42a1.33,1.33,0,0,0-.39-1.62,1.27,1.27,0,0,0-1.65-.2C68.3,23.94,67.77,24.61,67,24Z"/><path class="cls-9" d="M73.58,28.78l.52-1.26a31.45,31.45,0,0,0,4.25,4.53c.63.49,1.37,1.4,2.13.92s.37-1.55.14-2.33A42.77,42.77,0,0,0,69.3,11.81a6.72,6.72,0,0,0-1.55-1.1c-.87-.47-1.24-.22-1.26.78a4.81,4.81,0,0,0,.1.84,27.72,27.72,0,0,0,2.91,7.8L68.07,20a26.34,26.34,0,0,1-2.74-7.75,4,4,0,0,1,0-1.66,1.59,1.59,0,0,1,2.27-1.24c.6.2,1.17.5,1.75.75a.32.32,0,0,0,.3.29,49.65,49.65,0,0,1,4.37,4.8l.44.48L77,19.51c0,.28.24.37.45.49q1.18,2.3,2.39,4.59l.26.44,1.68,4.6c0,.16.07.32.11.48L82,32l0,.78a1.86,1.86,0,0,0,.1,2.09c1.9,3.31,3.73,6.66,5.58,10a2.5,2.5,0,0,1-1.1.35c-1.88-3.42-3.75-6.84-5.64-10.25-.11-.2-.26-.5-.43-.53-2.92-.48-4.43-2.8-6.24-4.73C74.08,29.4,73.83,29.08,73.58,28.78Z"/><path class="cls-9" d="M62.08,51.64a5.25,5.25,0,1,1-5.27-5.25A5.28,5.28,0,0,1,62.08,51.64Zm-3.69-.77c-.2-.28-.27-.56-.59-.48-.7.18-.89-.28-1.06-.81s-.21-1-.89-.87-.55.83-.38,1.29c.22.62.05.82-.56,1a1.22,1.22,0,0,0-.84,1.42c.06.67.26,1.32,1,1.46a8.21,8.21,0,0,0,3.49-.56c.14,0,.06-.82.45-.12.22.4.58.21.85.12.42-.15.15-.47.11-.71a12,12,0,0,0-.37-1.88c-.11-.34.11-1-.6-1S58.56,50.42,58.39,50.87Z"/><path class="cls-6" d="M18.13,43.8a5,5,0,0,1,5.06-5,5.09,5.09,0,1,1-5.06,5Zm3.76-1.53c-.81,0-1.29.35-1.39,1.11a1.27,1.27,0,0,0,.74,1.39c.88.39,1.53,1.4,2.68,1a.84.84,0,0,0,.43-.4,20.13,20.13,0,0,0,1-2.16,1.18,1.18,0,0,0-.5-1.48,1.12,1.12,0,0,0-1.53.1A1.07,1.07,0,0,1,21.89,42.27Z"/><path class="cls-6" d="M82.94,89.54a5.06,5.06,0,1,1-5.11,5A5,5,0,0,1,82.94,89.54Zm2.69,5.32c0-2-2.4-1.13-2.69-2.65,0-.3-.69-.33-1.09-.17A1.39,1.39,0,0,0,81,93.81c.23.93-.22,2.35,1.13,2.58a4.47,4.47,0,0,0,3-.78A1,1,0,0,0,85.63,94.86Z"/><path class="cls-10" d="M97.62,67.69c-2.63,0-4.26-1.63-5.47-3.7a29,29,0,0,1-3-8.69c-.26-1.2-.46-2.43-.69-3.64a3,3,0,0,0,1.45-.5c2.05,3.72,4.33,7.32,6,11.24-.25,1.12.22,2.19.19,3.29a1.43,1.43,0,0,0,1.27,1.59Z"/><path class="cls-9" d="M10.9,109.81a4,4,0,0,1-4.06-4,4,4,0,0,1,4-4.14,4.06,4.06,0,1,1,0,8.12Zm-.82-2.25,1.55-.29c1.91-.4,2-.51,1.39-2.43-.18-.6-.46-.72-.92-.4-.73.51-1.15.32-1.36-.51a.5.5,0,0,0-.6-.44c-.45.07-.45.45-.36.74.18.61,0,.88-.59,1.15s-.53.85-.38,1.38A1.08,1.08,0,0,0,10.08,107.56Z"/><path class="cls-11" d="M111.82,134.23a5.35,5.35,0,0,0,4.11.4l-.75,4.38-.21,1.13a6.7,6.7,0,0,0-1.42.13,2,2,0,0,1-2.39-.8l.06-.46A22.66,22.66,0,0,0,111.82,134.23Z"/><path class="cls-4" d="M90,51.16a3,3,0,0,1-1.45.5c-2.52-1.1-2.05-3.58-2.55-5.6-.11-.44.39-.64.7-.87a2.5,2.5,0,0,0,1.1-.35,1,1,0,0,1,.95.2A10,10,0,0,0,90,47.53c.27.69.74,1.34.43,2.15-.77-.31-1.07-.11-.78.72C89.74,50.66,89.85,50.91,90,51.16Z"/><path class="cls-3" d="M125.46,137.55a4.86,4.86,0,0,0,4-.42l.06,3.32c0,.78,0,1.56,0,2.34a6.49,6.49,0,0,0-1.26.34,2.15,2.15,0,0,1-2.64-.32,12.94,12.94,0,0,0,0-2.85Z"/><path class="cls-9" d="M90,51.16c-.11-.25-.22-.5-.31-.76-.29-.83,0-1,.78-.72q2.5,4.53,5,9.07c.2.34.45.65.67,1a13.26,13.26,0,0,0,1,2.06A1.51,1.51,0,0,1,96,62.4C94.29,58.48,92,54.88,90,51.16Z"/><path class="cls-9" d="M97.62,67.69c-.06-.14-.12-.28-.19-.41l3.15-.41c0,.41-.23.79,0,1.25,1,1.67,1.94,3.37,2.9,5.07l.78,1.55c.16.31.38.62,0,.93s-.63,0-.9-.22c-1.27-2.33-2.54-4.65-3.79-7C99.15,67.62,98.17,68.23,97.62,67.69Z"/><path class="cls-10" d="M90,47.53A10,10,0,0,1,88.71,45a1.91,1.91,0,0,1,2.09,2C90.73,47.48,90.43,47.62,90,47.53Z"/><path class="cls-12" d="M97.17,61.79a12.48,12.48,0,0,1-1-2.06l.73-.16c.45.72,1.29,1.17,1.49,2.07Z"/><path class="cls-10" d="M118,109.73c-1.16-.66-1.54-1.94-2.28-2.93-.93-1.25-2.27-2.21-2.76-3.77a5,5,0,0,1,1.88-.33c.89,1.94,1.79,3.88,2.67,5.83C117.68,108.92,117.83,109.33,118,109.73Z"/><path class="cls-13" d="M103.52,73.19c-1-1.7-1.9-3.4-2.9-5.07-.27-.46-.08-.84,0-1.25a7.31,7.31,0,0,1,2.24-.06,9.77,9.77,0,0,0-.28,2.69,2.21,2.21,0,0,0,1.14,2.06Z"/><path class="cls-6" d="M111.16,139.47a2,2,0,0,0,2.39.8,6.7,6.7,0,0,1,1.42-.13c.67.93.74,4,.11,4.78a1.53,1.53,0,0,1-1.37.56L103,145c-.44,0-.8-.1-.82-.64a1.16,1.16,0,0,1,1-1.21,9.77,9.77,0,0,0,2.62-1.1c1.18-.33,1.92.38,2.63,1.25.23-.52-.44-.81-.09-1.2.55-.14.56.64,1,.62.27-.25-.19-.73.12-.75,1.23-.11.31-.62.14-.84a4.46,4.46,0,0,0-.94-.71C109.41,140,110.07,139.13,111.16,139.47Z"/><path class="cls-6" d="M125.68,142.81a2.15,2.15,0,0,0,2.64.32,6.49,6.49,0,0,1,1.26-.34c.78.68,1.44,3.75,1,4.65a1.59,1.59,0,0,1-1.37.83l-10.52,1.49c-.42.06-.82.06-.93-.46a1.09,1.09,0,0,1,.6-1.31,11.46,11.46,0,0,0,2.49-1.62c1.08-.58,1.93-.05,2.68.69.3-.45-.35-.75.16-1.17.65,1.12,1,.06,1.24-.29.31-.52-.36-.74-.7-1a4.22,4.22,0,0,0-.87-.37C124.08,143.67,124.56,142.72,125.68,142.81Z"/><path class="cls-14" d="M176.53,19.28l0,0h0Z"/><path class="cls-14" d="M81.5,71.11h0s0,0,0,0Z"/><path class="cls-14" d="M174.36,19.74l0,0h0Z"/><path class="cls-14" d="M82.23,70.39l0,0h0Z"/><path class="cls-14" d="M82.25,69h0l0,0Z"/><path class="cls-5" d="M108.62,140.43a4.46,4.46,0,0,1,.94.71c.17.22,1.09.73-.14.84-.31,0,.15.5-.12.75-.47,0-.48-.76-1-.62-.35.39.32.68.09,1.2-.71-.87-1.45-1.58-2.63-1.25C106.63,141.4,107.32,140.38,108.62,140.43Zm-.09.85.3.07-.1-.28c-.21-.17-.48-.31-.63,0C108,141.18,108.35,141.24,108.53,141.28Zm-.47.55c0-.05-.06-.14-.11-.15s-.12,0-.18.08.06.13.11.14S108,141.86,108.06,141.83Z"/><path class="cls-5" d="M123.37,144.23a4.22,4.22,0,0,1,.87.37c.34.26,1,.48.7,1-.21.35-.59,1.41-1.24.29-.51.42.14.72-.16,1.17-.75-.74-1.6-1.27-2.68-.69C121.55,145.48,122.14,144.48,123.37,144.23Zm-1,1.29c.14.15.2.26.3.31s.52.3.53-.07S122.86,145.45,122.4,145.52Zm.56-.62c.1,0,.19.14.28.15s.46.11.32-.2S123.17,144.68,123,144.9Z"/><path class="cls-4" d="M102.69,33.86c.06-.6-.22-1.41.63-1.61s1.28.5,1.65,1.13a3.31,3.31,0,0,1,.29,2.21,6.85,6.85,0,0,0,5.35,7.72,3.54,3.54,0,0,1-3.08,3.17c-1.45.23-2.13-.85-3-1.64a2.3,2.3,0,0,0-.17-1.61c-.34-.8-.65-1.31-1.71-.67-1.71,1-4,.47-5.57-1.2.54-.33,1.08-.77.58-1.4s-.9.09-1.31.31l-.21.12c-.25-.3-.52-.59-.75-.91-.91-1.24-.84-1.54.49-2.18-.58-.22-.58-.22-1.38.17,0-1.13.64-2.15.31-3.28.49.11.61.75,1.15.63-.79-2.36-.8-2.3,1.72-2a38.12,38.12,0,0,1,4.84,1.23l.27,0Zm-5.15,4.66.18.07-.07-.18-.17-.27C97.31,38.3,97.44,38.41,97.54,38.52Zm4.29-1.92a.55.55,0,0,0-.69-.5.91.91,0,0,0-.87,1,.51.51,0,0,0,.63.53A1.27,1.27,0,0,0,101.83,36.6ZM99.41,34c-1.75-.22-2.92.61-2.85,2C96.94,34.64,98.23,34.54,99.41,34Zm-1.18,2.06A.9.9,0,0,0,99,37c.34.06.52-.19.5-.52a.91.91,0,0,0-.72-.85C98.44,35.52,98.26,35.71,98.23,36.07Zm-2,2.22a.39.39,0,0,0-.45.42.69.69,0,0,0,.62.74c.27,0,.45-.08.44-.38A.87.87,0,0,0,96.26,38.29Zm2.31,1.55c.15,0,.33-.09.28-.27s-.24-.13-.37-.14-.22.1-.22.16S98.4,39.83,98.57,39.84Z"/><path class="cls-4" d="M102.82,66.81a7.31,7.31,0,0,0-2.24.06l-3.15.41a1.43,1.43,0,0,1-1.27-1.59c0-1.1-.44-2.17-.19-3.29a1.51,1.51,0,0,0,1.19-.61l1.18-.15a3.49,3.49,0,0,1,1,.46c1.79,1.74,3.93,1.48,6.12,1.19,2-.26,3.94-.4,5.92-.59.38,0,.8.07,1.13-.24,1.75,1.29,2.14,2.78,1.2,4.59A4.17,4.17,0,0,0,112,66.8Z"/><path class="cls-12" d="M113.66,67.05c.94-1.81.55-3.3-1.2-4.59a1.49,1.49,0,0,1,1.07-.88c1.23-.21,1.46-.95,1.35-2a5.84,5.84,0,0,1,.23-1.4h0c.67.35.26.78.13,1.22s-.26,1,.47.83c1.49-.45,2.65.47,4.14.75a1.84,1.84,0,0,1-2,0,3.89,3.89,0,0,0-2-.34c-.25,0-.52.08-.56.35s.27.31.48.39a3,3,0,0,1,1.89,1.34c-1,0-1.42-1.11-2.46-1A10.09,10.09,0,0,1,116.63,65a7.93,7.93,0,0,1,.15,1.18c0,.68.07,1.48-.72,1.73a2.42,2.42,0,0,1-2.45-.5S113.64,67.17,113.66,67.05Z"/><path class="cls-12" d="M102.43,60.13c-3.14-2.59-3-7.62.14-11.06-.43,2-1.45,3.6-1.73,5.45S101.48,58.14,102.43,60.13Z"/><path class="cls-12" d="M114.87,57.9c-.78-.75-1.45-1.5-.62-2.67a17.2,17.2,0,0,0,1-1.91c.12-.24.1-.75.58-.52a.68.68,0,0,1,.39.9c-.3.69-.66,1.36-1,2a2.55,2.55,0,0,0-.35,2.16Z"/><path class="cls-12" d="M113.58,55.17c-.36-1.2.24-2.24.59-3.33C114.39,53,113.54,54,113.58,55.17Z"/><path class="cls-12" d="M114.87,57.9l.24.24h0l-.24-.24Z"/><path class="cls-10" d="M96.14,40.39l.21-.12c.41-.22.85-.88,1.31-.31s0,1.07-.58,1.4A1.93,1.93,0,0,1,96.14,40.39Z"/><path class="cls-11" d="M123.09,25.75a1.46,1.46,0,0,1-1.13-.49c-.65-.7-1.33-1.39-1.93-2.13a1.84,1.84,0,0,1,.09-2.5,1.7,1.7,0,0,1,2.39-.06c.43.36.64.37,1.07,0a1.69,1.69,0,0,1,2.48.13,1.71,1.71,0,0,1,0,2.48c-.6.7-1.24,1.36-1.87,2A1.35,1.35,0,0,1,123.09,25.75Z"/><path class="cls-9" d="M88,11.11a4,4,0,0,1,.53-1.65l.78.5c.22-.51-.47-.74-.28-1.19a4.86,4.86,0,0,1,4.71-1.42,10.22,10.22,0,0,1,2.1,1.27c.27.23.66.37.56.79s-.57.36-.88.43c-.65.14-1.32.21-2,.31,0-.41.19-.92-.45-1s-.69.49-.8.93c-.17.09-.35.27-.51.26A10.68,10.68,0,0,0,88,11.11Z"/><path class="cls-9" d="M89,14.92a4.91,4.91,0,0,1-1.14-3.33,2.67,2.67,0,0,1,2.07-.23c-.17,1-.05,1.71,1.17,1.71v0c-.11.28.14.21.26.26.73,1.16.73,1.19-.57,1.52C90.2,15,89.62,15.43,89,14.92Z"/><path class="cls-9" d="M94.58,13.75c.07-.23.15-.45.21-.68.23-.78,1.24-1.91-.8-1.62a.72.72,0,0,1-.69-.81,19.43,19.43,0,0,1,3.56-.49A5.71,5.71,0,0,1,97,13.27,5.94,5.94,0,0,1,94.58,13.75Z"/><path class="cls-6" d="M119.69,17.59c-.4-.48-.61.07-.84.21a13.91,13.91,0,0,1-4.39,1.74c0-.86.19-1.37,1.09-1.56s1.83-.56,2.76-.8c.5-.12,1.08-.25,1.37.42Z"/><path class="cls-9" d="M96.61,14a4.46,4.46,0,0,1-3.33,2.44c-.14-.37-.29-.73-.43-1.1s-.11-.64.26-.64C94.33,14.67,95.37,13.84,96.61,14Z"/><path class="cls-6" d="M111.52,19.06l2.66-.67c-.46,2.19-2.21,1.38-3.35,1.78l.46-.89h0Z"/><path class="cls-9" d="M92.77,16.49a4.48,4.48,0,0,1-2.86-.81A2.6,2.6,0,0,1,91.76,15C92.67,15,92.55,15.92,92.77,16.49Z"/><path class="cls-13" d="M111.52,19.06l-.25.23Z"/><path class="cls-11" d="M48.16,87.54a2.16,2.16,0,0,1-.58,1.31c-.57.62-1.13,1.25-1.71,1.85a1.49,1.49,0,0,1-2.39.06,25.41,25.41,0,0,1-1.85-2,1.73,1.73,0,0,1,.08-2.49,1.62,1.62,0,0,1,2.37-.09c.5.43.74.32,1.17,0a1.65,1.65,0,0,1,2-.12A1.8,1.8,0,0,1,48.16,87.54Z"/><path class="cls-13" d="M139.14,72.53a12.84,12.84,0,0,1-3.42-1.64,1.58,1.58,0,0,1-.42-2.32c.45-.83,1.16-1.31,2.07-.86.72.36.89.07,1.06-.51a1.38,1.38,0,0,1,.21-.42c.25-.42.53-.85,1.13-.57s.49.71.29,1.21c-.27.69-.73,1.47.46,1.8.25.52-.41.9-.22,1.41v0c-.33,0-.33.25-.25.5v0c-.36,0-.33.25-.25.5v0c-.36,0-.33.25-.25.5v0C139.21,72,139.3,72.38,139.14,72.53Z"/><path class="cls-13" d="M141,69.44c.47-.47.8,0,1.1.22s0,.5-.13.72c-.41.85-.82,1.7-1.27,2.53-.13.24-.17.71-.63.5s-.91-.23-.65-.88a.36.36,0,0,0,.16-.48v0c.29-.06.3-.27.25-.5v0c.29-.06.3-.27.25-.5v0c.29-.06.3-.27.25-.5v0C140.75,70.36,140.84,69.87,141,69.44Z"/><path class="cls-12" d="M141,69.44c-.17.43-.26.92-.71,1.19-.19-.51.47-.89.22-1.41Z"/><path class="cls-12" d="M139.59,72.05a.36.36,0,0,1-.16.48h-.29C139.3,72.38,139.21,72,139.59,72.05Z"/><path class="cls-11" d="M67,24a3.15,3.15,0,0,0,.62.17,1.38,1.38,0,0,0,.94-.4,1.94,1.94,0,0,1,1.08-.57,1.5,1.5,0,0,1,1,.43A1.33,1.33,0,0,1,71,25.23c-.39.83-.83,1.63-1.29,2.42a.91.91,0,0,1-1,.51A5.35,5.35,0,0,1,65.55,26a1.32,1.32,0,0,1,.19-1.57A1.61,1.61,0,0,1,66.5,24,.83.83,0,0,1,67,24Z"/><path class="cls-13" d="M58.39,50.87c.17-.45-.21-1.12.61-1.12s.49.63.6,1A12,12,0,0,1,60,52.6c0,.24.31.56-.11.71-.27.09-.63.28-.85-.12-.39-.7-.31.09-.45.12a8.21,8.21,0,0,1-3.49.56c-.74-.14-.94-.79-1-1.46A1.22,1.22,0,0,1,54.91,51c.61-.17.78-.37.56-1-.17-.46-.34-1.09.38-1.29s.75.43.89.87.36,1,1.06.81C58.12,50.31,58.19,50.59,58.39,50.87Z"/><path class="cls-11" d="M21.89,42.27a1.07,1.07,0,0,0,1.44-.42,1.12,1.12,0,0,1,1.53-.1,1.18,1.18,0,0,1,.5,1.48,20.13,20.13,0,0,1-1,2.16.84.84,0,0,1-.43.4c-1.15.38-1.8-.63-2.68-1a1.27,1.27,0,0,1-.74-1.39C20.6,42.62,21.08,42.29,21.89,42.27Z"/><path class="cls-11" d="M85.62,94.86c-.06.69-.71,1-1.26,1.2a4,4,0,0,1-2.2.33c-1.35-.23-.9-1.65-1.13-2.58A1.39,1.39,0,0,1,81.85,92c.31-.12.86-.19,1.08.12s.11.4.26.58a1.68,1.68,0,0,0,.65.43,5.89,5.89,0,0,1,1.21.52A1.32,1.32,0,0,1,85.62,94.86Z"/><path class="cls-13" d="M10.08,107.56a1.08,1.08,0,0,1-1.27-.8c-.15-.53-.17-1.11.38-1.38s.77-.54.59-1.15c-.09-.29-.09-.67.36-.74a.5.5,0,0,1,.6.44c.21.83.63,1,1.36.51.46-.32.74-.2.92.4.57,1.92.52,2-1.39,2.43Z"/><path class="cls-6" d="M108.53,141.28c-.18,0-.5-.1-.43-.23.15-.29.42-.15.63,0Z"/><path class="cls-6" d="M108.06,141.83c-.06,0-.13.09-.18.07s-.07-.09-.11-.14.13-.09.18-.08S108,141.78,108.06,141.83Z"/><path class="cls-6" d="M108.73,141.07l.1.28-.3-.07Z"/><path class="cls-6" d="M122.4,145.52c.46-.07.84-.13.83.24s-.34.16-.53.07S122.54,145.67,122.4,145.52Z"/><path class="cls-6" d="M123,144.9c.21-.22.5-.25.6-.05s-.18.21-.32.2S123.06,145,123,144.9Z"/><path class="cls-10" d="M101.83,36.6a1.27,1.27,0,0,1-.93,1.08.51.51,0,0,1-.63-.53.91.91,0,0,1,.87-1A.55.55,0,0,1,101.83,36.6Z"/><path class="cls-5" d="M99.41,34c-1.18.53-2.47.63-2.85,2C96.49,34.62,97.66,33.79,99.41,34Z"/><path class="cls-5" d="M98.23,36.07c0-.36.21-.55.55-.46a.91.91,0,0,1,.72.85c0,.33-.16.58-.5.52A.9.9,0,0,1,98.23,36.07Z"/><path class="cls-5" d="M96.26,38.29a.87.87,0,0,1,.61.78c0,.3-.17.42-.44.38a.69.69,0,0,1-.62-.74A.39.39,0,0,1,96.26,38.29Z"/><path class="cls-10" d="M98.57,39.84c-.17,0-.31-.07-.31-.25s.15-.16.22-.16.35.06.37.14S98.72,39.8,98.57,39.84Z"/><path class="cls-10" d="M97.54,38.52c-.1-.11-.23-.22-.06-.38l.17.27A.57.57,0,0,1,97.54,38.52Z"/><path class="cls-10" d="M97.65,38.41l.07.18-.18-.07A.57.57,0,0,0,97.65,38.41Z"/><path class="cls-5" d="M102.69,33.86l.1.16-.27,0Z"/><path class="cls-12" d="M139.83,71.57c0,.23,0,.44-.25.5C139.5,71.82,139.47,71.59,139.83,71.57Z"/><path class="cls-12" d="M140.07,71.09c.05.23,0,.44-.25.5C139.74,71.34,139.71,71.11,140.07,71.09Z"/><path class="cls-12" d="M140.31,70.61c.05.23,0,.44-.25.5C140,70.86,140,70.65,140.31,70.61Z"/><path class="cls-15" d="M34.8,122.45H34v-.79a.49.49,0,0,0-.48-.48.48.48,0,0,0-.48.48v.79h-.79a.47.47,0,0,0-.48.48.48.48,0,0,0,.48.48h.79v.79a.48.48,0,0,0,.48.48.49.49,0,0,0,.48-.48v-.79h.79a.49.49,0,0,0,.48-.48A.48.48,0,0,0,34.8,122.45Z"/><path class="cls-15" d="M5.39,78.72H4.6v-.78a.48.48,0,0,0-.48-.49.49.49,0,0,0-.48.49v.78H2.85a.49.49,0,0,0,0,1h.79v.78a.48.48,0,0,0,.48.48.47.47,0,0,0,.48-.48v-.78h.79a.49.49,0,0,0,0-1Z"/><path class="cls-15" d="M39.25,68.8h-.79V68a.49.49,0,0,0-.48-.48.48.48,0,0,0-.48.48v.79h-.79a.49.49,0,0,0-.48.48.48.48,0,0,0,.48.48h.79v.79A.48.48,0,0,0,38,71a.49.49,0,0,0,.48-.48v-.79h.79a.48.48,0,0,0,.48-.48A.49.49,0,0,0,39.25,68.8Z"/><path class="cls-15" d="M4.25,14.54H3.46v-.78A.49.49,0,0,0,3,13.27a.48.48,0,0,0-.48.49v.78H1.71a.49.49,0,0,0,0,1H2.5v.78a.47.47,0,0,0,.48.48.48.48,0,0,0,.48-.48v-.78h.79a.49.49,0,0,0,0-1Z"/><path class="cls-15" d="M42.71,2.13h-.78V1.35a.49.49,0,1,0-1,0v.78h-.78a.49.49,0,0,0,0,1H41v.78a.49.49,0,0,0,1,0V3.1h.78a.49.49,0,1,0,0-1Z"/><path class="cls-15" d="M155.68,40.73h-.78v-.79a.49.49,0,0,0-1,0v.79h-.78a.48.48,0,0,0-.49.48.49.49,0,0,0,.49.48h.78v.79a.49.49,0,0,0,1,0v-.79h.78a.48.48,0,0,0,.48-.48A.47.47,0,0,0,155.68,40.73Z"/><path class="cls-15" d="M188.65,77.51h-.78v-.79a.49.49,0,0,0-1,0v.79h-.78a.49.49,0,0,0-.49.48.48.48,0,0,0,.49.48h.78v.79a.49.49,0,0,0,1,0v-.79h.78a.47.47,0,0,0,.48-.48A.48.48,0,0,0,188.65,77.51Z"/><path class="cls-15" d="M151.22,103.56h-.78v-.78a.49.49,0,1,0-1,0v.78h-.78a.49.49,0,1,0,0,1h.78v.78a.49.49,0,0,0,1,0v-.78h.78a.49.49,0,0,0,0-1Z"/><path class="cls-15" d="M154.34,63.58a2.07,2.07,0,1,1,2.07-2.07A2.08,2.08,0,0,1,154.34,63.58Zm0-4a1.93,1.93,0,1,0,1.93,1.93A1.92,1.92,0,0,0,154.34,59.58Z"/><path class="cls-15" d="M176.42,22.09A2.08,2.08,0,1,1,178.49,20,2.07,2.07,0,0,1,176.42,22.09Zm0-4A1.94,1.94,0,1,0,178.35,20,1.93,1.93,0,0,0,176.42,18.08Z"/><path class="cls-15" d="M58,116.89a2.07,2.07,0,1,1,2.07-2.07A2.07,2.07,0,0,1,58,116.89Zm0-4A1.93,1.93,0,1,0,60,114.82,1.94,1.94,0,0,0,58,112.89Z"/><path class="cls-15" d="M82.23,73.18a2.07,2.07,0,1,1,2.07-2.07A2.07,2.07,0,0,1,82.23,73.18Zm0-4a1.93,1.93,0,1,0,1.93,1.93A1.92,1.92,0,0,0,82.23,69.18Z"/><path class="cls-15" d="M15.92,30.64a1.9,1.9,0,1,1,1.9-1.89A1.9,1.9,0,0,1,15.92,30.64Zm0-3.66a1.77,1.77,0,1,0,1.77,1.77A1.77,1.77,0,0,0,15.92,27Z"/></svg>