<svg xmlns="http://www.w3.org/2000/svg" version="1.0" width="375.234899423363" height="94.02684561181016" preserveAspectRatio="xMidYMid meet"><rect id="backgroundrect" width="100%" height="100%" x="0" y="0" fill="none" stroke="none" class="" style=""/>


<g class="currentLayer" style=""><title>Layer 1</title><g transform="translate(0,90) scale(0.10000000149011612,-0.10000000149011612) " fill="#ffffff" stroke="none" id="svg_1" class="selected" fill-opacity="1">
<path d="M575 881 c-137 -34 -254 -108 -299 -191 -34 -62 -33 -82 5 -114 40 -34 75 -34 83 0 9 34 80 110 133 141 99 58 243 80 318 49 79 -33 50 -122 -82 -247 -54 -51 -145 -109 -173 -109 -7 0 17 54 52 120 50 96 61 124 52 138 -15 24 -71 51 -94 45 -24 -6 -115 -182 -159 -306 -35 -99 -58 -244 -47 -299 9 -50 55 -88 106 -88 l38 0 -5 98 c-2 53 -1 115 4 137 l9 40 64 7 c209 21 400 194 403 363 1 98 -67 180 -182 215 -76 24 -133 24 -226 1z" id="svg_2" fill="#ffffff" fill-opacity="1"/>
<path d="M1125 820 c-17 -38 -17 -41 -1 -59 10 -11 31 -25 48 -32 28 -11 33 -11 49 10 28 34 24 75 -7 100 -42 33 -68 27 -89 -19z" id="svg_3" fill="#ffffff" fill-opacity="1"/>
<path d="M1799 839 c-6 -12 -36 -87 -66 -167 -60 -162 -100 -236 -177 -331 -113 -140 -224 -192 -250 -118 -27 75 127 421 174 392 19 -12 10 -62 -21 -124 -35 -69 -32 -79 23 -87 34 -6 37 -4 61 37 33 57 42 113 25 163 -10 31 -23 44 -58 62 -82 42 -156 25 -213 -49 -30 -39 -80 -138 -97 -192 -20 -63 -159 -229 -177 -211 -9 9 23 103 87 257 27 64 52 128 56 143 8 32 -13 60 -57 75 -26 9 -31 7 -45 -13 -19 -31 -59 -134 -119 -313 -54 -163 -55 -195 -4 -237 50 -43 75 -35 151 44 38 39 68 65 68 59 0 -7 9 -32 20 -55 35 -71 113 -92 216 -57 37 12 67 35 123 91 41 41 71 66 66 56 -27 -64 -17 -117 28 -144 46 -28 54 -25 62 23 7 42 49 147 59 147 3 0 15 -18 27 -41 47 -93 137 -161 191 -143 12 3 43 27 70 52 42 39 48 42 48 23 0 -12 7 -36 16 -53 l16 -31 138 6 c192 8 222 22 306 147 l44 65 0 -40 c0 -48 35 -122 70 -147 32 -23 87 -33 136 -24 25 5 52 23 85 56 29 29 61 51 81 55 18 4 43 13 56 21 22 14 22 14 22 -32 0 -37 5 -51 30 -76 39 -38 63 -34 70 13 14 84 230 402 255 377 4 -4 -15 -72 -44 -150 -28 -79 -51 -157 -51 -175 0 -43 36 -82 82 -90 33 -5 41 -1 88 43 79 74 260 361 260 412 0 27 -24 5 -62 -57 -76 -126 -248 -326 -248 -290 0 24 43 144 99 277 28 67 51 131 51 141 0 22 -41 58 -76 67 -41 10 -100 -33 -192 -141 l-42 -50 20 48 c11 27 20 59 20 72 0 28 -43 65 -75 65 -25 0 -50 -52 -110 -225 -28 -81 -64 -127 -107 -138 -17 -5 -19 -2 -14 16 68 231 59 311 -41 353 -102 44 -217 -27 -293 -179 -39 -78 -136 -195 -201 -243 -54 -39 -125 -64 -165 -56 -21 4 -15 14 74 116 226 258 246 293 191 342 -29 26 -289 27 -336 1 -59 -32 -71 -91 -26 -126 32 -26 31 -29 -78 -174 -81 -108 -139 -167 -165 -167 -24 0 -73 29 -84 50 -9 17 -3 24 54 60 121 76 182 170 173 263 -5 59 -31 87 -82 87 -49 0 -144 -78 -201 -164 -34 -53 -24 -15 36 133 39 96 59 159 55 172 -7 20 -53 49 -79 49 -8 0 -20 -10 -27 -21z m1129 -257 c4 -60 -35 -215 -51 -209 -21 7 -57 90 -57 130 0 43 28 98 63 122 32 23 42 14 45 -43z m-570 -73 c-48 -44 -126 -121 -174 -172 -92 -98 -93 -98 -28 3 54 85 105 186 109 219 2 14 4 27 4 29 1 1 40 2 89 2 l87 0 -87 -81z m-398 1 c0 -24 -41 -89 -76 -120 -37 -32 -114 -73 -123 -65 -8 9 51 84 109 139 55 52 90 70 90 46z m852 -227 c23 -25 15 -48 -28 -82 -22 -17 -30 -19 -42 -9 -11 10 -13 28 -9 83 3 38 9 78 13 89 6 16 10 13 27 -20 11 -22 28 -49 39 -61z" id="svg_4" fill="#ffffff" fill-opacity="1"/>
</g></g></svg>