<svg width="18" height="16" viewBox="0 0 18 16" fill="none" xmlns="http://www.w3.org/2000/svg">
<path d="M4.49894 2.99992C4.49934 3.05119 4.48375 3.10131 4.45435 3.14331C4.42495 3.18532 4.38319 3.21712 4.33488 3.23429L3.34363 3.59476L2.98332 4.58586C2.96556 4.6337 2.93358 4.67496 2.89168 4.7041C2.84979 4.73324 2.79997 4.74886 2.74894 4.74886C2.69791 4.74886 2.6481 4.73324 2.6062 4.7041C2.5643 4.67496 2.53233 4.6337 2.51457 4.58586L2.1541 3.59367L1.163 3.23429C1.11516 3.21653 1.0739 3.18456 1.04476 3.14266C1.01562 3.10076 1 3.05095 1 2.99992C1 2.94888 1.01562 2.89907 1.04476 2.85717C1.0739 2.81528 1.11516 2.7833 1.163 2.76554L2.15519 2.40507L2.51457 1.41398C2.53233 1.36614 2.5643 1.32487 2.6062 1.29573C2.6481 1.2666 2.69791 1.25098 2.74894 1.25098C2.79997 1.25098 2.84979 1.2666 2.89168 1.29573C2.93358 1.32487 2.96556 1.36614 2.98332 1.41398L3.34378 2.40617L4.33488 2.76554C4.38319 2.78272 4.42495 2.81452 4.45435 2.85652C4.48375 2.89853 4.49934 2.94865 4.49894 2.99992Z" fill="white"/>
<path d="M11.0333 2C9.91017 2.00019 8.8076 2.3116 7.8403 2.90182C6.873 3.49204 6.07629 4.33952 5.53306 5.35609C4.98983 6.37267 4.71992 7.5212 4.7514 8.68221C4.78289 9.84323 5.11462 10.9743 5.71209 11.9578C6.30956 12.9413 7.15094 13.7413 8.14871 14.2745C9.14648 14.8077 10.2642 15.0547 11.3856 14.9898C12.5069 14.9249 13.591 14.5505 14.525 13.9055C15.459 13.2604 16.2088 12.3684 16.6965 11.3221C16.7317 11.247 16.7496 11.1644 16.7489 11.0809C16.7482 10.9974 16.7288 10.9153 16.6923 10.8408C16.6558 10.7663 16.6031 10.7016 16.5384 10.6517C16.4737 10.6017 16.3987 10.5679 16.3193 10.5529C14.9826 10.3027 12.8854 9.53783 12.0473 7.22708C11.4576 5.60208 11.511 3.96083 11.7509 2.64458C11.7646 2.5679 11.7622 2.48905 11.7438 2.41342C11.7254 2.33779 11.6914 2.26716 11.6442 2.20637C11.5969 2.14558 11.5375 2.09605 11.4701 2.06118C11.4026 2.02631 11.3287 2.00692 11.2533 2.00433C11.18 2 11.1066 2 11.0333 2Z" fill="white"/>
</svg>
