<svg width="22" height="22" viewBox="0 0 22 22" fill="none" xmlns="http://www.w3.org/2000/svg">
<path d="M10.0625 3.5V2.25C10.0625 2.00136 10.1613 1.7629 10.3371 1.58709C10.5129 1.41127 10.7514 1.3125 11 1.3125C11.2486 1.3125 11.4871 1.41127 11.6629 1.58709C11.8387 1.7629 11.9375 2.00136 11.9375 2.25V3.5C11.9375 3.74864 11.8387 3.9871 11.6629 4.16291C11.4871 4.33873 11.2486 4.4375 11 4.4375C10.7514 4.4375 10.5129 4.33873 10.3371 4.16291C10.1613 3.9871 10.0625 3.74864 10.0625 3.5ZM16.3125 11C16.3125 12.0507 16.0009 13.0778 15.4172 13.9515C14.8334 14.8251 14.0037 15.506 13.033 15.9081C12.0623 16.3102 10.9941 16.4154 9.96358 16.2104C8.93306 16.0054 7.98646 15.4995 7.2435 14.7565C6.50053 14.0135 5.99456 13.0669 5.78958 12.0364C5.58459 11.0059 5.6898 9.93773 6.09189 8.96699C6.49398 7.99626 7.1749 7.16656 8.04853 6.58282C8.92217 5.99907 9.94929 5.6875 11 5.6875C12.4085 5.68895 13.7589 6.24912 14.7549 7.24509C15.7509 8.24107 16.3111 9.59148 16.3125 11ZM14.4375 11C14.4375 10.3201 14.2359 9.65552 13.8582 9.09023C13.4805 8.52493 12.9436 8.08434 12.3155 7.82416C11.6874 7.56399 10.9962 7.49591 10.3294 7.62855C9.66257 7.76119 9.05006 8.08858 8.56932 8.56932C8.08858 9.05006 7.76119 9.66257 7.62855 10.3294C7.49591 10.9962 7.56399 11.6874 7.82416 12.3155C8.08434 12.9436 8.52493 13.4805 9.09023 13.8582C9.65552 14.2359 10.3201 14.4375 11 14.4375C11.9114 14.4365 12.7851 14.074 13.4295 13.4295C14.074 12.7851 14.4365 11.9114 14.4375 11ZM5.02422 6.35078C5.11142 6.43799 5.21495 6.50716 5.32889 6.55436C5.44283 6.60155 5.56495 6.62584 5.68828 6.62584C5.81161 6.62584 5.93373 6.60155 6.04767 6.55436C6.16161 6.50716 6.26514 6.43799 6.35234 6.35078C6.43955 6.26358 6.50873 6.16005 6.55592 6.04611C6.60312 5.93217 6.62741 5.81005 6.62741 5.68672C6.62741 5.56339 6.60312 5.44127 6.55592 5.32733C6.50873 5.21339 6.43955 5.10986 6.35234 5.02266L5.41484 4.08516C5.23872 3.90904 4.99985 3.81009 4.75078 3.81009C4.50171 3.81009 4.26284 3.90904 4.08672 4.08516C3.9106 4.26128 3.81166 4.50015 3.81166 4.74922C3.81166 4.99829 3.9106 5.23716 4.08672 5.41328L5.02422 6.35078ZM5.02422 15.6477L4.08672 16.5852C3.99951 16.6724 3.93034 16.7759 3.88314 16.8898C3.83595 17.0038 3.81166 17.1259 3.81166 17.2492C3.81166 17.3725 3.83595 17.4947 3.88314 17.6086C3.93034 17.7225 3.99951 17.8261 4.08672 17.9133C4.26284 18.0894 4.50171 18.1883 4.75078 18.1883C4.87411 18.1883 4.99623 18.1641 5.11017 18.1169C5.22411 18.0697 5.32764 18.0005 5.41484 17.9133L6.35234 16.9758C6.52846 16.7997 6.62741 16.5608 6.62741 16.3117C6.62741 16.0626 6.52846 15.8238 6.35234 15.6477C6.17622 15.4715 5.93735 15.3726 5.68828 15.3726C5.43921 15.3726 5.20034 15.4715 5.02422 15.6477ZM16.3125 6.625C16.4357 6.6251 16.5576 6.60093 16.6714 6.55388C16.7852 6.50683 16.8887 6.43781 16.9758 6.35078L17.9133 5.41328C18.0005 5.32608 18.0697 5.22255 18.1169 5.10861C18.1641 4.99467 18.1883 4.87255 18.1883 4.74922C18.1883 4.62589 18.1641 4.50377 18.1169 4.38983C18.0697 4.27589 18.0005 4.17236 17.9133 4.08516C17.8261 3.99795 17.7225 3.92877 17.6086 3.88158C17.4947 3.83438 17.3725 3.81009 17.2492 3.81009C17.1259 3.81009 17.0038 3.83438 16.8898 3.88158C16.7759 3.92877 16.6724 3.99795 16.5852 4.08516L15.6477 5.02266C15.5158 5.15378 15.4258 5.32117 15.3894 5.50354C15.3529 5.68591 15.3714 5.87501 15.4427 6.0468C15.514 6.21858 15.6347 6.36528 15.7896 6.46824C15.9445 6.5712 16.1265 6.62577 16.3125 6.625ZM16.9758 15.6492C16.7997 15.4731 16.5608 15.3742 16.3117 15.3742C16.0626 15.3742 15.8238 15.4731 15.6477 15.6492C15.4715 15.8253 15.3726 16.0642 15.3726 16.3133C15.3726 16.5624 15.4715 16.8012 15.6477 16.9773L16.5852 17.9148C16.7613 18.091 17.0001 18.1899 17.2492 18.1899C17.4983 18.1899 17.7372 18.091 17.9133 17.9148C18.0894 17.7387 18.1883 17.4999 18.1883 17.2508C18.1883 17.0017 18.0894 16.7628 17.9133 16.5867L16.9758 15.6492ZM4.4375 11C4.4375 10.7514 4.33873 10.5129 4.16291 10.3371C3.9871 10.1613 3.74864 10.0625 3.5 10.0625H2.25C2.00136 10.0625 1.7629 10.1613 1.58709 10.3371C1.41127 10.5129 1.3125 10.7514 1.3125 11C1.3125 11.2486 1.41127 11.4871 1.58709 11.6629C1.7629 11.8387 2.00136 11.9375 2.25 11.9375H3.5C3.74864 11.9375 3.9871 11.8387 4.16291 11.6629C4.33873 11.4871 4.4375 11.2486 4.4375 11ZM11 17.5625C10.7514 17.5625 10.5129 17.6613 10.3371 17.8371C10.1613 18.0129 10.0625 18.2514 10.0625 18.5V19.75C10.0625 19.9986 10.1613 20.2371 10.3371 20.4129C10.5129 20.5887 10.7514 20.6875 11 20.6875C11.2486 20.6875 11.4871 20.5887 11.6629 20.4129C11.8387 20.2371 11.9375 19.9986 11.9375 19.75V18.5C11.9375 18.2514 11.8387 18.0129 11.6629 17.8371C11.4871 17.6613 11.2486 17.5625 11 17.5625ZM19.75 10.0625H18.5C18.2514 10.0625 18.0129 10.1613 17.8371 10.3371C17.6613 10.5129 17.5625 10.7514 17.5625 11C17.5625 11.2486 17.6613 11.4871 17.8371 11.6629C18.0129 11.8387 18.2514 11.9375 18.5 11.9375H19.75C19.9986 11.9375 20.2371 11.8387 20.4129 11.6629C20.5887 11.4871 20.6875 11.2486 20.6875 11C20.6875 10.7514 20.5887 10.5129 20.4129 10.3371C20.2371 10.1613 19.9986 10.0625 19.75 10.0625Z" fill="white"/>
</svg>
