<svg width="24" height="24" viewBox="0 0 24 24" fill="none" xmlns="http://www.w3.org/2000/svg">
<g clip-path="url(#clip0_10_67)">
<path d="M19.8024 17.8435L20.2661 21.6456C20.3851 22.6442 19.3267 23.3421 18.4824 22.8247L13.5 19.8287C12.953 19.8287 12.4179 19.7926 11.8947 19.7205C12.796 18.6632 13.2937 17.3146 13.2978 15.9183C13.2978 12.5013 10.3726 9.73389 6.75764 9.73389C5.37826 9.73389 4.10589 10.1309 3.04757 10.8288C3.01189 10.528 3 10.2272 3 9.91437C3 4.43981 7.69706 0 13.5 0C19.3029 0 24 4.43981 24 9.91437C24 13.163 22.3471 16.0387 19.8024 17.8435Z" fill="#AEAEAE" stroke="#FEFEFE" stroke-linecap="round" stroke-linejoin="round"/>
<path d="M13 16.0416C13 17.4403 12.48 18.7332 11.6055 19.7558C10.4355 21.1663 8.58 22.0714 6.5 22.0714L3.41545 23.8932C2.89545 24.2106 2.23364 23.7757 2.30455 23.1763L2.6 20.8607C1.01636 19.7676 0 18.0162 0 16.0416C0 13.9729 1.11091 12.151 2.81273 11.0696C3.86455 10.3879 5.12909 10 6.5 10C10.0927 10 13 12.7034 13 16.0416Z" fill="#AEAEAE" stroke="#FEFEFE" stroke-linecap="round" stroke-linejoin="round"/>
</g>
<defs>
<clipPath id="clip0_10_67">
<rect width="24" height="24" fill="white"/>
</clipPath>
</defs>
</svg>
