<svg width="28" height="24" viewBox="0 0 28 24" fill="none" xmlns="http://www.w3.org/2000/svg">
<g clip-path="url(#clip0_312_424)">
<path d="M28.0001 18.5752C27.346 19.2366 26.557 19.7459 25.6883 20.0677C25.3425 20.1849 24.9898 20.2797 24.6321 20.3513C24.3588 20.411 24.2849 20.3513 24.2849 20.0603C24.2883 18.8388 24.1795 17.6197 23.96 16.4185C23.8212 15.5189 23.4721 14.6657 22.9416 13.9298C22.411 13.1939 21.7144 12.5965 20.9096 12.1872C20.8136 12.1424 20.7323 12.0827 20.5994 12.008C20.9513 11.9621 21.2994 11.8897 21.6408 11.7916C21.971 11.6484 22.2917 11.4839 22.6009 11.2991C22.7113 11.2268 22.8388 11.1855 22.9702 11.1797C23.9688 11.321 24.9401 11.6154 25.8508 12.0528C26.3947 12.3313 26.8593 12.7455 27.2005 13.2561C27.5417 13.7667 27.7483 14.3569 27.8006 14.9707C27.8745 15.508 27.9484 16.0454 28.0148 16.5827L28.0001 18.5752Z" fill="#676767"/>
<path d="M13.5458 24.0002C11.9281 24.0195 10.3146 23.8289 8.74492 23.433C7.75984 23.2019 6.81911 22.8086 5.96043 22.2688C5.663 22.0458 5.38613 21.796 5.13321 21.5226C5.04522 21.4287 4.99065 21.3079 4.97811 21.1793C4.91572 19.4774 5.06962 17.7744 5.43603 16.1121C5.60217 15.4027 5.94941 14.7496 6.44315 14.218C6.93689 13.6864 7.55989 13.2948 8.25007 13.0823C9.15854 12.7614 10.1039 12.5524 11.0272 12.2838C11.131 12.2464 11.2432 12.2399 11.3505 12.265C11.4579 12.2902 11.5559 12.3459 11.6328 12.4255C12.2377 12.8882 12.9606 13.1669 13.7168 13.2291C14.4729 13.2912 15.231 13.1341 15.9019 12.7763C16.0382 12.7023 16.1668 12.6149 16.2859 12.5151C16.3725 12.4235 16.4827 12.3582 16.6041 12.3265C16.7255 12.2949 16.8532 12.2982 16.9728 12.336C18.0226 12.523 19.0482 12.8284 20.0306 13.2464C20.7617 13.545 21.3995 14.0375 21.8766 14.672C22.3537 15.3064 22.6524 16.0592 22.7412 16.8509C22.943 18.237 23.0417 19.6365 23.0367 21.0375C23.0353 21.1552 23.0104 21.2714 22.9634 21.3791C22.9164 21.4869 22.8484 21.5839 22.7634 21.6644C21.8537 22.5368 20.7202 23.1341 19.4914 23.3882C17.5503 23.8879 15.5467 24.0941 13.5458 24.0002Z" fill="#676767"/>
<path d="M9.22503 5.51514C9.20217 4.56798 9.32934 3.62322 9.60172 2.71663C9.82744 2.01868 10.2467 1.40085 10.8097 0.936527C11.3726 0.472206 12.0557 0.180907 12.7777 0.0972268C13.7319 -0.0584895 14.7067 -0.0306379 15.6508 0.179316C16.3272 0.308799 16.9523 0.632458 17.4513 1.11156C17.9504 1.59066 18.3023 2.20492 18.4648 2.88081C19.026 4.70056 18.9819 6.65594 18.3393 8.44797C18.0792 9.27868 17.5964 10.0204 16.9445 10.5907C16.2927 11.1611 15.4972 11.5379 14.6463 11.6793C14.004 11.8035 13.3411 11.7633 12.7181 11.5626C12.095 11.3619 11.5315 11.0069 11.0789 10.5301C10.4684 9.92489 9.98806 9.199 9.66781 8.39775C9.34756 7.59651 9.19431 6.73714 9.21765 5.87335L9.22503 5.51514Z" fill="#676767"/>
<path d="M8.79662 1.284C8.73014 1.50042 8.69321 1.63475 8.64151 1.76162C7.81361 3.87469 7.70449 6.20589 8.3313 8.38848C8.49006 8.87636 8.6928 9.34849 8.93695 9.79893C9.10683 10.1497 9.09944 10.2168 8.74492 10.3885C8.11007 10.6712 7.40489 10.7513 6.72378 10.6179C6.04267 10.4845 5.41814 10.1441 4.93378 9.64221C4.03212 8.71116 3.51686 7.46702 3.49353 6.1646C3.41929 5.08009 3.59107 3.99277 3.99577 2.9855C4.19965 2.44507 4.56383 1.98149 5.03847 1.65821C5.51311 1.33494 6.07502 1.16775 6.64732 1.17953C7.38591 1.1646 8.03587 1.24669 8.79662 1.284Z" fill="#676767"/>
<path d="M20.0601 6.4104C20.1692 4.77292 19.9169 3.1314 19.3215 1.60443C19.2403 1.41787 19.2477 1.30593 19.4914 1.26115C20.4793 1.05781 21.5042 1.14324 22.4458 1.50742C22.9127 1.67343 23.3287 1.95972 23.6525 2.33798C23.9764 2.71623 24.1969 3.17336 24.2923 3.66414C24.6432 4.9511 24.6432 6.31 24.2923 7.59697C24.1418 8.21949 23.8536 8.79944 23.4493 9.29321C23.0451 9.78698 22.5353 10.1817 21.9583 10.4477C21.5176 10.6389 21.0411 10.7313 20.5616 10.7184C20.0822 10.7055 19.6112 10.5877 19.1812 10.3731C18.9596 10.2761 18.8932 10.1567 19.0261 9.93279C19.6559 8.86408 20.0114 7.65325 20.0601 6.4104Z" fill="#676767"/>
<path d="M7.38591 11.8885C7.09048 12.0751 6.78027 12.2467 6.49222 12.4482C5.82648 12.8946 5.26314 13.4798 4.84015 14.1647C4.41716 14.8495 4.14435 15.618 4.04009 16.4184C3.82319 17.575 3.70704 18.7487 3.69296 19.9258C3.69296 20.2393 3.58955 20.3438 3.32366 20.2766C2.33085 20.0634 1.39271 19.6441 0.568715 19.0453C0.399838 18.9033 0.239523 18.7513 0.088631 18.59C0.0343403 18.531 0.00288203 18.4542 0 18.3736C0.0278377 17.1251 0.126478 15.8793 0.295437 14.6423C0.426089 13.8872 0.777198 13.1889 1.30365 12.637C1.8301 12.0852 2.50785 11.705 3.2498 11.5452C3.86283 11.3661 4.48325 11.2244 5.10367 11.0826C5.14986 11.0711 5.19786 11.0692 5.24481 11.0769C5.29176 11.0846 5.3367 11.1017 5.37695 11.1273C5.95125 11.5873 6.65391 11.8535 7.38591 11.8885Z" fill="#676767"/>
</g>
<defs>
<clipPath id="clip0_312_424">
<rect width="28" height="24" fill="white"/>
</clipPath>
</defs>
</svg>
