<svg width="31" height="31" viewBox="0 0 31 31" fill="none" xmlns="http://www.w3.org/2000/svg">
<path d="M25.0999 7H6.89998C5.86564 7 4.87367 7.43416 4.14228 8.20698C3.41089 8.97979 3 10.028 3 11.1209V13.8681L11.8881 17H20.1118L28.9999 13.8681V11.1209C28.9999 10.028 28.589 8.97979 27.8576 8.20698C27.1262 7.43416 26.1342 7 25.0999 7Z" fill="#AEAEAE"/>
<path d="M13.4 7V5.66667H18.6V7H21.2V5.66667C21.1993 4.95964 20.9252 4.28177 20.4377 3.78183C19.9503 3.28188 19.2894 3.00071 18.6 3H13.4C12.7106 3.00071 12.0497 3.28188 11.5623 3.78183C11.0748 4.28177 10.8007 4.95964 10.8 5.66667V7H13.4ZM11.8881 17.6667L3 14.6267V23C3.00103 24.0605 3.41226 25.0773 4.14342 25.8273C4.87459 26.5772 5.86597 26.9989 6.9 27H25.1C26.134 26.9989 27.1254 26.5772 27.8566 25.8273C28.5877 25.0773 28.999 24.0605 29 23V14.6267L20.1119 17.6667H11.8881Z" fill="#AEAEAE"/>
</svg>
