<svg width="19" height="24" viewBox="0 0 19 24" fill="none" xmlns="http://www.w3.org/2000/svg">
<g clip-path="url(#clip0_1_30)">
<path d="M16.4042 24.012H2.05128C2.00855 23.934 1.91697 23.946 1.84371 23.922C1.30642 23.7858 0.832289 23.4739 0.499388 23.0374C0.166486 22.601 -0.00533823 22.0661 0.0122085 21.5208V2.82142C0.0122085 2.64133 0.0122085 2.46124 0.0122085 2.28715C0.00651551 1.99618 0.0599927 1.70702 0.169501 1.43664C0.27901 1.16627 0.442343 0.920131 0.649914 0.712674C0.857485 0.505216 1.10511 0.34062 1.37826 0.228548C1.6514 0.116475 1.94456 0.0591841 2.24054 0.0600375C5.45177 0.0600375 8.663 0.0600375 11.8742 0.0600375V3.98C11.8527 4.30859 11.9001 4.63803 12.0135 4.94784C12.127 5.25765 12.304 5.54121 12.5336 5.7809C12.7256 5.99888 12.9614 6.17541 13.2261 6.29938C13.4909 6.42336 13.7789 6.49209 14.072 6.50126H18.4005C18.4982 6.5793 18.4554 6.68735 18.4554 6.7834C18.4554 11.7739 18.4554 16.7624 18.4554 21.7489C18.4514 22.1655 18.3293 22.5727 18.1029 22.9248C17.8764 23.2769 17.5545 23.5598 17.1734 23.7419C16.9231 23.8559 16.6483 23.886 16.4042 24.012ZM8.15629 11.0095H11.7033C11.7903 11.0216 11.879 11.0151 11.9632 10.9904C12.0475 10.9657 12.1253 10.9234 12.1914 10.8664C12.2575 10.8094 12.3102 10.7391 12.3461 10.6601C12.382 10.5812 12.4001 10.4956 12.3993 10.4092C12.3999 10.3239 12.382 10.2395 12.3469 10.1615C12.3117 10.0836 12.2601 10.0139 12.1954 9.95709C12.1307 9.90029 12.0544 9.85769 11.9717 9.83215C11.8889 9.8066 11.8016 9.79868 11.7155 9.80891H4.62149C4.53399 9.79585 4.44465 9.80165 4.35966 9.82592C4.27467 9.85018 4.19606 9.89232 4.12928 9.94942C4.06249 10.0065 4.00913 10.0772 3.9729 10.1566C3.93666 10.236 3.91841 10.3222 3.91941 10.4092C3.9207 10.4978 3.94064 10.5853 3.97796 10.6659C4.01528 10.7466 4.06918 10.8189 4.13628 10.8781C4.20337 10.9373 4.2822 10.9822 4.36781 11.01C4.45341 11.0378 4.54394 11.0478 4.6337 11.0395H8.15629V11.0095ZM7.47253 15.5178H10.3114C10.3964 15.5299 10.4827 15.5299 10.5678 15.5178C10.7157 15.4807 10.8441 15.3905 10.9277 15.2649C11.0114 15.1394 11.0441 14.9876 11.0195 14.8394C11.004 14.6855 10.9287 14.5434 10.8093 14.4428C10.6899 14.3421 10.5356 14.2907 10.3785 14.2992H4.64591C4.48399 14.2992 4.32871 14.3624 4.21422 14.475C4.09973 14.5876 4.03541 14.7402 4.03541 14.8995C4.03541 15.0587 4.09973 15.2114 4.21422 15.3239C4.32871 15.4365 4.48399 15.4998 4.64591 15.4998L7.47253 15.5178ZM7.14896 20.056H9.59096C9.70052 20.0679 9.81108 20.0679 9.92063 20.056C10.0108 20.0368 10.0953 19.9978 10.1679 19.9419C10.2405 19.886 10.2993 19.8146 10.3398 19.7332C10.3804 19.6517 10.4016 19.5623 10.402 19.4716C10.4023 19.3809 10.3818 19.2914 10.3419 19.2096C10.301 19.0938 10.2228 18.9943 10.1193 18.9261C10.0158 18.8579 9.89245 18.8246 9.76801 18.8314C8.02198 18.8314 6.27594 18.8314 4.52991 18.8314H4.43223C4.3375 18.8433 4.24742 18.8788 4.17051 18.9345C4.09359 18.9901 4.03239 19.0642 3.99267 19.1496C3.93404 19.2469 3.90454 19.3585 3.90759 19.4715C3.91064 19.5846 3.94611 19.6945 4.00991 19.7886C4.07371 19.8827 4.16325 19.9572 4.26821 20.0034C4.37317 20.0497 4.48928 20.0658 4.60317 20.05C5.4945 20.062 6.30647 20.056 7.14896 20.056Z" fill="#676767"/>
<path d="M11.8742 0.048024V0H11.9231C12.4969 0.6003 13.0708 1.15258 13.6508 1.72286L18.2723 6.29115C18.3211 6.34517 18.4005 6.38119 18.4005 6.47724H14.072C13.7789 6.46807 13.4909 6.39934 13.2261 6.27536C12.9614 6.15139 12.7256 5.97486 12.5336 5.75688C12.3078 5.52073 12.133 5.24209 12.0197 4.93775C11.9064 4.6334 11.8569 4.30965 11.8742 3.98599V0.048024Z" fill="#3A3A3A"/>
<path d="M8.15635 11.0095H4.63376C4.544 11.0178 4.45347 11.0077 4.36787 10.9799C4.28226 10.9522 4.20343 10.9073 4.13634 10.848C4.06925 10.7888 4.01534 10.7166 3.97802 10.6359C3.9407 10.5552 3.92076 10.4678 3.91947 10.3792C3.91847 10.2922 3.93672 10.206 3.97296 10.1266C4.0092 10.0472 4.06255 9.97651 4.12934 9.9194C4.19612 9.8623 4.27473 9.82016 4.35972 9.7959C4.44471 9.77164 4.53405 9.76583 4.62155 9.77889H11.7156C11.8017 9.76866 11.889 9.77658 11.9717 9.80213C12.0545 9.82768 12.1307 9.87027 12.1954 9.92707C12.2601 9.98386 12.3118 10.0536 12.3469 10.1315C12.3821 10.2095 12.4 10.2939 12.3993 10.3792C12.4002 10.4656 12.3821 10.5512 12.3462 10.6301C12.3103 10.709 12.2575 10.7794 12.1914 10.8364C12.1254 10.8934 12.0475 10.9357 11.9633 10.9604C11.8791 10.9851 11.7904 10.9916 11.7034 10.9795L8.15635 11.0095Z" fill="#FEFEFE"/>
<path d="M7.47252 15.5178H4.6398C4.47788 15.5178 4.3226 15.4545 4.20811 15.3419C4.09362 15.2294 4.0293 15.0767 4.0293 14.9175C4.0293 14.7582 4.09362 14.6056 4.20811 14.493C4.3226 14.3804 4.47788 14.3172 4.6398 14.3172H10.3785C10.5348 14.3034 10.6905 14.3493 10.8133 14.4455C10.9361 14.5416 11.0165 14.6805 11.0378 14.8334C11.0624 14.9815 11.0297 15.1334 10.946 15.2589C10.8624 15.3845 10.734 15.4747 10.5861 15.5118C10.501 15.5239 10.4147 15.5239 10.3297 15.5118L7.47252 15.5178Z" fill="#FEFEFE"/>
<path d="M7.14893 20.056C6.30644 20.056 5.46394 20.056 4.62145 20.056C4.50756 20.0718 4.39145 20.0557 4.28649 20.0094C4.18153 19.9632 4.09199 19.8887 4.02819 19.7946C3.96439 19.7005 3.92892 19.5906 3.92587 19.4775C3.92282 19.3645 3.95232 19.2529 4.01095 19.1556C4.05067 19.0702 4.11187 18.9961 4.18879 18.9405C4.2657 18.8848 4.35578 18.8493 4.45051 18.8374H4.54819C6.29423 18.8374 8.04026 18.8374 9.78629 18.8374C9.91074 18.8306 10.034 18.8639 10.1376 18.9321C10.2411 19.0003 10.3192 19.0998 10.3602 19.2156C10.3955 19.297 10.412 19.3851 10.4087 19.4736C10.4053 19.5621 10.3821 19.6487 10.3406 19.7273C10.2992 19.8059 10.2406 19.8745 10.169 19.9282C10.0975 19.9819 10.0147 20.0194 9.9267 20.038C9.81715 20.0499 9.70659 20.0499 9.59703 20.038L7.14893 20.056Z" fill="#FEFEFE"/>
</g>
<defs>
<clipPath id="clip0_1_30">
<rect width="18.4615" height="24" fill="white"/>
</clipPath>
</defs>
</svg>
