<?xml version="1.0" encoding="utf-8"?>
<!-- Generator: Adobe Illustrator 25.0.0, SVG Export Plug-In . SVG Version: 6.00 Build 0)  -->
<svg version="1.1" id="Layer_1" xmlns="http://www.w3.org/2000/svg" xmlns:xlink="http://www.w3.org/1999/xlink" x="0px" y="0px"
	 viewBox="0 0 512 512" style="enable-background:new 0 0 512 512;" xml:space="preserve">
<style type="text/css">
	.st0{fill:#E4ECFF;}
	.st1{fill:#6492D6;}
	.st2{fill:#7E7FF8;}
	.st3{fill:#FFFFFF;}
	.st4{fill:#E38D66;}
</style>
<g>
	<circle class="st0" cx="256" cy="256" r="255.9"/>
	<g>
		<path class="st1" d="M348.3,202.9c0.1-0.9,0.1-1.9,0-2.8c-14.7,0-29.3,0-43.9,0c-11.7-1.1-21-10.4-21.9-22.2c0-14.5,0-28.9,0-43.4
			l0,0h-97.1c-6.4,0.6-12.2,3.7-16.4,8.5c-4,5.3-5.8,11.8-5.3,18.4c0,63.4,0,127,0,190.4c0,1.1,0,2.3,0,3.5
			c0.6,10.5,8,19.4,18.2,22.1c1.3,0.3,2.6,0.6,3.9,0.6c19.3,0,38.5,0,57.9,0h79.6c12,0.2,22.3-8.4,24.4-20.2c0.2-1.7,0.2-3.4,0-5.2
			L348.3,202.9z M320.8,334.4c-1.1,2.4-3.6,3.8-6.2,3.5H210.5c-4,0-6.7-2.1-7-5.5c-0.4-3.3,2-6.4,5.3-6.8c0.5-0.1,0.9-0.1,1.4,0
			h104.3c3.3-0.4,6.4,2,6.8,5.3c0.1,1.1,0,2.2-0.5,3.2V334.4z"/>
		<path class="st2" d="M282.5,134l1.8,1.5l62.2,62.5c0.6,0.6,1.4,1,1.5,2c-14.7,0-29.3,0-43.9,0c-11.6-1.2-20.6-10.4-21.7-22
			C282.3,163.2,282.5,148.7,282.5,134z"/>
		<path class="st3" d="M244,337.8h-33.5c-4,0-6.7-2.1-7-5.5c-0.4-3.3,2-6.4,5.3-6.8c0.5-0.1,0.9-0.1,1.4,0h104.3
			c3.4-0.4,6.5,2,6.9,5.3c0.4,3.4-2,6.5-5.3,6.9c-0.5,0.1-1.1,0.1-1.6,0h-70.8L244,337.8z"/>
		<path class="st3" d="M244,291.7h-34.2c-3.3,0.4-6.4-2-6.8-5.4c-0.4-3.2,1.8-6.2,5-6.6c0.3,0,0.6-0.1,1-0.1h105.3
			c4.4,0,7.1,2.3,7.2,6c0,3.5-2.8,6.3-6.3,6.2c-0.3,0-0.6,0-0.9-0.1h-70.8L244,291.7z"/>
		<path class="st3" d="M244,245.6h-34.7c-3.3,0.2-6.1-2.4-6.3-5.7c0-0.1,0-0.3,0-0.4c-0.1-3.2,2.5-5.9,5.8-6c0.2,0,0.3,0,0.5,0h31.6
			h3.3h18.9c2.7,0,5.1,1.9,5.7,4.6c0.6,2.6-0.5,5.2-2.7,6.6c-1.2,0.7-2.6,1-4,0.9L244,245.6z"/>
		<path class="st4" d="M172.6,140l-0.9,0.8L172.6,140z"/>
	</g>
</g>
</svg>
