<svg width="28" height="24" viewBox="0 0 28 24" fill="none" xmlns="http://www.w3.org/2000/svg">
<g clip-path="url(#clip0_312_424)">
<path d="M28.0001 18.5746C27.346 19.236 26.557 19.7453 25.6883 20.0672C25.3425 20.1844 24.9898 20.2791 24.6321 20.3508C24.3588 20.4105 24.2849 20.3507 24.2849 20.0597C24.2883 18.8382 24.1795 17.6191 23.96 16.4179C23.8212 15.5183 23.4721 14.6652 22.9416 13.9293C22.411 13.1933 21.7144 12.5959 20.9096 12.1866C20.8136 12.1418 20.7323 12.0821 20.5994 12.0075C20.9513 11.9615 21.2994 11.8892 21.6408 11.791C21.971 11.6478 22.2917 11.4833 22.6009 11.2985C22.7113 11.2262 22.8388 11.185 22.9702 11.1791C23.9688 11.3204 24.9401 11.6149 25.8508 12.0522C26.3947 12.3307 26.8593 12.7449 27.2005 13.2555C27.5417 13.7661 27.7483 14.3563 27.8006 14.9702C27.8745 15.5075 27.9484 16.0448 28.0148 16.5821L28.0001 18.5746Z" fill="#007AFF"/>
<path d="M13.5458 24C11.9281 24.0193 10.3146 23.8287 8.74492 23.4328C7.75984 23.2017 6.81911 22.8084 5.96043 22.2686C5.663 22.0456 5.38613 21.7958 5.13321 21.5224C5.04522 21.4285 4.99065 21.3078 4.97811 21.1791C4.91572 19.4772 5.06962 17.7743 5.43603 16.1119C5.60217 15.4025 5.94941 14.7494 6.44315 14.2178C6.93689 13.6862 7.55989 13.2946 8.25007 13.0821C9.15854 12.7612 10.1039 12.5522 11.0272 12.2836C11.131 12.2462 11.2432 12.2397 11.3505 12.2648C11.4579 12.29 11.5559 12.3457 11.6328 12.4254C12.2377 12.888 12.9606 13.1668 13.7168 13.2289C14.4729 13.291 15.231 13.1339 15.9019 12.7761C16.0382 12.7022 16.1668 12.6147 16.2859 12.5149C16.3725 12.4233 16.4827 12.358 16.6041 12.3263C16.7255 12.2947 16.8532 12.298 16.9728 12.3358C18.0226 12.5228 19.0482 12.8282 20.0306 13.2463C20.7617 13.5449 21.3995 14.0374 21.8766 14.6718C22.3537 15.3062 22.6524 16.059 22.7412 16.8507C22.943 18.2369 23.0417 19.6363 23.0367 21.0373C23.0353 21.155 23.0104 21.2712 22.9634 21.3789C22.9164 21.4867 22.8484 21.5837 22.7634 21.6642C21.8537 22.5366 20.7202 23.1339 19.4914 23.3881C17.5503 23.8877 15.5467 24.0939 13.5458 24Z" fill="#007AFF"/>
<path d="M9.22503 5.51492C9.20217 4.56776 9.32934 3.623 9.60172 2.71642C9.82744 2.01846 10.2467 1.40063 10.8097 0.936313C11.3726 0.471993 12.0557 0.180693 12.7777 0.0970132C13.7319 -0.0587032 14.7067 -0.0308515 15.6508 0.179103C16.3272 0.308585 16.9523 0.632244 17.4513 1.11135C17.9504 1.59045 18.3023 2.2047 18.4648 2.8806C19.026 4.70035 18.9819 6.65573 18.3393 8.44776C18.0792 9.27847 17.5964 10.0202 16.9445 10.5905C16.2927 11.1609 15.4972 11.5377 14.6463 11.6791C14.004 11.8032 13.3411 11.7631 12.7181 11.5624C12.095 11.3617 11.5315 11.0067 11.0789 10.5298C10.4684 9.92468 9.98806 9.19878 9.66781 8.39754C9.34756 7.5963 9.19431 6.73693 9.21765 5.87313L9.22503 5.51492Z" fill="#007AFF"/>
<path d="M8.79674 1.28358C8.73027 1.5 8.69334 1.63432 8.64163 1.76119C7.81374 3.87426 7.70461 6.20547 8.33143 8.38806C8.49019 8.87593 8.69292 9.34806 8.93707 9.7985C9.10695 10.1492 9.09956 10.2164 8.74504 10.3881C8.11019 10.6708 7.40501 10.7508 6.7239 10.6175C6.04279 10.4841 5.41826 10.1437 4.93391 9.64179C4.03224 8.71073 3.51698 7.4666 3.49365 6.16417C3.41942 5.07966 3.59119 3.99234 3.99589 2.98507C4.19977 2.44464 4.56395 1.98107 5.03859 1.65779C5.51323 1.33451 6.07515 1.16732 6.64744 1.1791C7.38603 1.16417 8.03599 1.24626 8.79674 1.28358Z" fill="#007AFF"/>
<path d="M20.0602 6.41044C20.1693 4.77295 19.917 3.13143 19.3217 1.60447C19.2404 1.4179 19.2478 1.30596 19.4915 1.26118C20.4795 1.05784 21.5043 1.14327 22.4459 1.50745C22.9128 1.67346 23.3288 1.95975 23.6527 2.33801C23.9765 2.71626 24.197 3.17339 24.2924 3.66417C24.6433 4.95113 24.6433 6.31004 24.2924 7.597C24.1419 8.21952 23.8537 8.79947 23.4495 9.29324C23.0452 9.78701 22.5354 10.1817 21.9584 10.4477C21.5177 10.639 21.0412 10.7313 20.5618 10.7184C20.0823 10.7055 19.6113 10.5877 19.1813 10.3731C18.9597 10.2761 18.8933 10.1567 19.0262 9.93282C19.656 8.86411 20.0115 7.65329 20.0602 6.41044Z" fill="#007AFF"/>
<path d="M7.38591 11.888C7.09048 12.0746 6.78027 12.2463 6.49222 12.4477C5.82648 12.8941 5.26314 13.4794 4.84015 14.1642C4.41716 14.849 4.14435 15.6175 4.04009 16.4179C3.82319 17.5746 3.70704 18.7482 3.69296 19.9254C3.69296 20.2388 3.58955 20.3433 3.32366 20.2761C2.33085 20.0629 1.39271 19.6436 0.568715 19.0448C0.399838 18.9028 0.239523 18.7508 0.088631 18.5895C0.0343403 18.5305 0.00288203 18.4537 0 18.3731C0.0278377 17.1247 0.126478 15.8788 0.295437 14.6418C0.426089 13.8867 0.777198 13.1884 1.30365 12.6366C1.8301 12.0847 2.50785 11.7045 3.2498 11.5448C3.86283 11.3657 4.48325 11.2239 5.10367 11.0821C5.14986 11.0706 5.19786 11.0687 5.24481 11.0764C5.29176 11.0841 5.3367 11.1012 5.37695 11.1269C5.95125 11.5868 6.65391 11.853 7.38591 11.888Z" fill="#007AFF"/>
</g>
<defs>
<clipPath id="clip0_312_424">
<rect width="28" height="24" fill="white"/>
</clipPath>
</defs>
</svg>
