<svg width="11" height="12" viewBox="0 0 11 12" fill="none" xmlns="http://www.w3.org/2000/svg">
<path d="M1 11.1596C1 9.19653 2.9529 7.60885 5.35725 7.60885C5.8442 7.60885 6.31594 7.67479 6.75725 7.79653M5.35725 6.08711C6.0299 6.08711 6.675 5.8199 7.15063 5.34427C7.62627 4.86863 7.89348 4.22353 7.89348 3.55088C7.89348 2.87823 7.62627 2.23313 7.15063 1.75749C6.675 1.28186 6.0299 1.01465 5.35725 1.01465C4.6846 1.01465 4.0395 1.28186 3.56386 1.75749C3.08822 2.23313 2.82101 2.87823 2.82101 3.55088C2.82101 4.22353 3.08822 4.86863 3.56386 5.34427C4.0395 5.8199 4.6846 6.08711 5.35725 6.08711V6.08711Z" stroke="#007AFF" stroke-linecap="round" stroke-linejoin="round"/>
<path d="M6 10L7.33176 11L10 9" stroke="#007AFF" stroke-linecap="round" stroke-linejoin="round"/>
</svg>
