<svg width="16" height="17" viewBox="0 0 16 17" fill="none" xmlns="http://www.w3.org/2000/svg">
<path d="M1 15.9146C1 13.0286 3.87106 10.6945 7.40583 10.6945C8.12173 10.6945 8.81526 10.7914 9.46405 10.9704M7.40583 8.45731C8.39473 8.45731 9.34313 8.06447 10.0424 7.36521C10.7416 6.66595 11.1345 5.71756 11.1345 4.72865C11.1345 3.73975 10.7416 2.79136 10.0424 2.0921C9.34313 1.39284 8.39473 1 7.40583 1C6.41693 1 5.46853 1.39284 4.76927 2.0921C4.07001 2.79136 3.67717 3.73975 3.67717 4.72865C3.67717 5.71756 4.07001 6.66595 4.76927 7.36521C5.46853 8.06447 6.41693 8.45731 7.40583 8.45731V8.45731Z" stroke="white" stroke-width="1.58806" stroke-linecap="round" stroke-linejoin="round"/>
<path d="M14.6287 13.743H10.2183M12.4235 11.5894V15.9998" stroke="white" stroke-width="1.58806" stroke-miterlimit="10" stroke-linecap="round" stroke-linejoin="round"/>
</svg>
