<svg id="Layer_1" data-name="Layer 1" xmlns="http://www.w3.org/2000/svg" viewBox="0 0 334.14 93.71"><defs><style>.cls-1{fill:#fff;}</style></defs><path class="cls-1" d="M72.63,28.17v-.63q0-5.82-4.56-11.52Q60,6.6,45.42,6.6h-.17a56.26,56.26,0,0,0-30.69,9.76,35.86,35.86,0,0,0-8.16,8,18.73,18.73,0,0,0-3.19,7.65q0,2.45,2.57,4.67,3.48,2.69,6,2.69c.92,0,1.45-.29,1.6-.86a19.8,19.8,0,0,1,2.68-5.88,25.47,25.47,0,0,1,4.34-4.9,42.77,42.77,0,0,1,7.07-4.91q11.13-5.64,20.94-5.65a28.61,28.61,0,0,1,5.24.52q7.08,1.88,7.08,6.44v.12q0,5.76-8.67,15.23a66.73,66.73,0,0,1-6.91,6.27q-7.75,5.94-14,7.36h-.06c.31-.68.48-1.08.51-1.19a140.24,140.24,0,0,1,6.68-12.84q4.9-8.26,4.91-9.47v-.06A3.36,3.36,0,0,0,42,27.25c-3-2.35-5.51-3.53-7.64-3.53a3.35,3.35,0,0,0-1.54.34c-.5,0-1.34,1-2.51,3.08Q13.77,55.67,13.76,77.85V79a14.6,14.6,0,0,0,.63,3.66q2.46,6.84,9.47,6.84a14.51,14.51,0,0,0,4.39-.63,43.92,43.92,0,0,1-1.6-12.26A55,55,0,0,1,28.31,63l.11.06h1.83a45,45,0,0,0,16.31-3.2q15.81-6.62,23-20.42Q72.64,32.91,72.63,28.17Z"/><path class="cls-1" d="M87.18,21q4.45,2.28,5.65,2.28A2.57,2.57,0,0,0,94.94,22a17.76,17.76,0,0,0,1.82-6.1v-.12a3.79,3.79,0,0,0-1.14-2.51c-2.81-2.32-5-3.48-6.61-3.48H89c-.91,0-1.6.57-2.06,1.71a46.37,46.37,0,0,0-2.51,5.82C84.38,18.41,85.32,19.65,87.18,21Z"/><path class="cls-1" d="M330.3,37.12q-1.14,0-2.85,3.26-3,6.21-13.35,19.45Q304.19,72,302,72.09h-.17c-.11,0-.23-.19-.34-.57a41.77,41.77,0,0,1,1.42-5.08q3.19-9.63,9.7-24.64,3.48-8,3.48-10v-.23a4.12,4.12,0,0,0-1.6-2.91c-2.85-2.13-5.06-3.19-6.61-3.19q-8.06,0-22.2,20.71,5.25-12.11,5.25-14.32a3.9,3.9,0,0,0-1.14-2.63c-2.74-2.31-4.94-3.48-6.61-3.48a2,2,0,0,0-.52.06c-.64,0-1.39.84-2.22,2.51q-4,9-10.06,27.13c-.3.32-.6.64-.9.94a17.45,17.45,0,0,1-4.33,3.25A11.33,11.33,0,0,1,261,61q5-12.27,5.42-21.51c.19-3.84-.28-6.61-1.42-8.33a14.4,14.4,0,0,0-12.72-7q-12.39,0-21.74,18c-.73,1.56-1.37,3.06-2,4.52q-2.61,3.48-6.23,7.75Q208.81,71,197.56,71h-.34a17,17,0,0,1-4-.46Q213,48.71,220.84,37.81c1.52-2.09,2.31-3.8,2.39-5.14.15-2.2-1.25-4.48-4.22-6.84q0-.12-20.65-.34-7.31,0-10.84,2.51A8.65,8.65,0,0,0,184,34.39a6.83,6.83,0,0,0,.34,2.45c.81,2.1,2.49,3.28,5.06,3.54-.4.7-.82,1.51-1.29,2.45A171.42,171.42,0,0,1,176.4,59.49q-3.94,4.95-8.16,9.29-2.18,2.63-4.62,2.63A8.56,8.56,0,0,1,159.23,70q-4.33-3-4.34-5.59v-.23c2.09-1.06,3.94-2,5.53-3A45.61,45.61,0,0,0,168.75,55a33.76,33.76,0,0,0,4.85-5.82q3.89-6.39,3.88-11.35v-.4A11,11,0,0,0,175,29.88a8.52,8.52,0,0,0-5.25-2.23q-8.39,0-23.1,20.88l8.44-20.88q4.17-9.46,4.16-11.8v-.18A3.92,3.92,0,0,0,157.92,13q-4-3.13-6.39-3.25a1.78,1.78,0,0,0-1.66.86,109,109,0,0,0-4.45,10.15q-2.79,7.18-8.72,23.65l-1.89,3.33q-1.77,3.6-8.5,12Q114.51,73.53,107.6,73.52a6.37,6.37,0,0,1-2.45-.52q-2.57-1.25-2.57-5.3,0-5.7,4.39-16.49Q115.13,33,119.18,33h.06c.91,0,1.37.95,1.37,2.85,0,2.85-1.11,6.13-3.31,9.81q-2.85,4.52-2.85,5c0,.23.26.55.8,1a13.31,13.31,0,0,0,5.53,1.89h.57a3.45,3.45,0,0,0,2.34-1.15q5-6.37,5-12.89V38.38a13.58,13.58,0,0,0-1.43-6.16A5.93,5.93,0,0,0,125.46,30a19.71,19.71,0,0,0-11.58-3.93,13.57,13.57,0,0,0-3.83.57q-1.93.51-5.64,3.93a44,44,0,0,0-5.08,6.73,82,82,0,0,0-4.62,9.53q-1.5,4-2.59,7.35-2.4,3.22-5.34,6.91-8.39,10.28-11,11-.51,0-.51-.63a40.48,40.48,0,0,1,1.08-4.22q3-9,8.44-21.79,5.09-11.52,5.08-13.8A3.67,3.67,0,0,0,88.66,29q-4.11-3.42-6.61-3.42a1.92,1.92,0,0,0-1.2.34,8.29,8.29,0,0,0-1.71,2.63q-4.45,10.22-10.5,28.75-4.11,11.29-4.11,14.43a11,11,0,0,0,1.14,4.85q2.68,5,8,5T89.29,67v.51a18.17,18.17,0,0,0,.74,5q1.77,5.37,5.31,7.3a11.78,11.78,0,0,0,7.07,2.06h1q9.59,0,18.31-8.27a79,79,0,0,0,7.65-8.79,2.43,2.43,0,0,1,.14-.2c-.2.57-.4,1.11-.6,1.68q-1.83,4.52-1.83,6.28a9.07,9.07,0,0,0,1.77,5.19,9.16,9.16,0,0,0,7.36,3.88h.91l.06-.06c0-.19,0-.61-.06-1.25a25,25,0,0,1,2.46-10.61,44.78,44.78,0,0,1,3.59-6.79c0,.19.38,1.08,1,2.68a51.51,51.51,0,0,0,4.73,7.81q6.45,8.1,12.44,8.1h.8q6.33,0,19.68-20.82,11.06-18.19,11.23-22.47c0-.84-.22-1.26-.68-1.26l-.28.1c.49-1,1.57-1.52,3.25-1.52h9.58c3.12,0,4.68.13,4.68.4V36q-8.44,7.41-17.06,16.09Q175.32,69.76,174.34,73l-.05.11a10.85,10.85,0,0,0,.34,2.28,14.05,14.05,0,0,0,1.94,4.8c.64.87,1.22,1.31,1.71,1.31l1.83-.06q2.56,0,9.75.06,13.8,0,18.14-2.11a15.34,15.34,0,0,0,4.79-3A46.42,46.42,0,0,0,217.93,70q3.6-5.16,6.57-9.76c-.17,1.16-.31,2.3-.36,3.37q-.33,7.65,3.31,12.72a15.15,15.15,0,0,0,12.21,5.42,16.06,16.06,0,0,0,12-5.48,63,63,0,0,0,4.05-5.19h1.48c3,0,6.07-1.26,9.33-3.75a19.7,19.7,0,0,0-.83,4.55,16.82,16.82,0,0,0,.4,3.14q2.46,6.68,8.84,6.67c.12,0,.17,0,.17-.11V79.85a9.38,9.38,0,0,1,.58-3.48c0-.65,1.08-3,3.25-7.19a148.71,148.71,0,0,1,12.38-18.82q6.78-8.56,8.44-8.56c.26.08.4.31.4.69A6.19,6.19,0,0,1,300,43.8q-.46,1.59-8.22,23a18.85,18.85,0,0,0-1.59,5.71,9,9,0,0,0,1.65,5.08,9.11,9.11,0,0,0,7.41,4h.86q6.33,0,19.62-20.82,11.25-18.48,11.24-22.42v-.23C330.93,37.58,330.72,37.24,330.3,37.12ZM144.45,60.91h-.11a86.79,86.79,0,0,1,8.84-11.35q7.19-7.65,9.81-7.64c.65,0,1,.39,1,1.19q0,2.12-2.22,6.11a28.38,28.38,0,0,1-4.45,5.3A29.43,29.43,0,0,1,144.45,60.91ZM239.15,74l-.52,0q-1.94-1.61-1.71-6.9a53.14,53.14,0,0,1,1.48-8.79,16.66,16.66,0,0,1,1-3.54,5.12,5.12,0,0,0,.34,1,35.47,35.47,0,0,0,3.54,6.85,25.92,25.92,0,0,0,3.59,4.27Q242.69,74,239.15,74Zm17.17-36.85q-.4,7.93-4.74,19.91a24,24,0,0,1-3.08-3.76q-3.54-6.33-3.31-11.18a6.28,6.28,0,0,1,1.32-3.71c2.7-4.37,5.17-6.87,7.41-7.47a1.94,1.94,0,0,1,.91.17C256,31.84,256.47,33.85,256.32,37.12Z"/></svg>