<svg id="Layer_1" data-name="Layer 1" xmlns="http://www.w3.org/2000/svg" viewBox="0 0 200 235.82"><defs><style>.cls-1{fill:#b1b1b1;}</style></defs><path class="cls-1" d="M198.38,94c-2.07-30.33-18.56-59.5-43.74-76.62-27-18.35-63.17-22.33-93.5-10.3C50,11.53,41.54,14,29.57,14c-8.35,0-16.7,0-25,0-1.69,0-3-.18-3.1,1.81-.08,3.09,0,6.2,0,9.3V235.68h54q0-13.55,0-27.07c0-8.69-2.32-16.26,9.22-13.44,10.32,2.53,19.86,5.26,30.62,5.51a101.91,101.91,0,0,0,59.14-17c27-18.3,44.11-50.44,44.14-83.07Q198.6,97.31,198.38,94ZM98.91,163.09c-1.39,0-2.77-.05-4.13-.14-6.83.51-19.62,2.46-35.07,9.51,0,0-5.69.5-.5-4.11a65.66,65.66,0,0,0,10-12.83,61.79,61.79,0,1,1,29.66,7.57Z"/><circle class="cls-1" cx="71.44" cy="101.33" r="9.01"/><circle class="cls-1" cx="99.04" cy="101.33" r="9.01"/><circle class="cls-1" cx="126.38" cy="101.33" r="9.01"/></svg>