<?xml version="1.0" encoding="utf-8"?>
<!-- Generator: Adobe Illustrator 25.0.0, SVG Export Plug-In . SVG Version: 6.00 Build 0)  -->
<svg version="1.1" id="Layer_1" xmlns="http://www.w3.org/2000/svg" xmlns:xlink="http://www.w3.org/1999/xlink" x="0px" y="0px"
	 viewBox="0 0 512 512" style="enable-background:new 0 0 512 512;" xml:space="preserve">
<style type="text/css">
	.st0{fill:#E4ECFF;}
	.st1{fill:#FDC138;}
	.st2{fill:#9FE6A3;}
	.st3{fill:#57C19C;}
	.st4{fill:url(#SVGID_1_);}
	.st5{fill:url(#SVGID_2_);}
	.st6{fill:url(#SVGID_3_);}
	.st7{fill:#EEDFF9;}
	.st8{fill:url(#SVGID_4_);}
	.st9{fill:url(#SVGID_5_);}
	.st10{fill:url(#SVGID_6_);}
	.st11{fill:url(#SVGID_7_);}
</style>
<g>
	<circle class="st0" cx="256" cy="256" r="255.9"/>
	<g>
		<path class="st1" d="M236.3,160.8c-26.2,0-52.3,0-78.5,0c2-5.1,6.2-7.5,11.2-8.6c4.4-1,8.7,0.3,13.1,0.7
			c12.4,1.3,24.7,2.7,37.1,4.1c9.7,1.1,20.3,2.5,29.9,3.6C249.7,160.6,239.1,160.8,236.3,160.8z"/>
		<path class="st2" d="M350.5,158.6c-1.9-8.1-8.1-12.9-16.3-12.7c-4.5,0.1-15,2.5-15,2.5c-0.3,0-0.6,0.1-0.9,0.2
			c-15.7,2.9-31.3,5.9-47,8.9c-5.8,1.1-11.6,2.1-17.4,3.1c0.9,0.6,1.9,0.3,2.8,0.3c10,0,20,0,30,0c9,0,18.1-0.1,27.1-0.1
			c0-0.1,0-0.1,0-0.2c7.4,0,15,0.3,22.3,0c6.9-0.3,12.2,2.3,16.2,7.8C351.7,165.2,351.3,161.9,350.5,158.6z"/>
		<path class="st3" d="M362.8,223.4l0.9,2.5c2.1,6.2,1.4,12.6,3,18.9c0.5,1.8,2.2,10.8,2.6,13.5c1.7,10.5,3.7,20.9,5.7,31.3
			c6.1,33.1,2.1,35.3-1,37.9c-5.3,4.4-18,5.7-19.4,5.9c0-1-0.1-1.9-0.1-2.9c0-35,0-70,0-105c0-1-0.1-2.1-0.1-3.1
			c0-12,0.1-24,0.1-36.1c0-1.5,0.1-3,0.1-4.5c1.6,5.3,2.1,10.7,3.3,16.1C359.7,206.3,361.2,214.8,362.8,223.4"/>
		<g>
			<linearGradient id="SVGID_1_" gradientUnits="userSpaceOnUse" x1="377.0325" y1="205.9781" x2="357.3932" y2="212.0645">
				<stop  offset="0" style="stop-color:#FF804A"/>
				<stop  offset="1" style="stop-color:#E54733"/>
			</linearGradient>
			<path class="st4" d="M362.8,173.1c-2.9-0.8-6-1.1-9-1.3c0.4,2.4,0.9,4.8,0.7,7.2c0,0.6,0,1.2,0.1,1.8c0,0.2,0.1,0.5,0.1,0.7
				c1.6,5.3,2.1,10.7,3.3,16.1c1.7,8.5,3.2,17.1,4.8,25.6c0.1,0.8,2.3,15,3.3,21.4c0.4,2.2,0.5,3.7,1.8,5.3c0.9-3.7,1-7.4,1.7-11.2
				c1-5.4,1-10.9,1.7-16.3c1.4-10.6,2.5-21.2,3.5-31.9C375.6,182.2,370.7,175.3,362.8,173.1z"/>
			<linearGradient id="SVGID_2_" gradientUnits="userSpaceOnUse" x1="315.8157" y1="337.7585" x2="300.1453" y2="367.6751">
				<stop  offset="0" style="stop-color:#FF804A"/>
				<stop  offset="1" style="stop-color:#E54733"/>
			</linearGradient>
			<path class="st5" d="M354,336.8c-2,7.5-8.3,12.3-16.3,12.3c-21.5,0-43,0-64.5,0c-1,0-2.1,0.1-3.1,0.1c-2.8,0.6-5.6,1.2-8.5,1.9
				c0.4,0.1,0.7,0.3,1.1,0.3c7.5,0.8,14.9,1.7,22.4,2.5c18.1,2,36.2,3.9,54.3,6c8.5,1,16.4-4.6,18-13c0.8-4.6,1.1-9.4,1.6-14
				c-1.4,0.2-2.9,0.4-4.3,0.5C354.5,334.5,354.3,335.7,354,336.8z"/>
		</g>
		<linearGradient id="SVGID_3_" gradientUnits="userSpaceOnUse" x1="213.7608" y1="365.7327" x2="215.5915" y2="352.9176">
			<stop  offset="0" style="stop-color:#99E6AA"/>
			<stop  offset="1" style="stop-color:#54BA91"/>
		</linearGradient>
		<path class="st6" d="M226,349.1c-6.2,0-12.5-0.1-18.7-0.1c-1,0-2.1,0.1-3.1,0.1c-14,0-28,0-42,0.1c0.2,0.8,2.3,9.9,11.5,15.9
			c3,1.5,6.1,1.2,9.1,0.6c15-2.7,29.9-5.5,44.9-8.4c5.7-1.1,11.5-1.8,17.1-3.4c5.6-0.9,11.3-1.9,16.9-2.8c2.8-0.6,5.6-1.2,8.5-1.9
			C255.4,349.2,240.7,349.1,226,349.1z"/>
		<path class="st7" d="M236.3,160.8c0,0-52.3,0-78.5,0c-2.2,0-4.3,0.1-6.5,0c-7.4-0.5-17.6,1.6-17.6,13c0,36,0,72.1,0,108.1
			c0,16.3,0,32.7,0,49c0,11.9,6.4,16.5,13.4,17.8c5,0.9,10,0.2,15,0.5c14,0,28,0,42-0.1c1,0,2.1,0,3.1-0.1c0-0.3,0.1-0.6,0.3-0.9
			s0.3-0.5,0.4-0.8c0.2-0.2,0.4-0.5,0.6-0.7c-0.2,0.2-0.4,0.4-0.6,0.7c-0.2,0.2-0.3,0.5-0.4,0.8c-0.1,0.3-0.2,0.6-0.3,0.9
			c6.2,0,12.5,0.1,18.7,0.1c14.7,0,29.4,0.1,44.2,0.1c1,0,2.1-0.1,3.1-0.1c21.5,0,43,0,64.5,0c8,0,14.3-4.8,16.3-12.3
			c0.3-1.2,0.5-2.3,0.7-3.5c0-1-0.1-1.9-0.1-2.9c0-35,0-70,0-105c0-1-0.1-2.1-0.1-3.1c0-12,0.1-24,0.1-36.1c0-1.5,0.1-3,0.1-4.5
			c0-0.2-0.1-0.5-0.1-0.7c-0.5-0.6-0.5-1.2-0.1-1.8c0.2-2.4-0.3-4.8-0.7-7.2c-0.5-1.1-1-2.3-1.5-3.4c-4-5.5-9.3-8-16.2-7.8
			c-7.4,0.3-14.8,0-22.2,0c-9,0-18.1,0.1-27.1,0.1c-10,0-42.4-0.3-42.4-0.3L236.3,160.8z M150.4,266.3c0.2-0.2,0.3-0.3,0.5-0.5
			C150.8,266,150.6,266.2,150.4,266.3z M336.9,318.2c0,8.1-3.8,13.3-10.9,15.2c-0.6,0.2-1.2,0.3-1.9,0.3c-19.3,0-38.5,0-57.8-0.1
			c-10.6,0-21.1,0-31.7,0c-4.6,0-9.3,0.1-13.9,0.1c0,0,0,0,0,0c-5.4,0-10.9-0.1-16.3-0.1c-7.8,0-15.7,0-23.5,0
			c-5.4,0-10.8,0.1-16.3,0c-2.6-0.1-5-0.9-6.9-2.8c-2.9-1.8-4.4-4.5-5.1-7.7c-0.2-0.8-0.5-1.5-0.5-2.3c0-7.5,0-15.1,0.1-22.6
			c0-9.9,0-19.9-0.1-29.8c0-1-0.1-1.9-0.1-2.9h0c0.1-1.3,0.1-2.6,0.2-3.8c0-0.6-0.1-1.1-0.1-1.7c0-23.2,0-46.4,0-69.6
			c0-7,4.1-12.3,10.6-14c1.4-0.4,2.9-0.3,4.3-0.3c20.7,0,41.4,0,62.2,0c0.9,0,1.8-0.1,2.6-0.1c0-0.1,0-0.3,0-0.4c0,0.1,0,0.3,0,0.4
			c10.1,0,20.2,0.1,30.3,0.1c1.7,0,3.5,0.1,5.2,0.1c15.5,0,31.1,0,46.6,0c3.4,0,6.9-0.2,10.3,0c6.8,0.3,12.3,6.3,12.3,13.5
			c0.1,14.8,0,29.6,0,44.4c0,1.2,0.1,2.4,0.1,3.6c0,0,0,0,0,0c0,4.5-0.1,8.9-0.1,13.4c0,11.4-0.1,22.8-0.1,34.2
			c0.5,0.8,0.4,1.7,0.4,2.6C336.9,297.9,336.9,308.1,336.9,318.2z"/>
		<linearGradient id="SVGID_4_" gradientUnits="userSpaceOnUse" x1="163.3339" y1="175.6202" x2="311.0736" y2="294.2513">
			<stop  offset="0" style="stop-color:#18CEFB"/>
			<stop  offset="1" style="stop-color:#3EA4F7"/>
		</linearGradient>
		<path class="st8" d="M336.6,234.1c0-14.8,0-29.6,0-44.4c0-7.1-5.6-13.2-12.3-13.5c-3.4-0.2-6.9,0-10.3,0c-15.5,0-31.1,0-46.6,0
			c0,0.2-0.1,0.4-0.1,0.6c0.1-0.2,0.1-0.4,0.1-0.6c-1.7,0-3.5-0.1-5.2-0.1c-10.1,0-20.2-0.1-30.3-0.1c-0.9,0-1.8,0.1-2.6,0.1
			c-20.7,0-41.4,0-62.2,0c-1.4,0-2.9-0.1-4.3,0.3c-6.5,1.7-10.6,7-10.6,14c0,23.2,0,46.4,0,69.6c0,0.6,0.1,1.1,0.1,1.7
			c-0.1,1.3-0.1,2.6-0.2,3.8c0,1,0.1,1.9,0.1,2.9c0,9.9,0,19.9,0.1,29.8c0.1,0,0.2,0,0.4,0c7.1-8.6,14.4-17.1,21.3-26
			c6.1-7.9,15.7-10.2,23.9-5.8c0.3,0.1,0.2,1,0.5,1.1c1,0.8,1.8,1.7,2.8,2.5c1.5,0.8,2.3,1.6,3.3,3c1.9,2,4,3.9,5.6,6.2
			c2.1,2.2,4.2,4.5,6,7.1c0.8,0.5,1.4,1.3,1.8,2.1c4.8-5.7,9.8-11.6,14.5-17.4c10.6-12.8,21.1-25.7,31.7-38.6
			c7.8-9.4,21.4-9.1,29.2,0.3c1.6,1.9,3.3,3.7,4.6,5.8c4.1,4.4,7.8,9.2,11.5,13.9c4.1,4.5,7.8,9.2,11.5,14c4.4,5,8.6,10.1,12.6,15.4
			c1.1,1.1,2.1,2.3,3.2,3.4c0-11.4,0-22.8,0.1-34.2c0-4.5,0.1-8.9,0.1-13.4C336.6,236.5,336.6,235.3,336.6,234.1z M195.7,228.1
			c-7.1-2-12.1-6.3-14.3-13.5c-2.3-7.6,0.3-15.7,6.5-20.7c6-4.8,14.6-5.6,21.4-1.8c6.9,3.8,10.8,11.4,9.9,19.6
			c-0.1,0.5-0.1,0.9-0.2,1.4l0,0C216.7,223,207.4,230.2,195.7,228.1z"/>
		<path class="st7" d="M354.5,179.1c0,0.6,0,1.2,0.1,1.8C354.1,180.3,354.1,179.7,354.5,179.1z"/>
		<linearGradient id="SVGID_5_" gradientUnits="userSpaceOnUse" x1="184.835" y1="196.9732" x2="215.0518" y2="221.2365">
			<stop  offset="0" style="stop-color:#FFD945"/>
			<stop  offset="1" style="stop-color:#FFB32E"/>
		</linearGradient>
		<path class="st9" d="M195.7,228.1c-7.1-2-12.1-6.3-14.3-13.5c-2.3-7.6,0.3-15.7,6.5-20.7c6-4.8,14.6-5.6,21.4-1.8
			c6.9,3.8,10.8,11.4,9.9,19.6c-0.1,0.5-0.1,0.9-0.2,1.4C216.7,223,207.4,230.2,195.7,228.1z"/>
		<linearGradient id="SVGID_6_" gradientUnits="userSpaceOnUse" x1="225.284" y1="272.606" x2="313.5251" y2="352.0596">
			<stop  offset="0" style="stop-color:#CDEC7A"/>
			<stop  offset="1" style="stop-color:#73E2CD"/>
		</linearGradient>
		<path class="st10" d="M336.9,287.8c0-0.9,0.1-1.8-0.4-2.6c-1.1-1.1-2.1-2.3-3.2-3.4c-4-5.3-8.2-10.4-12.6-15.4
			c-3.6-4.6-7.2-9.2-11.1-13.5l0,0c-3.7-4.7-7.8-10-11.9-14.3l0,0c-1.4-2.1-3-3.9-4.6-5.8c-7.8-9.5-21.4-9.7-29.2-0.3
			c-10.6,12.8-21.1,25.7-31.7,38.6c-4.7,5.7-9.5,11.4-14.3,17.1c-5.1,6.3-10.2,12.6-15.3,18.9c-2.6,3.3-5.7,6.2-7.8,9.9
			c-4.9,5.3-9.4,11-13.8,16.8c7.8,0,15.7,0,23.5,0c5.4,0,10.9,0.1,16.3,0.1c4.6,0,9.4-0.1,14.1-0.1c10.5,0,21,0,31.6,0
			c19.3,0,38.5,0.1,57.8,0.1c0.6,0,1.3-0.1,1.9-0.3c7.1-1.9,10.8-7.1,10.9-15.2C336.9,308.1,336.9,297.9,336.9,287.8z"/>
		<linearGradient id="SVGID_7_" gradientUnits="userSpaceOnUse" x1="152.0497" y1="298.9766" x2="217.8148" y2="298.9766">
			<stop  offset="0" style="stop-color:#CDEC7A"/>
			<stop  offset="1" style="stop-color:#73E2CD"/>
		</linearGradient>
		<path class="st11" d="M204.9,272.7c-0.9-1.4-7-6.1-7.3-6.3c-8.2-4.3-17.8-2-23.9,5.8c-6.8,8.9-14.2,17.3-21.3,26
			c-0.1,0-0.2,0-0.4,0c0,7.5-0.1,15.1-0.1,22.6c0,6.7,4.5,12.8,12.5,12.8c5.4,0,10.8,0,16.3,0c4.4-5.8,8.9-11.4,13.8-16.8
			c2.2-3.6,5.2-6.6,7.8-9.9c5.1-6.3,10.2-12.6,15.3-18.9"/>
	</g>
</g>
</svg>
