<?xml version="1.0" encoding="utf-8"?>
<!-- Generator: Adobe Illustrator 25.0.0, SVG Export Plug-In . SVG Version: 6.00 Build 0)  -->
<svg version="1.1" id="Layer_1" xmlns="http://www.w3.org/2000/svg" xmlns:xlink="http://www.w3.org/1999/xlink" x="0px" y="0px"
	 viewBox="0 0 512 512" style="enable-background:new 0 0 512 512;" xml:space="preserve">
<style type="text/css">
	.st0{fill:#E4ECFF;}
	.st1{fill:#ED3368;}
	.st2{fill:#FE6B61;}
</style>
<circle class="st0" cx="256.2" cy="256" r="255.9"/>
<g>
	<path class="st1" d="M256.2,139.3c23.1,0,69.3,0,69.6,0c12,3.2,17.8,11,17.8,23.4c0,40.9,0,81.8,0,122.7c0,23.1,0,46.3,0,69.4
		c0,8.7-4.9,15-13.3,17.3c-0.3,0.1-0.5,0.3-0.8,0.4c-2,0-3.9,0-5.9,0c-5.2-1.2-8.9-4.4-12.6-8.1c-15-15.2-30.2-30.2-45.3-45.4
		c-2.8-2.8-5.6-5-9.7-5.1c0-1.4,0.1-2.7,0.1-4.1C256.2,253,256.2,196.1,256.2,139.3z"/>
	<path class="st2" d="M256.2,139.3c0,56.9,0,113.7,0,170.6c0,1.4-0.1,2.7-0.1,4.1c-3.5,0.1-6.2,1.7-8.6,4.1
		c-15.4,15.5-31,30.9-46.3,46.4c-3.7,3.7-7.6,6.9-12.9,8c-2.6,0.5-5.3,0-6.2-0.3c-8.8-2.4-13.3-8.6-13.3-19.9
		c0-62.8,0-125.6,0-188.3c0-1,0-2,0-3c0.2-10.2,5.9-20,16.1-21.6c0.7-0.1,0.5-0.1,1.6-0.1C209.7,139.3,233,139.3,256.2,139.3z"/>
</g>
</svg>
