<svg id="Layer_1" data-name="Layer 1" xmlns="http://www.w3.org/2000/svg" viewBox="0 0 90 90"><defs><style>.cls-1{fill:#010101;}</style></defs><path class="cls-1" d="M69,.69c-5.59,0-11.18,0-16.76,0H21.09A16.6,16.6,0,0,0,4.14,17.59q0,20.49,0,41A16.59,16.59,0,0,0,21.08,75.49h.7c3.36,0,6.72,0,10.07,0h0a2.35,2.35,0,0,1,2.1,1q3.48,4.71,7,9.37l1.38,1.84A3.36,3.36,0,0,0,45,89.32a3.43,3.43,0,0,0,2.65-1.61l1-1.32q3.75-5,7.47-10a2.08,2.08,0,0,1,1.84-.94h0c3.52,0,7,0,10.55,0h.34a16.66,16.66,0,0,0,17-17q0-11.36,0-22.7V17.66a17.37,17.37,0,0,0-.33-3.53A16.66,16.66,0,0,0,69,.69Zm5,67.92a11.57,11.57,0,0,1-4.8,1.1c-1.53,0-3.07,0-4.6,0H60.63c-1.65,0-3.3,0-5,0a3.14,3.14,0,0,0-2.85,1.43c-.91,1.24-1.84,2.48-2.77,3.71q-2,2.72-4,5.44A1.31,1.31,0,0,1,45,81c-.45,0-.74-.34-1-.7Q42.32,78,40.62,75.75t-3.39-4.54a3.42,3.42,0,0,0-3-1.51h0c-2.76,0-5.52,0-8.27,0q-2.45,0-4.89,0h0a11.83,11.83,0,0,1-5.19-1.22,1.54,1.54,0,0,1-.91-2.18C19.37,54.08,28,46.86,40.43,44.88A31.41,31.41,0,0,1,75.05,66.15,1.73,1.73,0,0,1,74,68.61ZM34.09,27.71A10.93,10.93,0,0,1,45,16.82h0a10.92,10.92,0,0,1,.06,21.83h0A10.93,10.93,0,0,1,34.09,27.71ZM80.08,62,79,60A38.73,38.73,0,0,0,56.93,40.62l-.8-.28.58-.63C61,35.08,62.54,29.78,61.25,24a16,16,0,0,0-6.14-9.5,16.73,16.73,0,0,0-21.83,1.38,16.94,16.94,0,0,0,0,23.9l.58.62-.81.29A38.6,38.6,0,0,0,11,60L9.92,62V17.84c0-6.69,4.7-11.37,11.42-11.37H68.68c6.71,0,11.4,4.69,11.4,11.4V62Z"/></svg>