<?xml version="1.0" standalone="no"?>
<!DOCTYPE svg PUBLIC "-//W3C//DTD SVG 1.1//EN" "http://www.w3.org/Graphics/SVG/1.1/DTD/svg11.dtd" >
<svg xmlns="http://www.w3.org/2000/svg" xmlns:xlink="http://www.w3.org/1999/xlink" version="1.1">
<metadata></metadata>
<defs>
<font id="monofontoregular" horiz-adv-x="1024" >
<font-face units-per-em="2048" ascent="1556" descent="-492" />
<missing-glyph horiz-adv-x="500" />
<glyph horiz-adv-x="0" />
<glyph />
<glyph />
<glyph unicode=" " />
<glyph unicode="!" d="M643 1485v-969h-262v969h262zM664 139q0 -69 -39 -114t-111 -45t-113 45t-41 114t43 116.5t115 47.5q71 0 108.5 -46.5t37.5 -117.5z" />
<glyph unicode="&#x22;" d="M410 1485v-543h-203v543h203zM819 1485v-543h-203v543h203z" />
<glyph unicode="#" d="M838 1073h149l-39 -178h-147l-64 -305h152l-37 -178h-154l-90 -412h-157l90 412h-193l-88 -412h-158l86 412h-151l39 178h149l70 305h-160l39 178h158l86 412h157l-83 -412h188l90 412h156zM580 586l63 309h-194l-66 -309h197z" />
<glyph unicode="$" d="M580 -207h-164v193q-306 41 -330 401h244q9 -83 60.5 -132.5t129.5 -49.5q79 0 116.5 50t37.5 124q0 59 -30.5 106t-111.5 99q-2 2 -127 72t-178 118q-137 124 -137 328q0 167 86 268.5t240 126.5v195h164v-191q163 -17 245 -118.5t84 -268.5h-239q0 81 -42.5 123.5 t-119.5 42.5q-86 0 -121 -47.5t-35 -116.5q0 -58 23 -91.5t74 -68.5q22 -15 147.5 -87t187.5 -126q84 -71 120 -150t36 -183q0 -177 -92.5 -290.5t-267.5 -133.5v-193z" />
<glyph unicode="%" d="M432 1303v-410q0 -219 -223 -219q-225 0 -225 217v412q0 215 223 215q225 0 225 -215zM139 1298v-403q0 -76 68 -76q34 0 50.5 19t16.5 61v395q0 80 -67 80q-68 0 -68 -76zM864 1485h160l-862 -1485h-162zM1044 596v-410q0 -219 -223 -219q-225 0 -225 217v412 q0 215 223 215q225 0 225 -215zM752 592v-404q0 -75 67 -75q68 0 68 80v395q0 80 -68 80q-67 0 -67 -76z" />
<glyph unicode="&#x26;" d="M811 328l193 -328h-252l-84 158q-118 -178 -312 -178q-152 0 -241.5 106t-89.5 295q0 302 249 475q-60 98 -89 176t-29 168q0 138 69.5 221.5t212.5 83.5q142 0 214.5 -82t72.5 -219q0 -105 -47.5 -196t-153.5 -187l181 -295l169 219l148 -161zM549 1212q0 56 -25 91.5 t-75 35.5q-51 0 -76 -34t-25 -88q0 -94 82 -224q119 107 119 219zM553 350l-184 326q-133 -105 -133 -273q0 -86 35.5 -132t101.5 -46q101 0 180 125z" />
<glyph unicode="'" d="M614 1485v-543h-202v543h202z" />
<glyph unicode="(" d="M713 1675l157 -102q-107 -211 -165 -462.5t-58 -481.5q0 -227 58 -476.5t165 -459.5l-157 -103q-269 523 -269 1045q0 520 269 1040z" />
<glyph unicode=")" d="M156 1573l157 102q267 -516 267 -1040q0 -526 -267 -1045l-157 103q107 209 164 458.5t57 477.5q0 231 -57 482.5t-164 461.5z" />
<glyph unicode="*" d="M4 1026l70 215l381 -180l-58 424h226l-54 -416l385 184l70 -215l-412 -77l295 -310l-184 -133l-201 369l-203 -377l-184 133l289 307z" />
<glyph unicode="+" d="M594 279h-164v376h-375v164h375v373h164v-373h375v-164h-375v-376z" />
<glyph unicode="," d="M391 317l242 -55l-152 -541l-157 37z" />
<glyph unicode="-" d="M827 862v-219h-632v219h632z" />
<glyph unicode="." d="M664 139q0 -69 -39 -114t-111 -45t-113 45t-41 114t41 116.5t113 47.5t111 -47t39 -117z" />
<glyph unicode="/" d="M1008 1616l-807 -1962h-185l807 1962h185z" />
<glyph unicode="0" d="M512 1298q-84 0 -112.5 -32.5t-28.5 -128.5v-789q0 -96 28.5 -129t112.5 -33t112.5 33t28.5 129v789q0 96 -28.5 128.5t-112.5 32.5zM512 1505q218 0 303.5 -84t85.5 -284v-789q0 -200 -85.5 -284t-303.5 -84t-303.5 84t-85.5 284v789q0 200 85.5 284t303.5 84z" />
<glyph unicode="1" d="M680 1505v-1505h-240v1110l-237 -139v268z" />
<glyph unicode="2" d="M494 1505q197 0 306 -114t109 -301q0 -164 -86 -320l-291 -520h371v-250h-780l475 870q61 113 61 226q0 91 -40 138.5t-130 47.5q-80 0 -118 -46t-41 -159h-240q7 219 116.5 323.5t287.5 104.5z" />
<glyph unicode="3" d="M948 444q0 -215 -118.5 -339.5t-329.5 -124.5q-181 0 -291 99t-125 294h250q0 -74 43.5 -121t124.5 -47q91 0 138.5 60.5t47.5 176.5q0 230 -188 230h-39v190h33q96 0 141 50t45 157q0 211 -180 211q-164 0 -164 -168h-252q12 188 123.5 290.5t292.5 102.5 q103 0 186 -34.5t134.5 -93.5t78.5 -133.5t27 -158.5q0 -206 -158 -309q180 -83 180 -332z" />
<glyph unicode="4" d="M989 559v-250h-174v-309h-262v309h-518v260l481 916h299v-926h174zM252 559h301v551z" />
<glyph unicode="5" d="M883 1485v-250h-510l-27 -352q70 57 213 57q180 0 282.5 -121t102.5 -342q0 -231 -113.5 -364t-320.5 -133q-178 0 -293 101.5t-133 291.5h250q0 -73 42 -120.5t122 -47.5q184 0 184 262q0 129 -47.5 188.5t-145.5 59.5q-130 0 -182 -103h-209l45 873h740z" />
<glyph unicode="6" d="M954 457q0 -219 -116.5 -348t-327.5 -129q-209 0 -324.5 127t-115.5 342q0 120 38.5 224t127.5 265l303 547h297l-338 -596q31 10 98 10q162 0 260 -120t98 -322zM332 449q0 -113 48 -178.5t132 -65.5t132 65.5t48 178.5t-48 178t-132 65t-132 -65t-48 -178z" />
<glyph unicode="7" d="M78 1485h893l-510 -1485h-307l454 1235h-530v250z" />
<glyph unicode="8" d="M512 1505q202 0 313 -112.5t111 -298.5q0 -210 -148 -316q77 -35 121.5 -122t44.5 -220q0 -211 -115 -333.5t-327 -122.5t-327 122.5t-115 333.5q0 133 44.5 220t121.5 122q-148 106 -148 316q0 186 111 298.5t313 112.5zM512 674q-84 0 -132 -63.5t-48 -172.5 q0 -108 48 -170.5t132 -62.5t132 62.5t48 170.5q0 109 -48 172.5t-132 63.5zM512 1280q-78 0 -123 -56t-45 -151t45 -151t123 -56t123 56t45 151t-45 151t-123 56z" />
<glyph unicode="9" d="M70 1049q0 208 117 332t325 124q211 0 326.5 -126.5t115.5 -340.5q0 -66 -10.5 -125t-36.5 -123t-50 -112t-69 -131l-303 -547h-297l355 641q-62 -10 -107 -10q-169 0 -267.5 113.5t-98.5 304.5zM332 1053q0 -104 48 -165t132 -61t132 61t48 165q0 105 -48 166t-132 61 t-132 -61t-48 -166z" />
<glyph unicode=":" d="M664 999q0 -69 -39 -114t-111 -45t-113 45t-41 114t41 116.5t113 47.5t111 -47t39 -117zM664 365q0 -69 -39 -114.5t-111 -45.5t-113 45.5t-41 114.5t41 116t113 47t111 -46.5t39 -116.5z" />
<glyph unicode=";" d="M664 999q0 -69 -39 -114t-111 -45t-113 45t-41 114t41 116.5t113 47.5t111 -47t39 -117zM391 543l242 -56l-152 -540l-157 37z" />
<glyph unicode="&#x3c;" d="M967 373v-183l-912 453v188l912 455v-182l-744 -367z" />
<glyph unicode="=" d="M969 428h-914v164h914v-164zM969 885h-914v164h914v-164z" />
<glyph unicode="&#x3e;" d="M55 190v183l744 364l-744 367v182l912 -455v-188z" />
<glyph unicode="?" d="M492 1505q192 0 293.5 -103.5t101.5 -266.5q0 -106 -44.5 -182.5t-144.5 -166.5q-65 -57 -89 -83t-37 -58.5t-13 -81.5v-28h-235v40q0 105 32 179.5t107 134.5q97 76 129.5 119t32.5 114q0 160 -144 160q-75 0 -111 -47t-40 -158h-240q6 220 113 324t289 104zM600 139 q0 -70 -38.5 -114.5t-110.5 -44.5t-113 45t-41 114t41 116.5t113 47.5t110.5 -47t38.5 -117z" />
<glyph unicode="@" d="M571 1282q414 0 414 -424v-731h-172v72q-55 -84 -170 -84q-126 0 -187 96t-61 262q0 167 61 266t185 99q101 0 166 -76v102q0 94 -58 150.5t-180 56.5q-147 0 -217.5 -65.5t-70.5 -206.5v-619q0 -161 74 -233t194 -72h436v-250h-430q-247 0 -381.5 134t-134.5 399v633 q0 248 131 369.5t401 121.5zM678 657q-105 0 -105 -182t105 -182q56 0 92.5 44.5t36.5 135.5t-37 137.5t-92 46.5z" />
<glyph unicode="A" d="M709 0l-47 223h-318l-45 -223h-262l342 1485h264l344 -1485h-278zM506 995l-111 -524h217z" />
<glyph unicode="B" d="M948 420q0 -214 -104.5 -317t-325.5 -103h-416v1485h449q182 0 276.5 -105t94.5 -295q0 -114 -36.5 -188.5t-115.5 -134.5q92 -41 135 -123.5t43 -218.5zM662 1067q0 121 -47.5 164t-145.5 43h-104v-428h122q85 0 130 51t45 170zM688 455q0 221 -196 221h-127v-447h135 q92 0 140 59.5t48 166.5z" />
<glyph unicode="C" d="M516 1505q188 0 292.5 -98.5t121.5 -294.5h-250q0 73 -42 120.5t-122 47.5q-172 0 -172 -250v-575q0 -250 172 -250q80 0 122 47.5t42 120.5h250q-17 -196 -121.5 -294.5t-292.5 -98.5q-219 0 -326.5 126.5t-107.5 348.5v575q0 222 107.5 348.5t326.5 126.5z" />
<glyph unicode="D" d="M934 1030v-584q0 -446 -406 -446h-426v1485h426q406 0 406 -455zM672 461v545q0 111 -40.5 170t-119.5 59h-147v-985h147q79 0 119.5 54.5t40.5 156.5z" />
<glyph unicode="E" d="M891 250v-250h-754v1485h754v-250h-492v-365h451v-239h-451v-381h492z" />
<glyph unicode="F" d="M930 1485v-250h-565v-369h518v-239h-518v-627h-263v1485h828z" />
<glyph unicode="G" d="M905 840v-840h-221v84q-29 -47 -96 -75.5t-146 -28.5q-167 0 -263.5 129t-96.5 346v575q0 222 107.5 348.5t326.5 126.5q188 0 292.5 -98.5t121.5 -294.5h-250q0 73 -42 120.5t-122 47.5q-172 0 -172 -250v-575q0 -132 43.5 -191t116.5 -59q139 0 139 215v207h-121v213 h383z" />
<glyph unicode="H" d="M918 1485v-1485h-263v641h-286v-641h-263v1485h263v-594h286v594h263z" />
<glyph unicode="I" d="M164 1235v250h696v-250h-217v-985h217v-250h-696v250h217v985h-217z" />
<glyph unicode="J" d="M932 1485v-971q0 -246 -111 -380t-327 -134h-365v250h330q88 0 146.5 59.5t58.5 192.5v747h-148v236h416z" />
<glyph unicode="K" d="M590 793l387 -793h-289l-323 696v-696h-263v1485h263v-660l317 660h266z" />
<glyph unicode="L" d="M924 250v-250h-822v1485h263v-1235h559z" />
<glyph unicode="M" d="M950 1485v-1485h-217v911l-219 -651l-219 651v-911h-221v1485h268l172 -572l186 572h250z" />
<glyph unicode="N" d="M922 1485v-1485h-252l-332 868v-868h-236v1485h304l280 -811v811h236z" />
<glyph unicode="O" d="M512 205q168 0 168 250v575q0 250 -168 250t-168 -250v-575q0 -250 168 -250zM512 -20q-210 0 -320 126.5t-110 348.5v575q0 222 110 348.5t320 126.5t320 -126.5t110 -348.5v-575q0 -222 -110 -348.5t-320 -126.5z" />
<glyph unicode="P" d="M102 1485h392q226 0 346.5 -131.5t120.5 -370.5q0 -231 -118 -354t-354 -123h-124v-506h-263v1485zM365 1235v-479h124q203 0 203 248q0 120 -48.5 175.5t-154.5 55.5h-124z" />
<glyph unicode="Q" d="M942 483q0 -146 -48.5 -252t-143.5 -163l112 -306h-278l-82 246q-205 3 -312.5 129t-107.5 346v547q0 222 110 348.5t320 126.5t320 -126.5t110 -348.5v-547zM512 233q168 0 168 250v547q0 250 -168 250t-168 -250v-547q0 -250 168 -250z" />
<glyph unicode="R" d="M102 1485h412q206 0 322 -117.5t116 -335.5q0 -173 -74 -288t-206 -150l311 -594h-305l-309 596v-596h-267v1485zM369 1235v-479h123q91 0 140.5 63.5t49.5 188.5q0 127 -53.5 177t-167.5 50h-92z" />
<glyph unicode="S" d="M516 1505q195 0 293 -103.5t100 -287.5h-239q0 81 -42.5 123.5t-119.5 42.5q-86 0 -121 -47.5t-35 -116.5q0 -58 23 -91.5t74 -68.5q22 -15 147.5 -87t187.5 -126q84 -71 120 -150t36 -183q0 -196 -113.5 -313t-324.5 -117q-192 0 -297 103t-119 304h244 q9 -83 60.5 -132.5t129.5 -49.5q79 0 116.5 50t37.5 124q0 59 -30.5 106t-111.5 99q-2 2 -127 72t-178 118q-137 124 -137 328q0 193 113.5 298t312.5 105z" />
<glyph unicode="T" d="M969 1485v-250h-326v-1235h-262v1235h-326v250h914z" />
<glyph unicode="U" d="M952 1485v-1063q0 -222 -116 -332t-322 -110q-210 0 -326 111t-116 331v1063h262v-1049q0 -115 49 -167t131 -52q81 0 132.5 52.5t51.5 166.5v1049h254z" />
<glyph unicode="V" d="M518 489l207 996h262l-342 -1485h-264l-344 1485h278z" />
<glyph unicode="W" d="M748 1485h264l-168 -1485h-197l-133 610l-137 -610h-203l-160 1485h267l77 -815l156 577l154 -577z" />
<glyph unicode="X" d="M682 756l283 -756h-301l-154 475l-154 -475h-297l285 748l-285 737h297l166 -461l158 461h285z" />
<glyph unicode="Y" d="M700 1485h301l-358 -893v-592h-262v592l-356 893h309l184 -537z" />
<glyph unicode="Z" d="M82 1485h883l-519 -1235h498v-250h-899l530 1235h-493v250z" />
<glyph unicode="[" d="M915 -244v-164h-389v2083h389v-164h-190v-1755h190z" />
<glyph unicode="\" d="M823 -346l-807 1962h185l807 -1962h-185z" />
<glyph unicode="]" d="M111 -408v164h190v1755h-190v164h389v-2083h-389z" />
<glyph unicode="^" d="M512 1317l-252 -498h-180l338 666h188l338 -666h-182z" />
<glyph unicode="_" d="M1024 -248v-160h-1024v160h1024z" />
<glyph unicode="`" d="M537 1141l-267 395h285l197 -395h-215z" />
<glyph unicode="a" d="M684 311v97q-31 20 -84 33.5t-108 13.5q-89 0 -134 -38.5t-45 -101.5q0 -64 42 -95.5t106 -31.5q68 0 130 35t93 88zM934 678v-678h-225v102q-78 -122 -285 -122q-173 0 -263.5 87.5t-90.5 227.5q0 147 98.5 236.5t286.5 89.5q143 0 229 -46v97q0 72 -45 107.5t-123 35.5 q-131 0 -188 -90l-215 92q56 110 166.5 167.5t255.5 57.5q192 0 295.5 -97.5t103.5 -266.5z" />
<glyph unicode="b" d="M956 510q0 -530 -352 -530q-84 0 -153 26.5t-107 75.5v-82h-242v1485h250v-537q94 94 252 94q352 0 352 -532zM352 702v-383q29 -57 84 -96t115 -39q78 0 117 78t39 248q0 171 -39 248.5t-119 77.5q-114 0 -197 -134z" />
<glyph unicode="c" d="M551 1042q139 0 241.5 -61t151.5 -188l-207 -78q-20 43 -74 72.5t-122 29.5q-106 0 -162.5 -79.5t-56.5 -223.5q0 -145 57 -227t164 -82q67 0 121 29.5t73 72.5l207 -78q-49 -127 -151.5 -188t-239.5 -61q-225 0 -353 149.5t-128 384.5q0 153 55 271.5t164.5 187.5 t259.5 69z" />
<glyph unicode="d" d="M68 510q0 532 352 532q158 0 252 -94v537h250v-1485h-242v82q-38 -49 -107 -75.5t-153 -26.5q-352 0 -352 530zM672 319v383q-83 134 -197 134q-80 0 -119 -77.5t-39 -248.5q0 -170 39 -248t117 -78q60 0 115 39t84 96z" />
<glyph unicode="e" d="M956 446h-643q24 -241 226 -241q70 0 122.5 26.5t75.5 75.5l207 -78q-34 -90 -100.5 -147.5t-140.5 -79.5t-162 -22q-225 0 -347 143.5t-122 384.5q0 247 123 390.5t329 143.5q195 0 316 -131.5t121 -371.5q0 -57 -5 -93zM309 584h414q-9 115 -61 177t-146 62 q-92 0 -139 -61.5t-68 -177.5z" />
<glyph unicode="f" d="M950 1485v-236h-266q-69 0 -97 -29.5t-28 -95.5v-104h232v-236h-232v-784h-250v784h-217v236h217v117q0 185 77.5 266.5t240.5 81.5h323z" />
<glyph unicode="g" d="M418 1042q85 0 154.5 -27.5t107.5 -76.5v82h244v-1002q0 -210 -118 -328t-347 -118q-256 0 -391 158l100 184q69 -64 134.5 -91.5t158.5 -27.5q111 0 161 48.5t50 185.5v67q-94 -102 -254 -102q-96 0 -165 37.5t-109 108.5t-58 164t-18 214q0 524 350 524zM672 340v360 q-29 57 -84 96.5t-115 39.5q-158 0 -158 -318q0 -166 40 -241.5t120 -75.5q57 0 103.5 34.5t93.5 104.5z" />
<glyph unicode="h" d="M946 684v-684h-250v653q0 98 -35.5 140.5t-103.5 42.5q-71 0 -118.5 -37t-86.5 -99v-700h-250v1485h250v-537q94 94 271 94q166 0 244.5 -87t78.5 -271z" />
<glyph unicode="i" d="M838 236v-236h-652v236h209v548h-209v236h457v-784h195zM512 1178q-71 0 -110.5 44t-39.5 111q0 68 39.5 114t110.5 46t110.5 -46t39.5 -114q0 -67 -39.5 -111t-110.5 -44z" />
<glyph unicode="j" d="M774 1020v-1036q0 -392 -305 -392h-305v248h264q96 0 96 144v798h-280v238h530zM653 1178q-71 0 -110 44t-39 111q0 68 39.5 114t109.5 46q71 0 110.5 -46t39.5 -114q0 -67 -39.5 -111t-110.5 -44z" />
<glyph unicode="k" d="M588 571l348 -571h-297l-287 492v-492h-250v1485h250v-895l283 430h258z" />
<glyph unicode="l" d="M690 1485v-1485h-250v1249h-219v236h469z" />
<glyph unicode="m" d="M735 0v754q0 82 -59 82q-27 0 -48.5 -12.5t-27.5 -30.5v-793h-176v754q0 82 -59 82q-27 0 -48.5 -12.5t-27.5 -30.5v-793h-240v1020h227v-107q18 45 73 87t134 42q87 0 113 -129q18 45 75 87t144 42q86 0 123 -49t37 -157v-836h-240z" />
<glyph unicode="n" d="M946 684v-684h-250v653q0 98 -35.5 140.5t-103.5 42.5q-71 0 -118.5 -37t-86.5 -99v-700h-250v1020h242v-82q87 104 277 104q168 0 246.5 -86t78.5 -272z" />
<glyph unicode="o" d="M512 817q-87 0 -143 -87.5t-56 -219.5t56 -219.5t143 -87.5t143 87.5t56 219.5t-56 219.5t-143 87.5zM512 1042q131 0 232 -70.5t154.5 -191t53.5 -270.5t-53.5 -270.5t-154.5 -190t-232 -69.5t-232 69.5t-154.5 190t-53.5 270.5t53.5 270.5t154.5 191t232 70.5z" />
<glyph unicode="p" d="M956 510q0 -530 -352 -530q-160 0 -252 92v-480h-250v1428h242v-82q38 49 107 76.5t153 27.5q352 0 352 -532zM352 700v-383q82 -133 197 -133q80 0 119 77.5t39 248.5q0 170 -39 248t-117 78q-60 0 -115 -39.5t-84 -96.5z" />
<glyph unicode="q" d="M420 1042q84 0 153 -27.5t107 -76.5v82h242v-1428h-250v480q-92 -92 -252 -92q-352 0 -352 530q0 532 352 532zM672 317v383q-29 57 -84 96.5t-115 39.5q-78 0 -117 -78t-39 -248q0 -171 39 -248.5t119 -77.5q115 0 197 133z" />
<glyph unicode="r" d="M647 1042q120 0 195 -65t84 -172l-221 -109q-31 140 -144 140q-73 0 -126.5 -50.5t-74.5 -130.5v-655h-235v1020h227v-137q113 159 295 159z" />
<glyph unicode="s" d="M504 1042q163 0 256 -70t108 -206h-241q-3 47 -31.5 70.5t-91.5 23.5q-127 0 -127 -92q0 -31 19.5 -53.5t74.5 -50.5q35 -18 139 -61.5t150 -72.5q137 -88 137 -247q0 -136 -95.5 -219.5t-283.5 -83.5q-178 0 -277.5 78t-103.5 225h250q0 -113 139 -113q125 0 125 90 q0 34 -22.5 61t-81.5 60q-41 23 -144.5 73t-144.5 78q-117 80 -117 218q0 137 94 214.5t269 77.5z" />
<glyph unicode="t" d="M885 240v-240h-297q-139 0 -200.5 67t-61.5 207v527h-222v219h222v280h249v-280h222v-219h-222v-467q0 -94 82 -94h228z" />
<glyph unicode="u" d="M942 1020v-643q0 -184 -117.5 -290.5t-308.5 -106.5q-193 0 -313.5 106.5t-120.5 290.5v643h250v-625q0 -94 53 -140t129 -46t131 46t55 140v625h242z" />
<glyph unicode="v" d="M727 1020h248l-324 -1020h-276l-326 1020h270l207 -684z" />
<glyph unicode="w" d="M758 1020h248l-203 -1020h-195l-96 391l-98 -391h-193l-201 1020h261l110 -559l129 559l127 -559z" />
<glyph unicode="x" d="M657 530l285 -530h-262l-162 352l-170 -352h-266l280 524l-264 496h258l154 -315l164 315h258z" />
<glyph unicode="y" d="M727 1020h246l-428 -1428h-264l110 357l-340 1071h268l205 -711z" />
<glyph unicode="z" d="M123 1020h801l-441 -784h426v-236h-827l446 784h-405v236z" />
<glyph unicode="{" d="M854 1675h59v-180h-59q-71 0 -92 -32t-21 -122q0 -60 7.5 -216.5t7.5 -202.5q0 -117 -36.5 -184.5t-131.5 -104.5q95 -37 131.5 -104.5t36.5 -184.5q0 -46 -7.5 -202t-7.5 -216q0 -90 21 -121.5t92 -31.5h59v-181h-59q-158 0 -229.5 68.5t-71.5 206.5q0 38 10 207.5 t10 242.5q0 113 -31.5 163t-131.5 50h-41v205h41q100 0 131.5 50t31.5 163q0 73 -10 244t-10 209q0 138 71.5 206t229.5 68z" />
<glyph unicode="|" d="M594 1616v-1962h-164v1962h164z" />
<glyph unicode="}" d="M113 1675h59q158 0 229.5 -68t71.5 -206q0 -38 -10 -209t-10 -244q0 -113 31.5 -163t131.5 -50h41v-205h-41q-100 0 -131.5 -50t-31.5 -163q0 -73 10 -242.5t10 -207.5q0 -138 -71.5 -206.5t-229.5 -68.5h-59v181h59q71 0 92 31.5t21 121.5q0 60 -7.5 216t-7.5 202 q0 117 36.5 184.5t131.5 104.5q-95 37 -131.5 104.5t-36.5 184.5q0 46 7.5 202.5t7.5 216.5q0 90 -21 122t-92 32h-59v180z" />
<glyph unicode="~" d="M45 600v168q89 117 227 117q48 0 241.5 -62.5t242.5 -62.5q61 0 109.5 24.5t113.5 94.5v-168q-83 -117 -227 -117q-48 0 -241.5 62.5t-242.5 62.5q-61 0 -108.5 -24.5t-114.5 -94.5z" />
<glyph unicode="&#xa0;" />
<glyph unicode="&#xa1;" d="M381 -410v969h262v-969h-262zM360 936q0 70 39 115t111 45t113 -45.5t41 -114.5t-43 -116.5t-115 -47.5q-71 0 -108.5 46.5t-37.5 117.5z" />
<glyph unicode="&#xa2;" d="M600 -207h-164v191q-179 23 -266.5 146.5t-87.5 324.5v575q0 201 87.5 323.5t266.5 145.5v193h164v-193q300 -41 330 -387h-250q0 73 -42 120.5t-122 47.5q-172 0 -172 -250v-575q0 -250 172 -250q80 0 122 47.5t42 120.5h250q-30 -346 -330 -387v-193z" />
<glyph unicode="&#xa3;" d="M834 655h-355q43 -131 43 -237q0 -93 -35 -168h461v-250h-876v250h188q35 66 35 153q0 110 -55 252h-152v164h88q-47 136 -47 264q0 203 108.5 312.5t307.5 109.5q369 0 409 -393h-249q-3 75 -45.5 121.5t-114.5 46.5q-78 0 -121 -58t-43 -169q0 -107 43 -234h410v-164z " />
<glyph unicode="&#xa4;" d="M877 735q0 -123 -39 -211l200 -198l-114 -117l-174 172q-96 -102 -236 -102q-145 0 -244 104l-170 -172l-116 117l200 200q-34 87 -34 207q0 119 34 209l-200 203l116 117l170 -174q102 102 244 102q140 0 234 -100l174 174l114 -117l-200 -201q41 -93 41 -213zM702 735 q0 129 -52.5 212t-135.5 83q-86 0 -138 -83.5t-52 -213.5q0 -125 53.5 -209t136.5 -84q84 0 136 82t52 213z" />
<glyph unicode="&#xa5;" d="M969 201h-326v-201h-262v201h-326v164h326v188h-326v164h275l-305 768h313l180 -531l178 531h305l-305 -768h273v-164h-326v-188h326v-164z" />
<glyph unicode="&#xa6;" d="M594 1616v-719h-164v719h164zM594 373v-719h-164v719h164z" />
<glyph unicode="&#xa7;" d="M948 532q0 -237 -145 -342q49 -88 49 -206q0 -190 -99 -301t-278 -111q-185 0 -279.5 91t-109.5 280h221q9 -73 51.5 -107.5t128.5 -34.5q63 0 101.5 39t38.5 105q0 56 -31 96.5t-107 79.5q-64 32 -95.5 48.5t-84.5 50.5t-94 69q-63 54 -91 120.5t-28 168.5 q0 218 156 323q-59 79 -59 225q0 175 100 277t272 102q180 0 268.5 -92t90.5 -264h-215q0 71 -40 110t-110 39q-153 0 -153 -133q0 -53 22.5 -88t83.5 -71q35 -21 105.5 -54t126.5 -66t98 -75q57 -57 81.5 -123.5t24.5 -155.5zM414 457q39 -23 110.5 -57t93.5 -46 q48 9 76.5 46.5t28.5 93.5q0 57 -30.5 97t-106.5 79q-12 6 -49 23t-61 29.5t-42 25.5q-61 -4 -92 -38.5t-31 -93.5q0 -53 22 -88t81 -71z" />
<glyph unicode="&#xa8;" d="M266 1178q-71 0 -110 44t-39 111q0 68 39.5 114t109.5 46q71 0 110.5 -46t39.5 -114q0 -67 -39.5 -111t-110.5 -44zM758 1178q-71 0 -110.5 44t-39.5 111q0 68 39.5 114t110.5 46q70 0 109.5 -46t39.5 -114q0 -67 -39 -111t-110 -44z" />
<glyph unicode="&#xa9;" d="M989 1030v-577q0 -225 -124 -349t-351 -124q-232 0 -355.5 126.5t-123.5 346.5v577q0 221 123.5 348t355.5 127q227 0 351 -124.5t124 -350.5zM866 453v577q0 167 -91.5 258.5t-260.5 91.5q-174 0 -264 -92.5t-90 -257.5v-577q0 -163 90.5 -256t263.5 -93q168 0 260 91.5 t92 257.5zM434 903v-319q0 -101 82 -101q30 0 51.5 19.5t22.5 56.5h129q-21 -197 -203 -197q-207 0 -207 218v327q0 217 207 217q182 0 203 -196h-129q-1 37 -22.5 56.5t-51.5 19.5q-82 0 -82 -101z" />
<glyph unicode="&#xaa;" d="M641 975v69q-56 35 -139 35q-63 0 -96 -27.5t-33 -72.5q0 -46 30.5 -69t75.5 -23q50 0 95 24.5t67 63.5zM823 1241v-491h-164v73q-59 -88 -206 -88q-125 0 -190.5 63t-65.5 165q0 107 71 172t207 65q98 0 166 -33v70q0 102 -121 102q-97 0 -137 -65l-156 67 q41 80 120.5 122t184.5 42q139 0 215 -71t76 -193zM811 625v-179h-600v179h600z" />
<glyph unicode="&#xab;" d="M545 -20l-529 448v166l529 448v-249l-326 -283l326 -281v-249zM1006 -20l-529 448v166l529 448v-249l-328 -283l328 -281v-249z" />
<glyph unicode="&#xac;" d="M969 72h-164v583h-750v164h914v-747z" />
<glyph unicode="&#xad;" d="M827 862v-219h-632v219h632z" />
<glyph unicode="&#xae;" d="M989 1030v-577q0 -225 -124 -349t-351 -124q-232 0 -355.5 126.5t-123.5 346.5v577q0 221 123.5 348t355.5 127q227 0 351 -124.5t124 -350.5zM866 453v577q0 167 -91.5 258.5t-260.5 91.5q-174 0 -264 -92.5t-90 -257.5v-577q0 -163 90.5 -256t263.5 -93q168 0 260 91.5 t92 257.5zM584 686l164 -313h-166l-144 295v-295h-131v741h205q101 0 160 -59t59 -162q0 -166 -147 -207zM596 874q0 66 -26 92.5t-83 26.5h-49v-243h64q44 0 69 34t25 90z" />
<glyph unicode="&#xaf;" d="M926 1251h-830v205h830v-205z" />
<glyph unicode="&#xb0;" d="M512 1505q125 0 207 -84t82 -237t-82 -234.5t-207 -81.5q-126 0 -208.5 81.5t-82.5 234.5t83 237t208 84zM512 1380q-166 0 -166 -196q0 -99 42.5 -144t123.5 -45q166 0 166 189q0 196 -166 196z" />
<glyph unicode="&#xb1;" d="M594 279h-164v376h-375v164h375v373h164v-373h375v-164h-375v-376zM969 -164h-914v164h914v-164z" />
<glyph unicode="&#xb2;" d="M741 1280q0 -87 -51 -174l-147 -246h192v-174h-454l268 483q37 67 37 111q0 38 -20 59t-52 21q-73 0 -76 -115h-151q15 273 221 273q106 0 169.5 -66t63.5 -172z" />
<glyph unicode="&#xb3;" d="M758 932q0 -117 -67 -187.5t-179 -70.5q-114 0 -180 74.5t-66 197.5h152q0 -58 23 -89.5t65 -31.5q43 0 69.5 31.5t26.5 79.5q0 52 -28.5 80t-69.5 33v122q38 2 65 30.5t27 78.5q0 44 -22.5 70t-59.5 26q-34 0 -57.5 -23t-30.5 -65h-135q7 107 67 168.5t156 61.5 q100 0 161.5 -65t61.5 -179t-71 -158q92 -56 92 -184z" />
<glyph unicode="&#xb4;" d="M752 1536l-267 -395h-215l197 395h285z" />
<glyph unicode="&#xb6;" d="M41 1169q0 151 71.5 233.5t204.5 82.5h611v-1761h-164v1611h-184v-1611h-164v1144h-97q-139 0 -208.5 78t-69.5 223z" />
<glyph unicode="&#xb7;" d="M664 721q0 -69 -39 -114.5t-111 -45.5t-113 45.5t-41 114.5t41 116.5t113 47.5t111 -47t39 -117z" />
<glyph unicode="&#xb8;" d="M428 -35l213 -53l-117 -404l-174 43z" />
<glyph unicode="&#xb9;" d="M651 1526v-840h-149v588l-129 -74v170z" />
<glyph unicode="&#xba;" d="M811 625v-179h-600v179h600zM512 1341q-63 0 -103 -63.5t-40 -159.5q0 -95 40.5 -158t102.5 -63q64 0 104.5 63t40.5 158q0 96 -40.5 159.5t-104.5 63.5zM512 1505q144 0 231.5 -110t87.5 -277q0 -166 -87.5 -274.5t-231.5 -108.5t-231.5 108.5t-87.5 274.5 q0 167 87.5 277t231.5 110z" />
<glyph unicode="&#xbb;" d="M545 428l-529 -448v249l328 281l-328 283v249l529 -448v-166zM477 793v249l529 -448v-166l-529 -448v249l326 281z" />
<glyph unicode="&#xbc;" d="M344 1526v-840h-149v588l-129 -74v170zM860 1485h160l-862 -1485h-162zM1030 303v-149h-82v-174h-151v174h-273v151l232 494h192v-496h82zM647 303h158v332z" />
<glyph unicode="&#xbd;" d="M354 1526v-840h-149v588l-129 -74v170zM856 1485h160l-862 -1485h-162zM1036 573q0 -87 -51 -174l-147 -245h192v-174h-455l269 483q37 67 37 110q0 38 -20 59t-52 21q-73 0 -76 -114h-151q15 272 221 272q106 0 169.5 -66t63.5 -172z" />
<glyph unicode="&#xbe;" d="M453 932q0 -117 -67 -187.5t-179 -70.5q-114 0 -180 74.5t-66 197.5h152q0 -58 23 -89.5t65 -31.5q43 0 69.5 31.5t26.5 79.5q0 52 -28.5 80t-69.5 33v122q38 2 65 30.5t27 78.5q0 44 -22.5 70t-59.5 26q-34 0 -57.5 -23t-30.5 -65h-135q7 107 67 168.5t156 61.5 q100 0 161.5 -65t61.5 -179t-72 -158q93 -57 93 -184zM885 1485h159l-862 -1485h-162zM1063 303v-149h-82v-174h-152v174h-272v151l231 494h193v-496h82zM680 303h158v332z" />
<glyph unicode="&#xbf;" d="M528 -430q-192 0 -293.5 104t-101.5 267q0 106 44.5 182t144.5 166q65 57 89 83t37 58.5t13 81.5v29h235v-41q0 -105 -32 -179.5t-107 -134.5q-97 -76 -129.5 -119t-32.5 -114q0 -160 144 -160q75 0 111 47t40 158h240q-6 -220 -113 -324t-289 -104zM420 936 q0 70 38.5 115t110.5 45t113 -45.5t41 -114.5t-41 -116.5t-113 -47.5t-110.5 47t-38.5 117z" />
<glyph unicode="&#xc0;" d="M475 1606l-266 360h285l196 -360h-215zM709 0l-47 223h-318l-45 -223h-262l342 1485h264l344 -1485h-278zM506 995l-111 -524h217z" />
<glyph unicode="&#xc1;" d="M813 1966l-266 -360h-215l196 360h285zM709 0l-47 223h-318l-45 -223h-262l342 1485h264l344 -1485h-278zM506 995l-111 -524h217z" />
<glyph unicode="&#xc2;" d="M119 1606l225 360h334l225 -360h-215l-180 221l-176 -221h-213zM709 0l-47 223h-318l-45 -223h-262l342 1485h264l344 -1485h-278zM506 995l-111 -524h217z" />
<glyph unicode="&#xc3;" d="M725 1626q-59 0 -116.5 21.5t-97 47t-96 47t-114.5 21.5q-63 0 -115.5 -27t-115.5 -91v206q82 115 227 115q59 0 116.5 -21.5t97 -47t96 -47t114.5 -21.5q63 0 115.5 27t115.5 92v-207q-82 -115 -227 -115zM709 0l-47 223h-318l-45 -223h-262l342 1485h264l344 -1485 h-278zM506 995l-111 -524h217z" />
<glyph unicode="&#xc4;" d="M266 1642q-71 0 -110 44t-39 112t39.5 114t109.5 46q71 0 110.5 -46t39.5 -114q0 -67 -39.5 -111.5t-110.5 -44.5zM758 1642q-71 0 -110.5 44.5t-39.5 111.5q0 68 39.5 114t110.5 46q70 0 109.5 -46t39.5 -114t-39 -112t-110 -44zM709 0l-47 223h-318l-45 -223h-262 l342 1485h264l344 -1485h-278zM506 995l-111 -524h217z" />
<glyph unicode="&#xc5;" d="M379 1735q0 -113 133 -113t133 113q0 114 -133 114t-133 -114zM803 1735q0 -113 -75.5 -171.5t-215.5 -58.5t-215.5 58.5t-75.5 171.5q0 114 75.5 172.5t215.5 58.5t215.5 -58.5t75.5 -172.5zM709 0l-47 223h-318l-45 -223h-262l342 1485h264l344 -1485h-278zM506 995 l-111 -524h217z" />
<glyph unicode="&#xc6;" d="M1006 0h-498v238h-217l-35 -238h-246l209 1485h787v-250h-258v-365h217v-239h-217v-381h258v-250zM508 481v754h-100l-91 -754h191z" />
<glyph unicode="&#xc7;" d="M516 1505q188 0 292.5 -98.5t121.5 -294.5h-250q0 73 -42 120.5t-122 47.5q-172 0 -172 -250v-575q0 -250 172 -250q80 0 122 47.5t42 120.5h250q-17 -196 -121.5 -294.5t-292.5 -98.5q-219 0 -326.5 126.5t-107.5 348.5v575q0 222 107.5 348.5t326.5 126.5zM444 -35 l213 -53l-116 -404l-174 43z" />
<glyph unicode="&#xc8;" d="M475 1606l-266 360h285l196 -360h-215zM891 250v-250h-754v1485h754v-250h-492v-365h451v-239h-451v-381h492z" />
<glyph unicode="&#xc9;" d="M752 1966l-267 -360h-215l197 360h285zM891 250v-250h-754v1485h754v-250h-492v-365h451v-239h-451v-381h492z" />
<glyph unicode="&#xca;" d="M119 1606l225 360h334l225 -360h-215l-180 221l-176 -221h-213zM891 250v-250h-754v1485h754v-250h-492v-365h451v-239h-451v-381h492z" />
<glyph unicode="&#xcb;" d="M266 1642q-71 0 -110 44t-39 112t39.5 114t109.5 46q71 0 110.5 -46t39.5 -114q0 -67 -39.5 -111.5t-110.5 -44.5zM758 1642q-71 0 -110.5 44.5t-39.5 111.5q0 68 39.5 114t110.5 46q70 0 109.5 -46t39.5 -114t-39 -112t-110 -44zM891 250v-250h-754v1485h754v-250h-492 v-365h451v-239h-451v-381h492z" />
<glyph unicode="&#xcc;" d="M475 1606l-266 360h285l196 -360h-215zM164 1235v250h696v-250h-217v-985h217v-250h-696v250h217v985h-217z" />
<glyph unicode="&#xcd;" d="M813 1966l-266 -360h-215l196 360h285zM164 1235v250h696v-250h-217v-985h217v-250h-696v250h217v985h-217z" />
<glyph unicode="&#xce;" d="M119 1606l225 360h334l225 -360h-215l-180 221l-176 -221h-213zM164 1235v250h696v-250h-217v-985h217v-250h-696v250h217v985h-217z" />
<glyph unicode="&#xcf;" d="M266 1642q-71 0 -110 44t-39 112t39.5 114t109.5 46q71 0 110.5 -46t39.5 -114q0 -67 -39.5 -111.5t-110.5 -44.5zM758 1642q-71 0 -110.5 44.5t-39.5 111.5q0 68 39.5 114t110.5 46q70 0 109.5 -46t39.5 -114t-39 -112t-110 -44zM164 1235v250h696v-250h-217v-985h217 v-250h-696v250h217v985h-217z" />
<glyph unicode="&#xd0;" d="M20 631v239h82v615h426q406 0 406 -455v-584q0 -446 -406 -446h-426v631h-82zM672 461v545q0 111 -40.5 170t-119.5 59h-147v-365h215v-239h-215v-381h147q79 0 119.5 54.5t40.5 156.5z" />
<glyph unicode="&#xd1;" d="M725 1626q-59 0 -116.5 21.5t-97 47t-96 47t-114.5 21.5q-63 0 -115.5 -27t-115.5 -91v206q82 115 227 115q59 0 116.5 -21.5t97 -47t96 -47t114.5 -21.5q63 0 115.5 27t115.5 92v-207q-82 -115 -227 -115zM922 1485v-1485h-252l-332 868v-868h-236v1485h304l280 -811 v811h236z" />
<glyph unicode="&#xd2;" d="M475 1606l-266 360h285l196 -360h-215zM512 205q168 0 168 250v575q0 250 -168 250t-168 -250v-575q0 -250 168 -250zM512 -20q-210 0 -320 126.5t-110 348.5v575q0 222 110 348.5t320 126.5t320 -126.5t110 -348.5v-575q0 -222 -110 -348.5t-320 -126.5z" />
<glyph unicode="&#xd3;" d="M813 1966l-266 -360h-215l196 360h285zM512 205q168 0 168 250v575q0 250 -168 250t-168 -250v-575q0 -250 168 -250zM512 -20q-210 0 -320 126.5t-110 348.5v575q0 222 110 348.5t320 126.5t320 -126.5t110 -348.5v-575q0 -222 -110 -348.5t-320 -126.5z" />
<glyph unicode="&#xd4;" d="M119 1606l225 360h334l225 -360h-215l-180 221l-176 -221h-213zM512 205q168 0 168 250v575q0 250 -168 250t-168 -250v-575q0 -250 168 -250zM512 -20q-210 0 -320 126.5t-110 348.5v575q0 222 110 348.5t320 126.5t320 -126.5t110 -348.5v-575q0 -222 -110 -348.5 t-320 -126.5z" />
<glyph unicode="&#xd5;" d="M725 1626q-59 0 -116.5 21.5t-97 47t-96 47t-114.5 21.5q-63 0 -115.5 -27t-115.5 -91v206q82 115 227 115q59 0 116.5 -21.5t97 -47t96 -47t114.5 -21.5q63 0 115.5 27t115.5 92v-207q-82 -115 -227 -115zM512 205q168 0 168 250v575q0 250 -168 250t-168 -250v-575 q0 -250 168 -250zM512 -20q-210 0 -320 126.5t-110 348.5v575q0 222 110 348.5t320 126.5t320 -126.5t110 -348.5v-575q0 -222 -110 -348.5t-320 -126.5z" />
<glyph unicode="&#xd6;" d="M266 1642q-71 0 -110 44t-39 112t39.5 114t109.5 46q71 0 110.5 -46t39.5 -114q0 -67 -39.5 -111.5t-110.5 -44.5zM758 1642q-71 0 -110.5 44.5t-39.5 111.5q0 68 39.5 114t110.5 46q70 0 109.5 -46t39.5 -114t-39 -112t-110 -44zM512 205q168 0 168 250v575 q0 250 -168 250t-168 -250v-575q0 -250 168 -250zM512 -20q-210 0 -320 126.5t-110 348.5v575q0 222 110 348.5t320 126.5t320 -126.5t110 -348.5v-575q0 -222 -110 -348.5t-320 -126.5z" />
<glyph unicode="&#xd7;" d="M248 354l-115 115l266 268l-264 264l113 117l266 -264l264 262l117 -117l-266 -262l266 -266l-117 -115l-264 265z" />
<glyph unicode="&#xd8;" d="M512 -20q-152 0 -252 65l-82 -170l-141 74l108 223q-63 111 -63 283v575q0 222 110 348.5t320 126.5q147 0 250 -67l84 172l141 -74l-110 -225q65 -115 65 -281v-575q0 -222 -110 -348.5t-320 -126.5zM512 195q193 0 193 254v507l-340 -696q51 -65 147 -65zM319 1036 v-506l338 693q-50 67 -145 67q-193 0 -193 -254z" />
<glyph unicode="&#xd9;" d="M475 1606l-266 360h285l196 -360h-215zM952 1485v-1063q0 -222 -116 -332t-322 -110q-210 0 -326 111t-116 331v1063h262v-1049q0 -115 49 -167t131 -52q81 0 132.5 52.5t51.5 166.5v1049h254z" />
<glyph unicode="&#xda;" d="M813 1966l-266 -360h-215l196 360h285zM952 1485v-1063q0 -222 -116 -332t-322 -110q-210 0 -326 111t-116 331v1063h262v-1049q0 -115 49 -167t131 -52q81 0 132.5 52.5t51.5 166.5v1049h254z" />
<glyph unicode="&#xdb;" d="M119 1606l225 360h334l225 -360h-215l-180 221l-176 -221h-213zM952 1485v-1063q0 -222 -116 -332t-322 -110q-210 0 -326 111t-116 331v1063h262v-1049q0 -115 49 -167t131 -52q81 0 132.5 52.5t51.5 166.5v1049h254z" />
<glyph unicode="&#xdc;" d="M266 1642q-71 0 -110 44t-39 112t39.5 114t109.5 46q71 0 110.5 -46t39.5 -114q0 -67 -39.5 -111.5t-110.5 -44.5zM758 1642q-71 0 -110.5 44.5t-39.5 111.5q0 68 39.5 114t110.5 46q70 0 109.5 -46t39.5 -114t-39 -112t-110 -44zM952 1485v-1063q0 -222 -116 -332 t-322 -110q-210 0 -326 111t-116 331v1063h262v-1049q0 -115 49 -167t131 -52q81 0 132.5 52.5t51.5 166.5v1049h254z" />
<glyph unicode="&#xdd;" d="M813 1966l-266 -360h-215l196 360h285zM700 1485h301l-358 -893v-592h-262v592l-356 893h309l184 -537z" />
<glyph unicode="&#xde;" d="M692 748q0 123 -50.5 181t-152.5 58h-124v-475h124q103 0 153 56.5t50 179.5zM365 1487v-250h124q234 0 353 -128.5t119 -360.5t-118.5 -359t-353.5 -127h-124v-262h-263v1487h263z" />
<glyph unicode="&#xdf;" d="M352 1092v-1092h-250v1126q0 173 103.5 276t298.5 103q198 0 303.5 -107.5t105.5 -305.5q0 -125 -40.5 -203t-112.5 -107q92 -31 146.5 -119t54.5 -237q0 -426 -469 -426h-43v238h43q111 0 165 53t54 168q0 225 -199 225h-35v184h35q160 0 160 213q0 99 -37.5 150 t-122.5 51q-160 0 -160 -190z" />
<glyph unicode="&#xe0;" d="M684 311v97q-31 20 -84 33.5t-108 13.5q-89 0 -134 -38.5t-45 -101.5q0 -64 42 -95.5t106 -31.5q68 0 130 35t93 88zM934 678v-678h-225v102q-78 -122 -285 -122q-173 0 -263.5 87.5t-90.5 227.5q0 147 98.5 236.5t286.5 89.5q143 0 229 -46v97q0 72 -45 107.5t-123 35.5 q-131 0 -188 -90l-215 92q56 110 166.5 167.5t255.5 57.5q192 0 295.5 -97.5t103.5 -266.5zM483 1141l-266 395h285l196 -395h-215z" />
<glyph unicode="&#xe1;" d="M684 311v97q-31 20 -84 33.5t-108 13.5q-89 0 -134 -38.5t-45 -101.5q0 -64 42 -95.5t106 -31.5q68 0 130 35t93 88zM934 678v-678h-225v102q-78 -122 -285 -122q-173 0 -263.5 87.5t-90.5 227.5q0 147 98.5 236.5t286.5 89.5q143 0 229 -46v97q0 72 -45 107.5t-123 35.5 q-131 0 -188 -90l-215 92q56 110 166.5 167.5t255.5 57.5q192 0 295.5 -97.5t103.5 -266.5zM821 1536l-266 -395h-215l197 395h284z" />
<glyph unicode="&#xe2;" d="M684 311v97q-31 20 -84 33.5t-108 13.5q-89 0 -134 -38.5t-45 -101.5q0 -64 42 -95.5t106 -31.5q68 0 130 35t93 88zM934 678v-678h-225v102q-78 -122 -285 -122q-173 0 -263.5 87.5t-90.5 227.5q0 147 98.5 236.5t286.5 89.5q143 0 229 -46v97q0 72 -45 107.5t-123 35.5 q-131 0 -188 -90l-215 92q56 110 166.5 167.5t255.5 57.5q192 0 295.5 -97.5t103.5 -266.5zM127 1141l225 395h334l225 -395h-215l-180 252l-176 -252h-213z" />
<glyph unicode="&#xe3;" d="M684 311v97q-31 20 -84 33.5t-108 13.5q-89 0 -134 -38.5t-45 -101.5q0 -64 42 -95.5t106 -31.5q68 0 130 35t93 88zM934 678v-678h-225v102q-78 -122 -285 -122q-173 0 -263.5 87.5t-90.5 227.5q0 147 98.5 236.5t286.5 89.5q143 0 229 -46v97q0 72 -45 107.5t-123 35.5 q-131 0 -188 -90l-215 92q56 110 166.5 167.5t255.5 57.5q192 0 295.5 -97.5t103.5 -266.5zM733 1176q-59 0 -116.5 21.5t-97 47t-96 47t-114.5 21.5q-63 0 -115.5 -27t-115.5 -92v207q82 115 227 115q59 0 116.5 -21.5t97 -47.5t96 -47.5t114.5 -21.5q63 0 116 27t116 92 v-207q-81 -114 -228 -114z" />
<glyph unicode="&#xe4;" d="M684 311v97q-31 20 -84 33.5t-108 13.5q-89 0 -134 -38.5t-45 -101.5q0 -64 42 -95.5t106 -31.5q68 0 130 35t93 88zM934 678v-678h-225v102q-78 -122 -285 -122q-173 0 -263.5 87.5t-90.5 227.5q0 147 98.5 236.5t286.5 89.5q143 0 229 -46v97q0 72 -45 107.5t-123 35.5 q-131 0 -188 -90l-215 92q56 110 166.5 167.5t255.5 57.5q192 0 295.5 -97.5t103.5 -266.5zM274 1178q-71 0 -110 44t-39 111q0 68 39.5 114t109.5 46q71 0 110.5 -46t39.5 -114q0 -67 -39.5 -111t-110.5 -44zM766 1178q-71 0 -110.5 44t-39.5 111q0 68 39.5 114t110.5 46 q70 0 109.5 -46t39.5 -114q0 -67 -39 -111t-110 -44z" />
<glyph unicode="&#xe5;" d="M684 311v97q-31 20 -84 33.5t-108 13.5q-89 0 -134 -38.5t-45 -101.5q0 -64 42 -95.5t106 -31.5q68 0 130 35t93 88zM934 678v-678h-225v102q-78 -122 -285 -122q-173 0 -263.5 87.5t-90.5 227.5q0 147 98.5 236.5t286.5 89.5q143 0 229 -46v97q0 72 -45 107.5t-123 35.5 q-131 0 -188 -90l-215 92q56 110 166.5 167.5t255.5 57.5q192 0 295.5 -97.5t103.5 -266.5zM387 1294q0 -118 133 -118t133 118q0 119 -133 119t-133 -119zM811 1294q0 -119 -75.5 -180t-215.5 -61t-215.5 61t-75.5 180t75.5 180.5t215.5 61.5t215.5 -61.5t75.5 -180.5z" />
<glyph unicode="&#xe6;" d="M500 123q-27 -68 -90 -105.5t-146 -37.5q-115 0 -182.5 77.5t-67.5 241.5q0 142 55.5 232t172.5 90q85 0 159 -41v92q0 83 -20.5 119t-65.5 36q-35 0 -58.5 -23t-37.5 -79l-172 70q41 132 106.5 189.5t157.5 57.5q115 0 199 -100q65 100 205 100q72 0 124.5 -29 t92.5 -95.5t60 -184.5t20 -287h-408q0 -264 111 -264q35 0 56.5 27.5t35.5 85.5l176 -55q-19 -55 -39 -95.5t-51.5 -81t-77 -62t-102.5 -21.5q-145 0 -213 143zM602 584h223q-3 137 -32.5 187t-79.5 50q-53 0 -80.5 -51.5t-30.5 -185.5zM401 260v164q-57 31 -94 31 q-54 0 -74 -37t-20 -103q0 -143 82 -143q70 0 106 88z" />
<glyph unicode="&#xe7;" d="M551 1042q139 0 241.5 -61t151.5 -188l-207 -78q-20 43 -74 72.5t-122 29.5q-106 0 -162.5 -79.5t-56.5 -223.5q0 -145 57 -227t164 -82q67 0 121 29.5t73 72.5l207 -78q-49 -127 -151.5 -188t-239.5 -61q-225 0 -353 149.5t-128 384.5q0 153 55 271.5t164.5 187.5 t259.5 69zM444 -35l213 -53l-116 -404l-174 43z" />
<glyph unicode="&#xe8;" d="M956 446h-643q24 -241 226 -241q70 0 122.5 26.5t75.5 75.5l207 -78q-34 -90 -100.5 -147.5t-140.5 -79.5t-162 -22q-225 0 -347 143.5t-122 384.5q0 247 123 390.5t329 143.5q195 0 316 -131.5t121 -371.5q0 -57 -5 -93zM309 584h414q-9 115 -61 177t-146 62 q-92 0 -139 -61.5t-68 -177.5zM483 1141l-266 395h285l196 -395h-215z" />
<glyph unicode="&#xe9;" d="M956 446h-643q24 -241 226 -241q70 0 122.5 26.5t75.5 75.5l207 -78q-34 -90 -100.5 -147.5t-140.5 -79.5t-162 -22q-225 0 -347 143.5t-122 384.5q0 247 123 390.5t329 143.5q195 0 316 -131.5t121 -371.5q0 -57 -5 -93zM309 584h414q-9 115 -61 177t-146 62 q-92 0 -139 -61.5t-68 -177.5zM821 1536l-266 -395h-215l197 395h284z" />
<glyph unicode="&#xea;" d="M956 446h-643q24 -241 226 -241q70 0 122.5 26.5t75.5 75.5l207 -78q-34 -90 -100.5 -147.5t-140.5 -79.5t-162 -22q-225 0 -347 143.5t-122 384.5q0 247 123 390.5t329 143.5q195 0 316 -131.5t121 -371.5q0 -57 -5 -93zM309 584h414q-9 115 -61 177t-146 62 q-92 0 -139 -61.5t-68 -177.5zM127 1141l225 395h334l225 -395h-215l-180 252l-176 -252h-213z" />
<glyph unicode="&#xeb;" d="M956 446h-643q24 -241 226 -241q70 0 122.5 26.5t75.5 75.5l207 -78q-34 -90 -100.5 -147.5t-140.5 -79.5t-162 -22q-225 0 -347 143.5t-122 384.5q0 247 123 390.5t329 143.5q195 0 316 -131.5t121 -371.5q0 -57 -5 -93zM309 584h414q-9 115 -61 177t-146 62 q-92 0 -139 -61.5t-68 -177.5zM274 1178q-71 0 -110 44t-39 111q0 68 39.5 114t109.5 46q71 0 110.5 -46t39.5 -114q0 -67 -39.5 -111t-110.5 -44zM766 1178q-71 0 -110.5 44t-39.5 111q0 68 39.5 114t110.5 46q70 0 109.5 -46t39.5 -114q0 -67 -39 -111t-110 -44z" />
<glyph unicode="&#xec;" d="M838 236v-236h-652v236h209v548h-209v236h457v-784h195zM418 1141l-266 395h284l197 -395h-215z" />
<glyph unicode="&#xed;" d="M838 236v-236h-652v236h209v548h-209v236h457v-784h195zM813 1536l-266 -395h-215l196 395h285z" />
<glyph unicode="&#xee;" d="M838 236v-236h-652v236h209v548h-209v236h457v-784h195zM94 1141l225 395h334l226 -395h-215l-181 252l-176 -252h-213z" />
<glyph unicode="&#xef;" d="M838 236v-236h-652v236h209v548h-209v236h457v-784h195zM246 1178q-71 0 -110.5 44t-39.5 111q0 68 39.5 114t110.5 46q70 0 109.5 -46t39.5 -114q0 -67 -39 -111t-110 -44zM737 1178q-71 0 -110 44t-39 111q0 68 39.5 114t109.5 46q71 0 110.5 -46t39.5 -114 q0 -67 -39.5 -111t-110.5 -44z" />
<glyph unicode="&#xf0;" d="M690 1532l78 -86l-125 -113q145 -134 227 -333t82 -439q0 -289 -117 -435t-315 -146q-203 0 -326.5 141.5t-123.5 365.5q0 218 114 360t277 142q48 0 107.5 -12t101.5 -35q-17 56 -65.5 124t-115.5 130l-149 -135l-76 86l135 121q-105 72 -192 86l72 168 q142 -29 272 -117zM332 485q0 -130 48 -205t132 -75t132 75t48 205q0 131 -48 207t-132 76t-132 -76t-48 -207z" />
<glyph unicode="&#xf1;" d="M946 684v-684h-250v653q0 98 -35.5 140.5t-103.5 42.5q-71 0 -118.5 -37t-86.5 -99v-700h-250v1020h242v-82q87 104 277 104q168 0 246.5 -86t78.5 -272zM725 1176q-59 0 -116.5 21.5t-97 47t-96 47t-114.5 21.5q-63 0 -115.5 -27t-115.5 -92v207q82 115 227 115 q59 0 116.5 -21.5t97 -47.5t96 -47.5t114.5 -21.5q63 0 115.5 27t115.5 92v-207q-81 -114 -227 -114z" />
<glyph unicode="&#xf2;" d="M512 817q-87 0 -143 -87.5t-56 -219.5t56 -219.5t143 -87.5t143 87.5t56 219.5t-56 219.5t-143 87.5zM512 1042q131 0 232 -70.5t154.5 -191t53.5 -270.5t-53.5 -270.5t-154.5 -190t-232 -69.5t-232 69.5t-154.5 190t-53.5 270.5t53.5 270.5t154.5 191t232 70.5z M475 1141l-266 395h285l196 -395h-215z" />
<glyph unicode="&#xf3;" d="M512 817q-87 0 -143 -87.5t-56 -219.5t56 -219.5t143 -87.5t143 87.5t56 219.5t-56 219.5t-143 87.5zM512 1042q131 0 232 -70.5t154.5 -191t53.5 -270.5t-53.5 -270.5t-154.5 -190t-232 -69.5t-232 69.5t-154.5 190t-53.5 270.5t53.5 270.5t154.5 191t232 70.5z M813 1536l-266 -395h-215l196 395h285z" />
<glyph unicode="&#xf4;" d="M512 817q-87 0 -143 -87.5t-56 -219.5t56 -219.5t143 -87.5t143 87.5t56 219.5t-56 219.5t-143 87.5zM512 1042q131 0 232 -70.5t154.5 -191t53.5 -270.5t-53.5 -270.5t-154.5 -190t-232 -69.5t-232 69.5t-154.5 190t-53.5 270.5t53.5 270.5t154.5 191t232 70.5z M119 1141l225 395h334l225 -395h-215l-180 252l-176 -252h-213z" />
<glyph unicode="&#xf5;" d="M512 817q-87 0 -143 -87.5t-56 -219.5t56 -219.5t143 -87.5t143 87.5t56 219.5t-56 219.5t-143 87.5zM512 1042q131 0 232 -70.5t154.5 -191t53.5 -270.5t-53.5 -270.5t-154.5 -190t-232 -69.5t-232 69.5t-154.5 190t-53.5 270.5t53.5 270.5t154.5 191t232 70.5z M725 1176q-59 0 -116.5 21.5t-97 47t-96 47t-114.5 21.5q-63 0 -115.5 -27t-115.5 -92v207q82 115 227 115q59 0 116.5 -21.5t97 -47.5t96 -47.5t114.5 -21.5q63 0 115.5 27t115.5 92v-207q-81 -114 -227 -114z" />
<glyph unicode="&#xf6;" d="M512 817q-87 0 -143 -87.5t-56 -219.5t56 -219.5t143 -87.5t143 87.5t56 219.5t-56 219.5t-143 87.5zM512 1042q131 0 232 -70.5t154.5 -191t53.5 -270.5t-53.5 -270.5t-154.5 -190t-232 -69.5t-232 69.5t-154.5 190t-53.5 270.5t53.5 270.5t154.5 191t232 70.5z M266 1178q-71 0 -110 44t-39 111q0 68 39.5 114t109.5 46q71 0 110.5 -46t39.5 -114q0 -67 -39.5 -111t-110.5 -44zM758 1178q-71 0 -110.5 44t-39.5 111q0 68 39.5 114t110.5 46q70 0 109.5 -46t39.5 -114q0 -67 -39 -111t-110 -44z" />
<glyph unicode="&#xf7;" d="M664 1188q0 -70 -39 -115t-111 -45t-113 45.5t-41 114.5t41 116.5t113 47.5t111 -47t39 -117zM664 289q0 -69 -39 -114.5t-111 -45.5t-113 45.5t-41 114.5t41 116.5t113 47.5t111 -47t39 -117zM969 655h-914v164h914v-164z" />
<glyph unicode="&#xf8;" d="M512 1042q107 0 197 -49l100 164l137 -78l-115 -190q121 -150 121 -379q0 -150 -53.5 -270.5t-154.5 -190t-232 -69.5q-115 0 -203 51l-96 -158l-137 76l112 186q-116 147 -116 375q0 150 53.5 270.5t154.5 191t232 70.5zM737 510q0 92 -32 170l-283 -465q42 -22 90 -22 q99 0 162 90.5t63 226.5zM512 827q-99 0 -162 -90.5t-63 -226.5q0 -93 28 -166l281 463q-42 20 -84 20z" />
<glyph unicode="&#xf9;" d="M942 1020v-643q0 -184 -117.5 -290.5t-308.5 -106.5q-193 0 -313.5 106.5t-120.5 290.5v643h250v-625q0 -94 53 -140t129 -46t131 46t55 140v625h242zM475 1141l-266 395h285l196 -395h-215z" />
<glyph unicode="&#xfa;" d="M942 1020v-643q0 -184 -117.5 -290.5t-308.5 -106.5q-193 0 -313.5 106.5t-120.5 290.5v643h250v-625q0 -94 53 -140t129 -46t131 46t55 140v625h242zM813 1536l-266 -395h-215l196 395h285z" />
<glyph unicode="&#xfb;" d="M942 1020v-643q0 -184 -117.5 -290.5t-308.5 -106.5q-193 0 -313.5 106.5t-120.5 290.5v643h250v-625q0 -94 53 -140t129 -46t131 46t55 140v625h242zM119 1141l225 395h334l225 -395h-215l-180 252l-176 -252h-213z" />
<glyph unicode="&#xfc;" d="M942 1020v-643q0 -184 -117.5 -290.5t-308.5 -106.5q-193 0 -313.5 106.5t-120.5 290.5v643h250v-625q0 -94 53 -140t129 -46t131 46t55 140v625h242zM266 1178q-71 0 -110 44t-39 111q0 68 39.5 114t109.5 46q71 0 110.5 -46t39.5 -114q0 -67 -39.5 -111t-110.5 -44z M758 1178q-71 0 -110.5 44t-39.5 111q0 68 39.5 114t110.5 46q70 0 109.5 -46t39.5 -114q0 -67 -39 -111t-110 -44z" />
<glyph unicode="&#xfd;" d="M727 1020h246l-428 -1428h-264l110 357l-340 1071h268l205 -711zM813 1536l-266 -395h-215l196 395h285z" />
<glyph unicode="&#xfe;" d="M549 836q-114 0 -197 -134v-385q82 -133 197 -133q80 0 119 77.5t39 248.5t-39 248.5t-119 77.5zM604 1042q352 0 352 -532q0 -530 -352 -530q-160 0 -252 92v-480h-250v1893h250v-537q94 94 252 94z" />
<glyph unicode="&#xff;" d="M727 1020h246l-428 -1428h-264l110 357l-340 1071h268l205 -711zM266 1178q-71 0 -110 44t-39 111q0 68 39.5 114t109.5 46q71 0 110.5 -46t39.5 -114q0 -67 -39.5 -111t-110.5 -44zM758 1178q-71 0 -110.5 44t-39.5 111q0 68 39.5 114t110.5 46q70 0 109.5 -46 t39.5 -114q0 -67 -39 -111t-110 -44z" />
<glyph unicode="&#x152;" d="M1006 250v-250h-570q-201 0 -303 115.5t-102 339.5v575q0 455 405 455h570v-250h-252v-365h211v-239h-211v-381h252zM293 1006v-537q0 -103 41 -161t119 -58h39v985h-39q-79 0 -119.5 -59t-40.5 -170z" />
<glyph unicode="&#x153;" d="M713 -20q-145 0 -213 143q-29 -63 -81.5 -103t-125.5 -40q-254 0 -254 516q0 278 70.5 412t189.5 134q72 0 124.5 -43t76.5 -104q63 147 221 147q69 0 121 -29.5t91 -97t59 -185t20 -284.5h-408q0 -264 111 -264q35 0 56.5 27.5t35.5 85.5l176 -55q-19 -55 -38.5 -94.5 t-51 -81t-77 -63t-103.5 -21.5zM436 510q0 338 -108 338q-107 0 -107 -340t107 -340q108 0 108 342zM602 584h223q-3 137 -32.5 187t-79.5 50q-53 0 -80.5 -51.5t-30.5 -185.5z" />
<glyph unicode="&#x178;" d="M266 1642q-71 0 -110 44t-39 112t39.5 114t109.5 46q71 0 110.5 -46t39.5 -114q0 -67 -39.5 -111.5t-110.5 -44.5zM758 1642q-71 0 -110.5 44.5t-39.5 111.5q0 68 39.5 114t110.5 46q70 0 109.5 -46t39.5 -114t-39 -112t-110 -44zM700 1485h301l-358 -893v-592h-262v592 l-356 893h309l184 -537z" />
<glyph unicode="&#x2c6;" d="M119 1141l225 395h334l225 -395h-215l-180 252l-176 -252h-213z" />
<glyph unicode="&#x2dc;" d="M725 1176q-59 0 -116.5 21.5t-97 47t-96 47t-114.5 21.5q-63 0 -115.5 -27t-115.5 -92v207q82 115 227 115q59 0 116.5 -21.5t97 -47.5t96 -47.5t114.5 -21.5q63 0 115.5 27t115.5 92v-207q-81 -114 -227 -114z" />
<glyph unicode="&#x2000;" horiz-adv-x="983" />
<glyph unicode="&#x2001;" horiz-adv-x="1966" />
<glyph unicode="&#x2002;" horiz-adv-x="983" />
<glyph unicode="&#x2003;" horiz-adv-x="1966" />
<glyph unicode="&#x2004;" horiz-adv-x="655" />
<glyph unicode="&#x2005;" horiz-adv-x="491" />
<glyph unicode="&#x2006;" horiz-adv-x="327" />
<glyph unicode="&#x2007;" horiz-adv-x="327" />
<glyph unicode="&#x2008;" horiz-adv-x="245" />
<glyph unicode="&#x2009;" horiz-adv-x="393" />
<glyph unicode="&#x200a;" horiz-adv-x="109" />
<glyph unicode="&#x2010;" d="M827 862v-219h-632v219h632z" />
<glyph unicode="&#x2011;" d="M827 862v-219h-632v219h632z" />
<glyph unicode="&#x2012;" d="M827 862v-219h-632v219h632z" />
<glyph unicode="&#x2013;" d="M870 862v-219h-716v219h716z" />
<glyph unicode="&#x2014;" d="M1024 862v-219h-1024v219h1024z" />
<glyph unicode="&#x2018;" d="M596 909l-242 56l152 540l158 -37z" />
<glyph unicode="&#x2019;" d="M422 1505l242 -55l-152 -541l-158 37z" />
<glyph unicode="&#x201a;" d="M391 317l242 -55l-152 -541l-157 37z" />
<glyph unicode="&#x201c;" d="M801 909l-242 56l152 540l157 -37zM391 909l-241 56l151 540l158 -37z" />
<glyph unicode="&#x201d;" d="M217 1505l242 -55l-152 -541l-157 37zM627 1505l241 -55l-151 -541l-158 37z" />
<glyph unicode="&#x201e;" d="M186 317l242 -55l-152 -541l-157 37zM596 317l242 -55l-152 -541l-158 37z" />
<glyph unicode="&#x2022;" d="M512 1130q154 0 263.5 -109t109.5 -263t-109.5 -263.5t-263.5 -109.5t-263.5 109.5t-109.5 263.5t109.5 263t263.5 109z" />
<glyph unicode="&#x2026;" d="M307 139q0 -70 -38.5 -114.5t-110.5 -44.5t-113 45t-41 114t41 116.5t113 47.5t110.5 -47t38.5 -117zM662 139q0 -69 -39 -114t-111 -45t-113 45t-41 114t41 116.5t113 47.5t111 -47t39 -117zM1020 139q0 -69 -39 -114t-111 -45t-112.5 45t-40.5 114q0 70 40.5 117 t112.5 47t111 -47t39 -117z" />
<glyph unicode="&#x202f;" horiz-adv-x="393" />
<glyph unicode="&#x2039;" d="M801 -20l-580 448v166l580 448v-249l-359 -283l359 -281v-249z" />
<glyph unicode="&#x203a;" d="M221 1042l580 -448v-166l-580 -448v249l359 283l-359 281v249z" />
<glyph unicode="&#x205f;" horiz-adv-x="491" />
<glyph unicode="&#x20ac;" d="M557 1505q288 0 377 -229l-184 -146q-38 79 -76.5 114.5t-112.5 35.5q-86 0 -131 -58t-45 -192v-72h346l-33 -127h-313v-143h260l-31 -127h-229v-106q0 -250 172 -250q80 0 122 47.5t42 120.5h250q-35 -393 -414 -393q-219 0 -326.5 126.5t-107.5 348.5v106h-92l43 127 h49v143h-92l43 127h49v72q0 222 107.5 348.5t326.5 126.5z" />
<glyph unicode="&#x2122;" d="M457 1485v-107h-135v-510h-132v510h-139v107h406zM969 1485v-617h-115v359l-96 -252l-94 252v-359h-117v617h131l80 -238l88 238h123z" />
<glyph unicode="&#x25fc;" d="M0 1024h1024v-1024h-1024v1024z" />
</font>
</defs>
</svg>
